<?xml version="1.0" standalone="no"?>
<!DOCTYPE svg PUBLIC "-//W3C//DTD SVG 1.1//EN" "http://www.w3.org/Graphics/SVG/1.1/DTD/svg11.dtd" >
<svg xmlns="http://www.w3.org/2000/svg" xmlns:xlink="http://www.w3.org/1999/xlink" version="1.1">
<metadata>
Created by FontForge 20170731 at Mon May 29 22:38:47 2017
 By ,,,
(c) 2017 IBM Corp. All rights reserved.
</metadata>
<defs>
<font id="IBMPlexSans-ExtraLight" horiz-adv-x="600" >
  <font-face 
    font-family="IBM Plex Sans ExtraLight"
    font-weight="200"
    font-stretch="normal"
    units-per-em="1000"
    panose-1="2 11 3 3 5 0 0 0 0 0"
    ascent="780"
    descent="-220"
    x-height="508"
    cap-height="698"
    bbox="-236 -220 1757 1098"
    underline-thickness="26"
    underline-position="-228"
    unicode-range="U+0020-FB02"
  />
<missing-glyph horiz-adv-x="225" 
d="M52 -220v920h121v-920h-121z" />
    <glyph glyph-name="fi" unicode="fi" horiz-adv-x="524" 
d="M121 0v477h-91v31h91v181q0 51 49 51h100v-31h-114v-201h267v-508h-35v477h-232v-477h-35zM406 665q-30 0 -30 26v9q0 26 29 26q30 0 30 -26v-9q0 -26 -29 -26z" />
    <glyph glyph-name=".notdef" horiz-adv-x="225" 
d="M52 -220v920h121v-920h-121z" />
    <glyph glyph-name=".null" horiz-adv-x="0" 
 />
    <glyph glyph-name="nonmarkingreturn" horiz-adv-x="333" 
 />
    <glyph glyph-name="space" unicode=" " horiz-adv-x="236" 
 />
    <glyph glyph-name="exclam" unicode="!" horiz-adv-x="260" 
d="M139 178h-19l-9 256v264h38v-264zM130 -7q-35 0 -35 33v9q0 33 35 33t35 -33v-9q0 -33 -35 -33z" />
    <glyph glyph-name="quotedbl" unicode="&#x22;" horiz-adv-x="384" 
d="M287 483h-33v257h33v-257zM129 483h-33v257h33v-257z" />
    <glyph glyph-name="numbersign" unicode="#" horiz-adv-x="711" 
d="M384 0l38 216h-178l-38 -216h-31l37 216h-144v29h150l35 208h-146v29h151l37 216h31l-37 -216h178l37 216h32l-38 -216h145v-29h-150l-35 -208h146v-29h-151l-37 -216h-32zM248 245h179l35 208h-178z" />
    <glyph glyph-name="dollar" unicode="$" horiz-adv-x="559" 
d="M298 -82h-29v82q-140 4 -225 115l28 23q78 -101 197 -106v314l-24 4q-100 16 -141.5 61.5t-41.5 115.5q0 82 55.5 125.5t151.5 45.5v82h29v-82q129 -7 193 -99l-28 -21q-56 81 -166 88v-292l22 -4q100 -18 141 -64.5t41 -116.5q0 -87 -54 -135.5t-149 -53.5v-82zM465 187
q0 71 -39.5 103.5t-113.5 47.5l-15 3v-309q81 5 124.5 44.5t43.5 110.5zM97 529q0 -67 39.5 -98.5t113.5 -47.5l19 -4v287q-82 -2 -127 -36.5t-45 -100.5z" />
    <glyph glyph-name="percent" unicode="%" horiz-adv-x="892" 
d="M222 0h-36l484 698h36zM218 323q-65 0 -105 48.5t-40 145.5q0 96 40 144.5t105 48.5t105 -48.5t40 -144.5q0 -97 -40 -145.5t-105 -48.5zM218 348q49 0 80.5 37t31.5 112v39q0 75 -31.5 112t-80.5 37t-80.5 -37t-31.5 -112v-39q0 -75 31.5 -112t80.5 -37zM674 -12
q-65 0 -105 48.5t-40 145.5q0 96 40 144.5t105 48.5t105 -48.5t40 -144.5q0 -97 -40 -145.5t-105 -48.5zM674 13q49 0 80.5 37t31.5 112v39q0 75 -31.5 112t-80.5 37t-80.5 -37t-31.5 -112v-39q0 -75 31.5 -112t80.5 -37z" />
    <glyph glyph-name="ampersand" unicode="&#x26;" horiz-adv-x="681" 
d="M601 0l-106 108q-31 -54 -87.5 -87t-132.5 -33q-94 0 -149.5 50.5t-55.5 131.5q0 39 12.5 71t37 56t50.5 41t63 35q-49 53 -71.5 92.5t-22.5 85.5q0 70 47 114.5t125 44.5q73 0 117.5 -40.5t44.5 -101.5q0 -66 -46.5 -110.5t-141.5 -90.5l205 -206q31 72 33 194h115v-32
h-85q-6 -110 -40 -186l134 -137h-46zM310 680q-62 0 -98.5 -34t-36.5 -86v-16q0 -36 22.5 -71.5t66.5 -84.5q83 38 128 78.5t45 90.5v13q0 50 -37 80t-90 30zM108 161q0 -64 47 -102.5t121 -38.5q135 0 198 109l-220 223q-73 -37 -109.5 -73.5t-36.5 -98.5v-19z" />
    <glyph glyph-name="quotesingle" unicode="'" horiz-adv-x="225" 
d="M129 483h-33v257h33v-257z" />
    <glyph glyph-name="parenleft" unicode="(" horiz-adv-x="333" 
d="M100 311q0 142 52.5 260.5t130.5 188.5h37q-80 -71 -133 -186t-53 -240v-46q0 -125 53 -240t133 -186h-37q-78 70 -130.5 188.5t-52.5 260.5z" />
    <glyph glyph-name="parenright" unicode=")" horiz-adv-x="333" 
d="M233 311q0 -142 -53 -260t-130 -189h-37q80 71 133 186t53 240v46q0 125 -53 240t-133 186h37q78 -70 130.5 -188.5t52.5 -260.5z" />
    <glyph glyph-name="asterisk" unicode="*" horiz-adv-x="383" 
d="M191 552l-90 -127l-25 18l94 125l-148 44l9 31l147 -51l-2 155h30l-2 -155l148 51l9 -31l-149 -44l95 -125l-25 -18z" />
    <glyph glyph-name="plus" unicode="+" 
d="M317 62h-34v228h-220v31h220v228h34v-228h220v-31h-220v-228z" />
    <glyph glyph-name="comma" unicode="," horiz-adv-x="248" 
d="M124 68q35 0 35 -34v-12q0 -41 -23 -87.5t-58 -78.5h-30q62 62 74 138q-34 1 -34 30v10q0 34 36 34z" />
    <glyph glyph-name="hyphen" unicode="-" horiz-adv-x="396" 
d="M316 287h-236v36h236v-36z" />
    <glyph glyph-name="period" unicode="." horiz-adv-x="248" 
d="M124 -7q-35 0 -35 33v9q0 33 35 33t35 -33v-9q0 -33 -35 -33z" />
    <glyph glyph-name="slash" unicode="/" horiz-adv-x="330" 
d="M44 -151h-32l244 891h32z" />
    <glyph glyph-name="zero" unicode="0" 
d="M300 -12q-232 0 -232 361t232 361t232 -361t-232 -361zM300 21q95 0 143.5 74t48.5 216v76q0 142 -48.5 216t-143.5 74t-143.5 -74t-48.5 -216v-76q0 -142 48.5 -216t143.5 -74z" />
    <glyph glyph-name="one" unicode="1" 
d="M545 0h-453v33h213v629l-229 -133l-15 29l241 140h40v-665h203v-33z" />
    <glyph glyph-name="two" unicode="2" 
d="M524 33v-33h-440v37l259 257q109 107 109 206v26q0 68 -41.5 109.5t-117.5 41.5q-135 0 -177 -134l-33 10q20 71 72.5 114t138.5 43q94 0 145.5 -52.5t51.5 -143.5q0 -67 -31 -125t-94 -119l-241 -237h399z" />
    <glyph glyph-name="three" unicode="3" 
d="M186 382h89q74 0 119.5 39t45.5 100v20q0 62 -43 99t-112 37q-117 0 -167 -96l-28 17q52 112 195 112q87 0 140.5 -47t53.5 -127q0 -70 -37.5 -112t-101.5 -55v-4q70 -9 112 -55.5t42 -121.5q0 -91 -58.5 -145.5t-156.5 -54.5q-144 0 -216 110l29 20q61 -97 187 -97
q79 0 127 42t48 112v23q0 70 -47 111t-129 41h-92v32z" />
    <glyph glyph-name="four" unicode="4" 
d="M437 0h-34v155h-358v33l344 510h48v-512h114v-31h-114v-155zM401 661l-321 -475h323v475h-2z" />
    <glyph glyph-name="five" unicode="5" 
d="M485 698v-33h-319l-23 -318h4q54 71 161 71q95 0 149 -56t54 -155q0 -101 -58 -160t-156 -59q-144 0 -215 110l29 20q61 -97 186 -97q82 0 128.5 47t46.5 125v23q0 78 -44.5 124t-125.5 46q-57 0 -92 -16t-65 -52l-35 5l26 375h349z" />
    <glyph glyph-name="six" unicode="6" 
d="M300 -12q-108 0 -163 67t-55 178q0 156 74.5 273.5t193.5 191.5h50q-121 -79 -188 -169t-89 -212l3 -1q54 105 180 105q96 0 153 -57.5t57 -155.5q0 -99 -58.5 -159.5t-157.5 -60.5zM299 21q82 0 130 47.5t48 123.5v26q0 76 -48 123.5t-130 47.5t-130 -47.5t-48 -123.5
v-24q0 -77 48.5 -125t129.5 -48z" />
    <glyph glyph-name="seven" unicode="7" 
d="M224 0h-40l294 666h-368v-158h-35v190h441v-33z" />
    <glyph glyph-name="eight" unicode="8" 
d="M300 -12q-107 0 -169 53.5t-62 140.5q0 73 40.5 120.5t110.5 61.5v5q-60 14 -94 57.5t-34 108.5q0 80 56 127.5t152 47.5t152 -47.5t56 -127.5q0 -65 -34 -108.5t-94 -57.5v-5q70 -14 110.5 -61.5t40.5 -120.5q0 -87 -62 -140.5t-169 -53.5zM300 21q88 0 140 41.5
t52 110.5v25q0 69 -52 110.5t-140 41.5t-140 -41.5t-52 -110.5v-25q0 -69 52 -110.5t140 -41.5zM300 382q78 0 123.5 37.5t45.5 99.5v22q0 62 -45.5 99t-123.5 37t-123.5 -37t-45.5 -99v-22q0 -62 45.5 -99.5t123.5 -37.5z" />
    <glyph glyph-name="nine" unicode="9" 
d="M520 465q0 -156 -74 -273.5t-193 -191.5h-50q121 79 187.5 169t89.5 212l-4 1q-54 -105 -179 -105q-96 0 -153.5 57.5t-57.5 155.5q0 99 58.5 159.5t157.5 60.5q108 0 163 -67t55 -178zM303 309q83 0 130.5 47.5t47.5 123.5v24q0 77 -48.5 125t-129.5 48
q-82 0 -130 -47.5t-48 -123.5v-26q0 -76 48 -123.5t130 -47.5z" />
    <glyph glyph-name="colon" unicode=":" horiz-adv-x="268" 
d="M134 425q-35 0 -35 33v9q0 33 35 33t35 -33v-9q0 -33 -35 -33zM134 -7q-35 0 -35 33v9q0 33 35 33t35 -33v-9q0 -33 -35 -33z" />
    <glyph glyph-name="semicolon" unicode=";" horiz-adv-x="268" 
d="M134 425q-35 0 -35 33v9q0 33 35 33t35 -33v-9q0 -33 -35 -33zM134 68q35 0 35 -34v-12q0 -41 -23 -87.5t-58 -78.5h-30q62 62 74 138q-34 1 -34 30v10q0 34 36 34z" />
    <glyph glyph-name="less" unicode="&#x3c;" 
d="M514 26l-428 256v33l428 256v-38l-392 -233v-3l392 -233v-38z" />
    <glyph glyph-name="equal" unicode="=" 
d="M537 382h-474v31h474v-31zM537 198h-474v31h474v-31z" />
    <glyph glyph-name="greater" unicode="&#x3e;" 
d="M86 26v38l392 233v3l-392 233v38l428 -256v-33z" />
    <glyph glyph-name="question" unicode="?" horiz-adv-x="462" 
d="M230 184h-36v170q91 2 143 46t52 115v23q0 63 -41 101.5t-111 38.5q-133 0 -170 -132l-32 10q43 154 203 154q87 0 138 -49.5t51 -131.5q0 -87 -53 -139.5t-144 -62.5v-143zM212 -7q-35 0 -35 33v9q0 33 35 33t35 -33v-9q0 -33 -35 -33z" />
    <glyph glyph-name="at" unicode="@" horiz-adv-x="883" 
d="M677 -93v-28h-235q-163 0 -268 112.5t-105 305.5q0 187 105.5 300t270.5 113q75 0 141 -24.5t117.5 -71t81 -120.5t29.5 -166q0 -115 -37 -187t-113 -72q-40 0 -65 22t-30 59h-3q-40 -81 -133 -81q-81 0 -127 56t-46 162q0 109 46 165t127 56q94 0 130 -75h3v64h32v-326
q0 -35 18 -54.5t51 -19.5q53 0 84 55.5t31 153.5v47q0 146 -96 237.5t-241 91.5q-149 0 -246.5 -101.5t-97.5 -255.5v-54q0 -160 96 -262t245 -102h235zM436 98q56 0 93 33t37 86v143q0 53 -37 86t-93 33q-67 0 -103 -44.5t-36 -123.5v-48q0 -77 36 -121t103 -44z" />
    <glyph glyph-name="A" unicode="A" horiz-adv-x="610" 
d="M580 0h-39l-81 227h-311l-81 -227h-38l251 698h48zM450 259l-144 403h-4l-143 -403h291z" />
    <glyph glyph-name="B" unicode="B" horiz-adv-x="624" 
d="M104 0v698h261q78 0 121 -45t43 -127q0 -126 -101 -156v-3q60 -10 95.5 -55t35.5 -120q0 -87 -46.5 -139.5t-128.5 -52.5h-280zM141 350v-317h237q69 0 105.5 39t36.5 99v40q0 60 -36.5 99.5t-105.5 39.5h-237zM141 665v-283h221q62 0 95 34.5t33 87.5v40q0 52 -33 86.5
t-95 34.5h-221z" />
    <glyph glyph-name="C" unicode="C" horiz-adv-x="613" 
d="M331 -12q-127 0 -195.5 91.5t-68.5 268.5t69 269.5t195 92.5q77 0 134.5 -39t87.5 -106l-31 -17q-26 61 -75.5 95t-115.5 34q-106 0 -165 -77.5t-59 -223.5v-56q0 -146 59 -222.5t165 -76.5q71 0 121.5 36t75.5 101l30 -16q-29 -72 -87.5 -113t-139.5 -41z" />
    <glyph glyph-name="D" unicode="D" horiz-adv-x="661" 
d="M104 0v698h212q137 0 207.5 -88t70.5 -261t-70.5 -261t-207.5 -88h-212zM141 33h175q117 0 177.5 74.5t60.5 205.5v72q0 131 -60.5 205.5t-177.5 74.5h-175v-632z" />
    <glyph glyph-name="E" unicode="E" horiz-adv-x="566" 
d="M496 0h-392v698h392v-33h-355v-280h341v-33h-341v-319h355v-33z" />
    <glyph glyph-name="F" unicode="F" horiz-adv-x="541" 
d="M141 0h-37v698h384v-33h-347v-282h329v-33h-329v-350z" />
    <glyph glyph-name="G" unicode="G" horiz-adv-x="673" 
d="M560 0v111h-3q-53 -123 -215 -123q-131 0 -203 92t-72 269t72 269t205 92q82 0 143 -39t91 -106l-30 -17q-26 61 -80 95t-124 34q-111 0 -174 -77.5t-63 -220.5v-59q0 -144 63 -221.5t175 -77.5q92 0 153 48.5t61 138.5v97h-171v33h207v-338h-35z" />
    <glyph glyph-name="H" unicode="H" horiz-adv-x="695" 
d="M554 0v352h-413v-352h-37v698h37v-313h413v313h37v-698h-37z" />
    <glyph glyph-name="I" unicode="I" horiz-adv-x="379" 
d="M313 0h-247v31h105v636h-105v31h247v-31h-105v-636h105v-31z" />
    <glyph glyph-name="J" unicode="J" horiz-adv-x="475" 
d="M96 698h282v-515q0 -93 -47.5 -144t-131.5 -51q-66 0 -114 36.5t-62 96.5l33 9q14 -49 51.5 -79t92.5 -30q69 0 105 42.5t36 122.5v479h-245v33z" />
    <glyph glyph-name="K" unicode="K" horiz-adv-x="587" 
d="M522 0l-254 377l-127 -139v-238h-37v698h37v-414h2l123 137l248 277h46l-267 -296l273 -402h-44z" />
    <glyph glyph-name="L" unicode="L" horiz-adv-x="481" 
d="M460 0h-356v698h37v-665h319v-33z" />
    <glyph glyph-name="M" unicode="M" horiz-adv-x="800" 
d="M660 0v653h-4l-256 -433l-257 432h-3v-652h-36v698h52l242 -410h4l241 410h53v-698h-36z" />
    <glyph glyph-name="N" unicode="N" horiz-adv-x="696" 
d="M542 0l-399 650h-3v-650h-36v698h49l400 -650h3v650h36v-698h-50z" />
    <glyph glyph-name="O" unicode="O" horiz-adv-x="686" 
d="M343 -12q-132 0 -204 92t-72 269t72 269t204 92t204 -92t72 -269t-72 -269t-204 -92zM343 21q110 0 173 77.5t63 220.5v60q0 143 -63 220.5t-173 77.5t-173 -77.5t-63 -220.5v-60q0 -143 63 -220.5t173 -77.5z" />
    <glyph glyph-name="P" unicode="P" horiz-adv-x="597" 
d="M141 0h-37v698h271q86 0 132.5 -51.5t46.5 -139.5t-46.5 -139.5t-132.5 -51.5h-234v-316zM141 665v-316h234q67 0 103 39t36 97v44q0 58 -36 97t-103 39h-234z" />
    <glyph glyph-name="Q" unicode="Q" horiz-adv-x="686" 
d="M468 -118v-32h-98q-42 0 -42 41v97q-125 5 -193 97t-68 264q0 177 72 269t204 92t204 -92t72 -269q0 -170 -66.5 -261.5t-188.5 -98.5v-107h104zM343 21q110 0 173 77.5t63 220.5v60q0 143 -63 220.5t-173 77.5t-173 -77.5t-63 -220.5v-60q0 -143 63 -220.5t173 -77.5z
" />
    <glyph glyph-name="R" unicode="R" horiz-adv-x="632" 
d="M141 317v-317h-37v698h271q86 0 132.5 -50.5t46.5 -139.5q0 -85 -43.5 -135t-124.5 -54l185 -319h-42l-182 317h-206zM141 349h234q67 0 103 39t36 97v44q0 58 -36 97t-103 39h-234v-316z" />
    <glyph glyph-name="S" unicode="S" horiz-adv-x="555" 
d="M279 -12q-150 0 -237 116l28 22q80 -105 210 -105q87 0 135 41t48 118q0 73 -40 106.5t-114 48.5l-67 13q-183 35 -183 182q0 88 58.5 134t158.5 46q145 0 212 -100l-28 -20q-62 87 -186 87q-85 0 -131.5 -37t-46.5 -109q0 -69 40 -102t114 -47l67 -13
q100 -20 141.5 -67.5t41.5 -118.5q0 -93 -59 -144t-162 -51z" />
    <glyph glyph-name="T" unicode="T" horiz-adv-x="563" 
d="M545 665h-245v-665h-37v665h-245v33h527v-33z" />
    <glyph glyph-name="U" unicode="U" horiz-adv-x="658" 
d="M97 698h37v-430q0 -135 43 -191t152 -56t152 56t43 191v430h37v-424q0 -156 -52 -221t-181 -65q-128 0 -179.5 65t-51.5 221v424z" />
    <glyph glyph-name="V" unicode="V" horiz-adv-x="580" 
d="M313 0h-48l-237 698h40l220 -659h4l221 659h39z" />
    <glyph glyph-name="W" unicode="W" horiz-adv-x="877" 
d="M255 0h-45l-182 698h39l166 -650h3l178 650h48l178 -650h3l168 650h38l-184 -698h-46l-180 657h-3z" />
    <glyph glyph-name="X" unicode="X" horiz-adv-x="571" 
d="M309 357l235 -357h-44l-213 325h-2l-217 -325h-41l236 354l-228 344h44l206 -312h2l206 312h43z" />
    <glyph glyph-name="Y" unicode="Y" horiz-adv-x="557" 
d="M297 0h-37v290l-241 408h42l216 -368h3l217 368h41l-241 -408v-290z" />
    <glyph glyph-name="Z" unicode="Z" horiz-adv-x="561" 
d="M531 33v-33h-493v35l434 630h-411v33h451v-35l-434 -630h453z" />
    <glyph glyph-name="bracketleft" unicode="[" horiz-adv-x="305" 
d="M238 -138h-134v898h134v-29h-102v-840h102v-29z" />
    <glyph glyph-name="backslash" unicode="\" horiz-adv-x="330" 
d="M312 -151h-32l-240 891h32z" />
    <glyph glyph-name="bracketright" unicode="]" horiz-adv-x="305" 
d="M67 760h134v-898h-134v29h102v840h-102v29z" />
    <glyph glyph-name="asciicircum" unicode="^" 
d="M536 331l-28 -15l-207 348h-2l-207 -348l-28 15l217 367h38z" />
    <glyph glyph-name="underscore" unicode="_" horiz-adv-x="568" 
d="M538 -147h-508v30h508v-30z" />
    <glyph glyph-name="grave" unicode="`" 
d="M311 587l-113 153l32 18l105 -158z" />
    <glyph glyph-name="a" unicode="a" horiz-adv-x="522" 
d="M500 0h-69q-41 0 -43 42v37h-4q-42 -91 -162 -91q-79 0 -122 38t-43 107q0 147 197 147h133v68q0 141 -139 141q-107 0 -148 -90l-25 17q47 104 174 104q84 0 128.5 -43.5t44.5 -124.5v-321h78v-31zM225 19q69 0 115.5 34t46.5 95v104h-133q-160 0 -160 -104v-28
q0 -48 36 -74.5t95 -26.5z" />
    <glyph glyph-name="b" unicode="b" horiz-adv-x="567" 
d="M100 0v740h35v-311h3q18 40 59.5 65.5t101.5 25.5q100 0 155.5 -68.5t55.5 -197.5t-55.5 -197.5t-155.5 -68.5q-60 0 -101 25.5t-60 65.5h-3v-79h-35zM294 20q84 0 131 55t47 150v58q0 95 -47 150.5t-131 55.5q-65 0 -112 -36t-47 -91v-214q0 -56 46.5 -92t112.5 -36z
" />
    <glyph glyph-name="c" unicode="c" horiz-adv-x="491" 
d="M272 -12q-102 0 -158.5 69t-56.5 197q0 129 56.5 197.5t158.5 68.5q121 0 171 -105l-29 -15q-45 89 -142 89q-84 0 -130.5 -55.5t-46.5 -150.5v-58q0 -95 46.5 -150.5t130.5 -55.5q104 0 153 89l26 -18q-55 -102 -179 -102z" />
    <glyph glyph-name="d" unicode="d" horiz-adv-x="567" 
d="M432 0v79h-3q-19 -40 -60 -65.5t-101 -25.5q-100 0 -155.5 68.5t-55.5 197.5t55.5 197.5t155.5 68.5q60 0 101.5 -25.5t59.5 -65.5h3v311h35v-740h-35zM273 20q66 0 112.5 36t46.5 92v214q0 55 -47 91t-112 36q-84 0 -131 -55.5t-47 -150.5v-58q0 -95 47 -150t131 -55z
" />
    <glyph glyph-name="e" unicode="e" horiz-adv-x="537" 
d="M275 -12q-102 0 -160 69.5t-58 196.5t56.5 196.5t157.5 69.5q94 0 151.5 -69t57.5 -183v-16h-386v-27q0 -94 48 -150t133 -56q121 0 167 116l27 -15q-23 -62 -73 -97t-121 -35zM271 489q-83 0 -130 -55.5t-47 -149.5v-4h348v6q0 91 -47 147t-124 56z" />
    <glyph glyph-name="f" unicode="f" horiz-adv-x="294" 
d="M121 0v477h-91v31h91v181q0 51 49 51h100v-31h-114v-201h114v-31h-114v-477h-35z" />
    <glyph glyph-name="g" unicode="g" horiz-adv-x="528" 
d="M506 -63q0 -149 -242 -149q-216 0 -216 129q0 85 95 116v4q-51 17 -51 69q0 63 86 87v3q-93 42 -93 153q0 78 48.5 124.5t129.5 46.5q66 0 108 -30v40q0 37 35 37h97v-31h-108v-64q48 -48 48 -123q0 -77 -49.5 -124t-129.5 -47q-22 0 -55 7q-85 -24 -85 -74q0 -52 85 -52
h129q168 0 168 -122zM471 -65q0 45 -31 68t-104 23h-159q-94 -25 -94 -105q0 -46 40.5 -74t112.5 -28h55q84 0 132 29t48 87zM264 209q65 0 102.5 33.5t37.5 88.5v36q0 55 -37.5 88.5t-102.5 33.5q-66 0 -103 -33.5t-37 -88.5v-36q0 -55 38 -88.5t102 -33.5z" />
    <glyph glyph-name="h" unicode="h" horiz-adv-x="559" 
d="M100 0v740h35v-310h3q37 90 156 90q84 0 128.5 -50t44.5 -144v-326h-35v320q0 169 -146 169q-63 0 -107 -33.5t-44 -94.5v-361h-35z" />
    <glyph glyph-name="i" unicode="i" horiz-adv-x="235" 
d="M118 665q-30 0 -30 26v9q0 26 29 26q30 0 30 -26v-9q0 -26 -29 -26zM100 0v508h35v-508h-35z" />
    <glyph glyph-name="j" unicode="j" horiz-adv-x="235" 
d="M100 -169v677h35v-657q0 -51 -48 -51h-72v31h85zM118 665q-30 0 -30 26v9q0 26 29 26q30 0 30 -26v-9q0 -26 -29 -26z" />
    <glyph glyph-name="k" unicode="k" horiz-adv-x="499" 
d="M100 0v740h35v-508h3l80 81l193 195h44l-209 -211l234 -297h-43l-216 274l-86 -85v-189h-35z" />
    <glyph glyph-name="l" unicode="l" horiz-adv-x="255" 
d="M218 0h-75q-43 0 -43 42v698h35v-709h83v-31z" />
    <glyph glyph-name="m" unicode="m" horiz-adv-x="878" 
d="M135 0h-35v508h35v-78h3q38 90 150 90q126 0 159 -110h3q15 50 56.5 80t107.5 30q83 0 127.5 -50t44.5 -144v-326h-35v321q0 168 -144 168q-62 0 -104 -33.5t-42 -95.5v-360h-35v321q0 168 -144 168q-62 0 -104.5 -33.5t-42.5 -94.5v-361z" />
    <glyph glyph-name="n" unicode="n" horiz-adv-x="559" 
d="M135 0h-35v508h35v-78h3q37 90 156 90q84 0 128.5 -50t44.5 -144v-326h-35v320q0 169 -146 169q-63 0 -107 -33.5t-44 -94.5v-361z" />
    <glyph glyph-name="o" unicode="o" horiz-adv-x="544" 
d="M272 -12q-101 0 -158 69t-57 197t57 197t158 69t158 -69t57 -197t-57 -197t-158 -69zM272 19q84 0 130.5 55.5t46.5 152.5v54q0 98 -46.5 153t-130.5 55t-130.5 -55t-46.5 -153v-54q0 -97 46.5 -152.5t130.5 -55.5z" />
    <glyph glyph-name="p" unicode="p" horiz-adv-x="567" 
d="M100 -200v708h35v-79h3q18 40 59.5 65.5t101.5 25.5q100 0 155.5 -68.5t55.5 -197.5t-55.5 -197.5t-155.5 -68.5q-60 0 -101 25.5t-60 65.5h-3v-279h-35zM294 20q84 0 131 55t47 150v58q0 95 -47 150.5t-131 55.5q-65 0 -112 -36t-47 -91v-214q0 -56 46.5 -92t112.5 -36z
" />
    <glyph glyph-name="q" unicode="q" horiz-adv-x="567" 
d="M432 -200v279h-3q-19 -40 -60 -65.5t-101 -25.5q-100 0 -155.5 68.5t-55.5 197.5t55.5 197.5t155.5 68.5q60 0 101.5 -25.5t59.5 -65.5h3v79h35v-708h-35zM273 20q66 0 112.5 36t46.5 92v214q0 55 -47 91t-112 36q-84 0 -131 -55.5t-47 -150.5v-58q0 -95 47 -150t131 -55
z" />
    <glyph glyph-name="r" unicode="r" horiz-adv-x="347" 
d="M135 0h-35v508h35v-89h4q41 89 156 89h38v-33h-44q-66 0 -110 -33t-44 -93v-349z" />
    <glyph glyph-name="s" unicode="s" horiz-adv-x="468" 
d="M237 -12q-122 0 -191 95l27 20q34 -45 72.5 -64.5t92.5 -19.5q67 0 102.5 28t35.5 81q0 49 -29 75t-91 36l-43 7q-73 11 -111 43.5t-38 96.5t46.5 99t119.5 35q104 0 170 -75l-25 -23q-56 67 -146 67q-61 0 -96 -26.5t-35 -75.5t29 -73.5t92 -34.5l43 -7
q73 -12 110.5 -45.5t37.5 -95.5q0 -67 -46 -105t-127 -38z" />
    <glyph glyph-name="t" unicode="t" horiz-adv-x="320" 
d="M268 0h-103q-43 0 -43 42v435h-92v31h66q16 0 22 7t6 24v113h33v-144h119v-31h-119v-446h111v-31z" />
    <glyph glyph-name="u" unicode="u" horiz-adv-x="559" 
d="M424 0v78h-4q-15 -39 -53.5 -64.5t-101.5 -25.5q-84 0 -129 50t-45 144v326h35v-320q0 -169 147 -169q63 0 107 33.5t44 95.5v360h35v-508h-35z" />
    <glyph glyph-name="v" unicode="v" horiz-adv-x="461" 
d="M210 0l-187 508h37l170 -470h3l170 470h35l-187 -508h-41z" />
    <glyph glyph-name="w" unicode="w" horiz-adv-x="735" 
d="M184 0l-150 508h36l135 -472h3l143 472h34l144 -472h3l135 472h34l-150 -508h-43l-139 456h-3l-139 -456h-43z" />
    <glyph glyph-name="x" unicode="x" horiz-adv-x="479" 
d="M69 0h-39l189 256l-183 252h40l162 -224h2l163 224h39l-183 -250l188 -258h-40l-167 231h-2z" />
    <glyph glyph-name="y" unicode="y" horiz-adv-x="462" 
d="M233 38l170 470h35l-248 -675q-8 -18 -19 -25.5t-33 -7.5h-74v31h90l60 159l-191 518h37l170 -470h3z" />
    <glyph glyph-name="z" unicode="z" horiz-adv-x="428" 
d="M404 0h-376v32l327 445h-317v31h357v-30l-328 -447h337v-31z" />
    <glyph glyph-name="braceleft" unicode="{" horiz-adv-x="322" 
d="M256 -138h-97q-38 0 -38 39v296q0 86 -97 86v56q97 0 97 86v296q0 39 38 39h97v-29h-103v-304q0 -47 -27 -76.5t-71 -31.5v-16q44 -2 71 -31.5t27 -76.5v-304h103v-29z" />
    <glyph glyph-name="bar" unicode="|" horiz-adv-x="255" 
d="M143 -138h-31v898h31v-898z" />
    <glyph glyph-name="braceright" unicode="}" horiz-adv-x="322" 
d="M66 760h97q38 0 38 -39v-296q0 -86 97 -86v-56q-97 0 -97 -86v-296q0 -39 -38 -39h-97v29h103v304q0 47 27 76.5t71 31.5v16q-44 2 -71 31.5t-27 76.5v304h-103v29z" />
    <glyph glyph-name="asciitilde" unicode="~" 
d="M423 252q-45 0 -130 38q-79 36 -118 36q-50 0 -93 -40l-18 22q48 49 113 49q45 0 130 -38q79 -36 118 -36q50 0 93 40l18 -22q-48 -49 -113 -49z" />
    <glyph glyph-name="uni00A0" unicode="&#xa0;" horiz-adv-x="236" 
 />
    <glyph glyph-name="exclamdown" unicode="&#xa1;" horiz-adv-x="260" 
d="M120 330h19l9 -256v-264h-37v264zM130 515q35 0 35 -33v-9q0 -33 -35 -33t-35 33v9q0 33 35 33z" />
    <glyph glyph-name="cent" unicode="&#xa2;" horiz-adv-x="492" 
d="M281 -114h-32v103q-92 8 -142 76t-50 189q0 122 50 190t142 75v103h32v-102q111 -3 162 -104l-29 -15q-45 85 -134 88v-469q99 3 146 88l26 -18q-54 -99 -171 -102v-102zM95 225q0 -88 40.5 -142.5t113.5 -61.5v466q-73 -6 -113.5 -60.5t-40.5 -143.5v-58z" />
    <glyph glyph-name="sterling" unicode="&#xa3;" horiz-adv-x="583" 
d="M516 0h-433v43q90 61 90 181q0 39 -12 82h-93v31h84q-4 11 -14 39t-15 43t-9.5 40t-4.5 48q0 93 59 148t154 55q133 0 203 -117l-30 -19q-60 103 -173 103q-80 0 -127.5 -45.5t-47.5 -126.5q0 -22 4.5 -47t9 -39t15 -43.5t13.5 -38.5h218v-31h-209q11 -44 11 -79
q0 -124 -89 -191v-3h396v-33z" />
    <glyph glyph-name="yen" unicode="&#xa5;" horiz-adv-x="586" 
d="M504 163h-193v-163h-36v163h-193v30h193v128h-193v30h174l-211 347h41l206 -342h4l205 342h40l-211 -347h174v-30h-193v-128h193v-30z" />
    <glyph glyph-name="brokenbar" unicode="&#xa6;" horiz-adv-x="255" 
d="M143 402h-31v358h31v-358zM143 -138h-31v358h31v-358z" />
    <glyph glyph-name="section" unicode="&#xa7;" horiz-adv-x="570" 
d="M451 260q0 53 -31 84t-97 51l-65 20q-9 2 -43 16q-97 -46 -97 -135q0 -54 30.5 -84.5t97.5 -50.5l65 -20q18 -6 43 -16q97 46 97 135zM450 -9q0 -70 -50 -107.5t-129 -37.5q-98 0 -157 56l21 24q54 -49 137 -49q67 0 105 29.5t38 84.5q0 48 -31.5 75t-87.5 45l-66 21
q-74 24 -110 60.5t-36 97.5q0 106 109 148v4q-74 47 -74 123q0 70 50 107.5t129 37.5q98 0 157 -56l-21 -25q-53 50 -137 50q-67 0 -105 -29.5t-38 -84.5q0 -48 31.5 -75.5t87.5 -44.5l66 -22q74 -23 110.5 -59.5t36.5 -97.5q0 -105 -110 -149v-3q74 -46 74 -123z" />
    <glyph glyph-name="dieresis" unicode="&#xa8;" 
d="M209 636q-30 0 -30 27v8q0 27 30 27q29 0 29 -27v-8q0 -27 -29 -27zM391 636q-29 0 -29 27v8q0 27 29 27q30 0 30 -27v-8q0 -27 -30 -27z" />
    <glyph glyph-name="copyright" unicode="&#xa9;" horiz-adv-x="724" 
d="M362 -12q-143 0 -233.5 99t-90.5 262t90.5 262t233.5 99t233.5 -99t90.5 -262t-90.5 -262t-233.5 -99zM362 16q129 0 210 87.5t81 221.5v48q0 134 -81 221.5t-210 87.5t-210 -87.5t-81 -221.5v-48q0 -134 81 -221.5t210 -87.5zM362 150q-71 0 -112 51.5t-41 145.5
q0 93 41.5 144.5t112.5 51.5q47 0 79.5 -22.5t46.5 -59.5l-26 -12q-27 66 -100 66q-56 0 -88.5 -40t-32.5 -113v-31q0 -75 32 -114t88 -39q76 0 107 68l24 -14q-16 -36 -50 -59t-81 -23z" />
    <glyph glyph-name="ordfeminine" unicode="&#xaa;" horiz-adv-x="364" 
d="M336 370h-44q-28 0 -29 27v22h-2q-30 -56 -112 -56q-52 0 -80.5 24.5t-28.5 65.5q0 96 132 96h90v49q0 87 -93 87q-72 0 -97 -57l-22 14q32 68 120 68q57 0 89.5 -28.5t32.5 -80.5v-205h44v-26zM152 388q47 0 78.5 20.5t31.5 58.5v58h-91q-100 0 -100 -64v-12
q0 -29 21.5 -45t59.5 -16z" />
    <glyph glyph-name="guillemotleft" unicode="&#xab;" horiz-adv-x="482" 
d="M430 124l-13 -24l-197 175v33l197 175l13 -24l-173 -167zM244 124l-13 -24l-197 175v33l197 175l13 -24l-173 -167z" />
    <glyph glyph-name="logicalnot" unicode="&#xac;" 
d="M525 98h-33v192h-429v31h462v-223z" />
    <glyph glyph-name="uni00AD" unicode="&#xad;" horiz-adv-x="396" 
d="M316 287h-236v36h236v-36z" />
    <glyph glyph-name="registered" unicode="&#xae;" horiz-adv-x="468" 
d="M234 298q-85 0 -141.5 58t-56.5 148t56.5 148t141.5 58q86 0 142 -58t56 -148t-56 -148t-142 -58zM234 320q75 0 124 49.5t49 124.5v20q0 75 -49 124.5t-124 49.5t-124 -49.5t-49 -124.5v-20q0 -75 49 -124.5t124 -49.5zM189 485v-88h-22v211h83q63 0 63 -62
q0 -26 -12.5 -41.5t-33.5 -17.5l53 -90h-25l-50 88h-56zM189 504h60q40 0 40 37v11q0 37 -40 37h-60v-85z" />
    <glyph glyph-name="macron" unicode="&#xaf;" 
d="M168 653v30h264v-30h-264z" />
    <glyph glyph-name="degree" unicode="&#xb0;" horiz-adv-x="466" 
d="M233 372q-70 0 -116.5 48.5t-46.5 120.5t46.5 120.5t116.5 48.5t116.5 -48.5t46.5 -120.5t-46.5 -120.5t-116.5 -48.5zM233 402q59 0 95 40t36 99t-36 99t-95 40t-95 -40t-36 -99t36 -99t95 -40z" />
    <glyph glyph-name="plusminus" unicode="&#xb1;" 
d="M317 124h-34v225h-220v31h220v226h34v-226h220v-31h-220v-225zM537 0h-474v31h474v-31z" />
    <glyph glyph-name="twosuperior" unicode="&#xb2;" horiz-adv-x="345" 
d="M303 354v-25h-260v29l137 112q78 66 78 121v9q0 36 -22.5 57.5t-64.5 21.5q-79 0 -106 -74l-26 9q13 40 46.5 65t86.5 25q56 0 87 -30t31 -76q0 -69 -94 -146l-122 -98h229z" />
    <glyph glyph-name="threesuperior" unicode="&#xb3;" horiz-adv-x="347" 
d="M113 533h45q94 0 94 73v5q0 32 -22 50t-63 18q-63 0 -96 -46l-21 16q36 55 118 55q54 0 85 -25.5t31 -69.5q0 -69 -72 -86v-3q79 -13 79 -89q0 -50 -34.5 -79t-94.5 -29q-81 0 -124 58l22 17q37 -50 102 -50q47 0 72 21t25 60v6q0 73 -94 73h-52v25z" />
    <glyph glyph-name="acute" unicode="&#xb4;" 
d="M401 740l-113 -153l-24 13l105 158z" />
    <glyph glyph-name="mu" unicode="&#xb5;" horiz-adv-x="568" 
d="M135 -200h-35v708h35v-320q0 -169 146 -169q64 0 107.5 33.5t43.5 95.5v360h35v-508h-35v78h-3q-15 -39 -53.5 -64.5t-100.5 -25.5q-106 0 -142 82h-3l5 -114v-156z" />
    <glyph glyph-name="paragraph" unicode="&#xb6;" horiz-adv-x="605" 
d="M249 -149v472q-84 0 -141 51.5t-57 135.5t57 136t141 52h262v-30h-68v-817h-33v817h-128v-817h-33z" />
    <glyph glyph-name="periodcentered" unicode="&#xb7;" horiz-adv-x="306" 
d="M153 268q-35 0 -35 33v9q0 33 35 33t35 -33v-9q0 -33 -35 -33z" />
    <glyph glyph-name="cedilla" unicode="&#xb8;" 
d="M310 -203q-61 0 -86 34l19 20q23 -28 67 -28q26 0 41.5 12t15.5 35q0 41 -63 45l-35 2l21 90h25l-18 -77l2 -2q15 3 32 3q30 0 49 -16.5t19 -43.5q0 -32 -24.5 -53t-64.5 -21z" />
    <glyph glyph-name="onesuperior" unicode="&#xb9;" horiz-adv-x="370" 
d="M326 329h-267v25h124v318l-133 -68l-12 21l141 73h34v-344h113v-25z" />
    <glyph glyph-name="ordmasculine" unicode="&#xba;" horiz-adv-x="374" 
d="M187 363q-67 0 -104 46.5t-37 128.5q0 80 37.5 126t103.5 46t103.5 -46t37.5 -126q0 -82 -37 -128.5t-104 -46.5zM187 388q52 0 80.5 36.5t28.5 92.5v40q0 55 -28.5 91.5t-80.5 36.5t-80.5 -36.5t-28.5 -91.5v-40q0 -56 28.5 -92.5t80.5 -36.5z" />
    <glyph glyph-name="guillemotright" unicode="&#xbb;" horiz-adv-x="482" 
d="M250 100l-13 24l173 168l-173 167l13 24l197 -175v-33zM64 100l-13 24l173 168l-173 167l13 24l197 -175v-33z" />
    <glyph glyph-name="onequarter" unicode="&#xbc;" horiz-adv-x="851" 
d="M761 0h-29v85h-207v27l195 257h41v-260h64v-24h-64v-85zM732 109v232h-3l-176 -232h179zM243 0h-32l456 698h33zM326 329h-267v25h124v318l-133 -68l-12 21l141 73h34v-344h113v-25z" />
    <glyph glyph-name="onehalf" unicode="&#xbd;" horiz-adv-x="877" 
d="M835 25v-25h-260v29l137 112q78 66 78 121v9q0 36 -22.5 57.5t-64.5 21.5q-79 0 -106 -74l-26 9q13 40 46.5 65t86.5 25q56 0 87 -30t31 -76q0 -69 -94 -146l-122 -98h229zM243 0h-32l456 698h33zM326 329h-267v25h124v318l-133 -68l-12 21l141 73h34v-344h113v-25z" />
    <glyph glyph-name="threequarters" unicode="&#xbe;" horiz-adv-x="821" 
d="M731 0h-29v85h-207v27l195 257h41v-260h64v-24h-64v-85zM702 109v232h-3l-176 -232h179zM213 0h-32l456 698h33zM113 533h45q94 0 94 73v5q0 32 -22 50t-63 18q-63 0 -96 -46l-21 16q36 55 118 55q54 0 85 -25.5t31 -69.5q0 -69 -72 -86v-3q79 -13 79 -89
q0 -50 -34.5 -79t-94.5 -29q-81 0 -124 58l22 17q37 -50 102 -50q47 0 72 21t25 60v6q0 73 -94 73h-52v25z" />
    <glyph glyph-name="questiondown" unicode="&#xbf;" horiz-adv-x="462" 
d="M225 -202q-87 0 -138 49.5t-51 131.5q0 87 53 139.5t144 62.5v143h36v-170q-91 -2 -143 -46t-52 -115v-23q0 -63 41 -101.5t111 -38.5q133 0 170 132l32 -10q-43 -154 -203 -154zM251 440q-35 0 -35 33v9q0 33 35 33t35 -33v-9q0 -33 -35 -33z" />
    <glyph glyph-name="Agrave" unicode="&#xc0;" horiz-adv-x="610" 
d="M315 764l-113 154l32 17l105 -158zM580 0h-39l-81 227h-311l-81 -227h-38l251 698h48zM450 259l-144 403h-4l-143 -403h291z" />
    <glyph glyph-name="Aacute" unicode="&#xc1;" horiz-adv-x="610" 
d="M405 918l-113 -154l-24 13l105 158zM580 0h-39l-81 227h-311l-81 -227h-38l251 698h48zM450 259l-144 403h-4l-143 -403h291z" />
    <glyph glyph-name="Acircumflex" unicode="&#xc2;" horiz-adv-x="610" 
d="M283 926h42l124 -136l-21 -15l-124 124l-124 -124l-21 15zM580 0h-39l-81 227h-311l-81 -227h-38l251 698h48zM450 259l-144 403h-4l-143 -403h291z" />
    <glyph glyph-name="Atilde" unicode="&#xc3;" horiz-adv-x="610" 
d="M375 802q-30 0 -77 29q-42 25 -67 25q-33 0 -64 -31l-17 18q37 43 83 43q30 0 77 -29q42 -25 67 -25q33 0 64 31l17 -18q-37 -43 -83 -43zM580 0h-39l-81 227h-311l-81 -227h-38l251 698h48zM450 259l-144 403h-4l-143 -403h291z" />
    <glyph glyph-name="Adieresis" unicode="&#xc4;" horiz-adv-x="610" 
d="M213 812q-30 0 -30 27v8q0 27 30 27q29 0 29 -27v-8q0 -27 -29 -27zM395 812q-29 0 -29 27v8q0 27 29 27q30 0 30 -27v-8q0 -27 -30 -27zM580 0h-39l-81 227h-311l-81 -227h-38l251 698h48zM450 259l-144 403h-4l-143 -403h291z" />
    <glyph glyph-name="Aring" unicode="&#xc5;" horiz-adv-x="610" 
d="M304 764q-43 0 -69.5 26.5t-26.5 69.5t26.5 70t69.5 27t69.5 -27t26.5 -70t-26.5 -69.5t-69.5 -26.5zM304 789q31 0 49 17.5t18 47.5v13q0 29 -18 47t-49 18t-49 -18t-18 -47v-13q0 -30 18 -47.5t49 -17.5zM580 0h-39l-81 227h-311l-81 -227h-38l251 698h48zM450 259
l-144 403h-4l-143 -403h291z" />
    <glyph glyph-name="AE" unicode="&#xc6;" horiz-adv-x="872" 
d="M410 0v227h-246l-123 -227h-39l377 698h423v-33h-355v-280h341v-33h-341v-319h355v-33h-392zM410 665h-11l-219 -406h230v406z" />
    <glyph glyph-name="Ccedilla" unicode="&#xc7;" horiz-adv-x="613" 
d="M331 677q-106 0 -165 -77.5t-59 -223.5v-56q0 -146 59 -222.5t165 -76.5q71 0 121.5 36t75.5 101l30 -16q-28 -68 -83 -109t-130 -45l-14 -58l2 -2q15 3 33 3q30 0 48.5 -16.5t18.5 -43.5q0 -32 -24.5 -53t-64.5 -21q-62 0 -85 34l19 20q21 -28 66 -28q26 0 41.5 12
t15.5 35q0 41 -63 45l-35 3l16 70q-121 4 -186.5 95.5t-65.5 264.5q0 177 69 269.5t195 92.5q77 0 134.5 -39t87.5 -106l-31 -17q-26 61 -75.5 95t-115.5 34z" />
    <glyph glyph-name="Egrave" unicode="&#xc8;" horiz-adv-x="566" 
d="M311 764l-113 154l32 17l105 -158zM496 0h-392v698h392v-33h-355v-280h341v-33h-341v-319h355v-33z" />
    <glyph glyph-name="Eacute" unicode="&#xc9;" horiz-adv-x="566" 
d="M401 918l-113 -154l-24 13l105 158zM496 0h-392v698h392v-33h-355v-280h341v-33h-341v-319h355v-33z" />
    <glyph glyph-name="Ecircumflex" unicode="&#xca;" horiz-adv-x="566" 
d="M279 926h42l124 -136l-21 -15l-124 124l-124 -124l-21 15zM496 0h-392v698h392v-33h-355v-280h341v-33h-341v-319h355v-33z" />
    <glyph glyph-name="Edieresis" unicode="&#xcb;" horiz-adv-x="566" 
d="M209 812q-30 0 -30 27v8q0 27 30 27q29 0 29 -27v-8q0 -27 -29 -27zM391 812q-29 0 -29 27v8q0 27 29 27q30 0 30 -27v-8q0 -27 -30 -27zM496 0h-392v698h392v-33h-355v-280h341v-33h-341v-319h355v-33z" />
    <glyph glyph-name="Igrave" unicode="&#xcc;" horiz-adv-x="379" 
d="M200 764l-113 154l32 17l105 -158zM313 0h-247v31h105v636h-105v31h247v-31h-105v-636h105v-31z" />
    <glyph glyph-name="Iacute" unicode="&#xcd;" horiz-adv-x="379" 
d="M290 918l-113 -154l-24 13l105 158zM313 0h-247v31h105v636h-105v31h247v-31h-105v-636h105v-31z" />
    <glyph glyph-name="Icircumflex" unicode="&#xce;" horiz-adv-x="379" 
d="M168 926h42l124 -136l-21 -15l-124 124l-124 -124l-21 15zM313 0h-247v31h105v636h-105v31h247v-31h-105v-636h105v-31z" />
    <glyph glyph-name="Idieresis" unicode="&#xcf;" horiz-adv-x="379" 
d="M98 812q-30 0 -30 27v8q0 27 30 27q29 0 29 -27v-8q0 -27 -29 -27zM280 812q-29 0 -29 27v8q0 27 29 27q30 0 30 -27v-8q0 -27 -30 -27zM313 0h-247v31h105v636h-105v31h247v-31h-105v-636h105v-31z" />
    <glyph glyph-name="Eth" unicode="&#xd0;" horiz-adv-x="664" 
d="M107 0v354h-82v30h82v314h212q137 0 207.5 -88t70.5 -261t-70.5 -261t-207.5 -88h-212zM144 33h175q117 0 177.5 74.5t60.5 205.5v72q0 131 -60.5 205.5t-177.5 74.5h-175v-281h164v-30h-164v-321z" />
    <glyph glyph-name="Ntilde" unicode="&#xd1;" horiz-adv-x="696" 
d="M419 802q-30 0 -77 29q-42 25 -67 25q-33 0 -64 -31l-17 18q37 43 83 43q30 0 77 -29q42 -25 67 -25q33 0 64 31l17 -18q-37 -43 -83 -43zM542 0l-399 650h-3v-650h-36v698h49l400 -650h3v650h36v-698h-50z" />
    <glyph glyph-name="Ograve" unicode="&#xd2;" horiz-adv-x="686" 
d="M354 764l-113 154l32 17l105 -158zM343 -12q-132 0 -204 92t-72 269t72 269t204 92t204 -92t72 -269t-72 -269t-204 -92zM343 21q110 0 173 77.5t63 220.5v60q0 143 -63 220.5t-173 77.5t-173 -77.5t-63 -220.5v-60q0 -143 63 -220.5t173 -77.5z" />
    <glyph glyph-name="Oacute" unicode="&#xd3;" horiz-adv-x="686" 
d="M444 918l-113 -154l-24 13l105 158zM343 -12q-132 0 -204 92t-72 269t72 269t204 92t204 -92t72 -269t-72 -269t-204 -92zM343 21q110 0 173 77.5t63 220.5v60q0 143 -63 220.5t-173 77.5t-173 -77.5t-63 -220.5v-60q0 -143 63 -220.5t173 -77.5z" />
    <glyph glyph-name="Ocircumflex" unicode="&#xd4;" horiz-adv-x="686" 
d="M322 926h42l124 -136l-21 -15l-124 124l-124 -124l-21 15zM343 -12q-132 0 -204 92t-72 269t72 269t204 92t204 -92t72 -269t-72 -269t-204 -92zM343 21q110 0 173 77.5t63 220.5v60q0 143 -63 220.5t-173 77.5t-173 -77.5t-63 -220.5v-60q0 -143 63 -220.5t173 -77.5z
" />
    <glyph glyph-name="Otilde" unicode="&#xd5;" horiz-adv-x="686" 
d="M414 802q-30 0 -77 29q-42 25 -67 25q-33 0 -64 -31l-17 18q37 43 83 43q30 0 77 -29q42 -25 67 -25q33 0 64 31l17 -18q-37 -43 -83 -43zM343 -12q-132 0 -204 92t-72 269t72 269t204 92t204 -92t72 -269t-72 -269t-204 -92zM343 21q110 0 173 77.5t63 220.5v60
q0 143 -63 220.5t-173 77.5t-173 -77.5t-63 -220.5v-60q0 -143 63 -220.5t173 -77.5z" />
    <glyph glyph-name="Odieresis" unicode="&#xd6;" horiz-adv-x="686" 
d="M252 812q-30 0 -30 27v8q0 27 30 27q29 0 29 -27v-8q0 -27 -29 -27zM434 812q-29 0 -29 27v8q0 27 29 27q30 0 30 -27v-8q0 -27 -30 -27zM343 -12q-132 0 -204 92t-72 269t72 269t204 92t204 -92t72 -269t-72 -269t-204 -92zM343 21q110 0 173 77.5t63 220.5v60
q0 143 -63 220.5t-173 77.5t-173 -77.5t-63 -220.5v-60q0 -143 63 -220.5t173 -77.5z" />
    <glyph glyph-name="multiply" unicode="&#xd7;" 
d="M476 106l-176 177l-176 -177l-22 22l176 177l-176 177l22 22l176 -177l176 177l22 -22l-176 -177l176 -177z" />
    <glyph glyph-name="Oslash" unicode="&#xd8;" horiz-adv-x="686" 
d="M343 -12q-115 0 -184 69l-63 -91l-27 17l69 99q-71 93 -71 267q0 177 72 269t204 92q115 0 184 -69l65 93l26 -17l-70 -100q71 -94 71 -268q0 -177 -72 -269t-204 -92zM107 319q0 -129 52 -206l347 498q-61 66 -163 66q-110 0 -173 -77.5t-63 -220.5v-60zM579 379
q0 129 -52 206l-347 -498q61 -66 163 -66q110 0 173 77.5t63 220.5v60z" />
    <glyph glyph-name="Ugrave" unicode="&#xd9;" horiz-adv-x="658" 
d="M339 764l-113 154l32 17l105 -158zM97 698h37v-430q0 -135 43 -191t152 -56t152 56t43 191v430h37v-424q0 -156 -52 -221t-181 -65q-128 0 -179.5 65t-51.5 221v424z" />
    <glyph glyph-name="Uacute" unicode="&#xda;" horiz-adv-x="658" 
d="M429 918l-113 -154l-24 13l105 158zM97 698h37v-430q0 -135 43 -191t152 -56t152 56t43 191v430h37v-424q0 -156 -52 -221t-181 -65q-128 0 -179.5 65t-51.5 221v424z" />
    <glyph glyph-name="Ucircumflex" unicode="&#xdb;" horiz-adv-x="658" 
d="M307 926h42l124 -136l-21 -15l-124 124l-124 -124l-21 15zM97 698h37v-430q0 -135 43 -191t152 -56t152 56t43 191v430h37v-424q0 -156 -52 -221t-181 -65q-128 0 -179.5 65t-51.5 221v424z" />
    <glyph glyph-name="Udieresis" unicode="&#xdc;" horiz-adv-x="658" 
d="M237 812q-30 0 -30 27v8q0 27 30 27q29 0 29 -27v-8q0 -27 -29 -27zM419 812q-29 0 -29 27v8q0 27 29 27q30 0 30 -27v-8q0 -27 -30 -27zM97 698h37v-430q0 -135 43 -191t152 -56t152 56t43 191v430h37v-424q0 -156 -52 -221t-181 -65q-128 0 -179.5 65t-51.5 221v424z
" />
    <glyph glyph-name="Yacute" unicode="&#xdd;" horiz-adv-x="557" 
d="M379 918l-113 -154l-24 13l105 158zM297 0h-37v290l-241 408h42l216 -368h3l217 368h41l-241 -408v-290z" />
    <glyph glyph-name="Thorn" unicode="&#xde;" horiz-adv-x="597" 
d="M141 0h-37v698h37v-153h234q86 0 132.5 -51.5t46.5 -139.5t-46.5 -139.5t-132.5 -51.5h-234v-163zM141 512v-316h234q67 0 103 39t36 97v44q0 58 -36 97t-103 39h-234z" />
    <glyph glyph-name="germandbls" unicode="&#xdf;" horiz-adv-x="644" 
d="M600 131q0 -67 -44.5 -105t-121.5 -38q-124 0 -189 91l27 20q32 -43 70.5 -61.5t92.5 -18.5q63 0 97 28.5t34 80.5q0 47 -23.5 71t-75.5 37l-41 10q-65 16 -97 44t-32 87q0 65 53 98.5t145 34.5v12q0 96 -42.5 147.5t-123.5 51.5t-123.5 -51.5t-42.5 -147.5v-522h-35v477
h-91v31h91v13q0 106 53 168.5t148 62.5t148 -62.5t53 -168.5v-40h-25q-81 0 -127.5 -25t-46.5 -78q0 -44 23 -65t77 -35l41 -10q65 -16 96.5 -46.5t31.5 -90.5z" />
    <glyph glyph-name="agrave" unicode="&#xe0;" horiz-adv-x="522" 
d="M261 587l-113 153l32 18l105 -158zM500 0h-69q-41 0 -43 42v37h-4q-42 -91 -162 -91q-79 0 -122 38t-43 107q0 147 197 147h133v68q0 141 -139 141q-107 0 -148 -90l-25 17q47 104 174 104q84 0 128.5 -43.5t44.5 -124.5v-321h78v-31zM225 19q69 0 115.5 34t46.5 95v104
h-133q-160 0 -160 -104v-28q0 -48 36 -74.5t95 -26.5z" />
    <glyph glyph-name="aacute" unicode="&#xe1;" horiz-adv-x="522" 
d="M351 740l-113 -153l-24 13l105 158zM500 0h-69q-41 0 -43 42v37h-4q-42 -91 -162 -91q-79 0 -122 38t-43 107q0 147 197 147h133v68q0 141 -139 141q-107 0 -148 -90l-25 17q47 104 174 104q84 0 128.5 -43.5t44.5 -124.5v-321h78v-31zM225 19q69 0 115.5 34t46.5 95v104
h-133q-160 0 -160 -104v-28q0 -48 36 -74.5t95 -26.5z" />
    <glyph glyph-name="acircumflex" unicode="&#xe2;" horiz-adv-x="522" 
d="M229 748h42l124 -135l-21 -16l-124 125l-124 -125l-21 16zM500 0h-69q-41 0 -43 42v37h-4q-42 -91 -162 -91q-79 0 -122 38t-43 107q0 147 197 147h133v68q0 141 -139 141q-107 0 -148 -90l-25 17q47 104 174 104q84 0 128.5 -43.5t44.5 -124.5v-321h78v-31zM225 19
q69 0 115.5 34t46.5 95v104h-133q-160 0 -160 -104v-28q0 -48 36 -74.5t95 -26.5z" />
    <glyph glyph-name="atilde" unicode="&#xe3;" horiz-adv-x="522" 
d="M321 624q-32 0 -77 29q-41 26 -67 26q-32 0 -64 -32l-17 19q36 42 83 42q32 0 77 -29q41 -26 67 -26q32 0 64 32l17 -19q-36 -42 -83 -42zM500 0h-69q-41 0 -43 42v37h-4q-42 -91 -162 -91q-79 0 -122 38t-43 107q0 147 197 147h133v68q0 141 -139 141q-107 0 -148 -90
l-25 17q47 104 174 104q84 0 128.5 -43.5t44.5 -124.5v-321h78v-31zM225 19q69 0 115.5 34t46.5 95v104h-133q-160 0 -160 -104v-28q0 -48 36 -74.5t95 -26.5z" />
    <glyph glyph-name="adieresis" unicode="&#xe4;" horiz-adv-x="522" 
d="M159 636q-30 0 -30 27v8q0 27 30 27q29 0 29 -27v-8q0 -27 -29 -27zM341 636q-29 0 -29 27v8q0 27 29 27q30 0 30 -27v-8q0 -27 -30 -27zM500 0h-69q-41 0 -43 42v37h-4q-42 -91 -162 -91q-79 0 -122 38t-43 107q0 147 197 147h133v68q0 141 -139 141q-107 0 -148 -90
l-25 17q47 104 174 104q84 0 128.5 -43.5t44.5 -124.5v-321h78v-31zM225 19q69 0 115.5 34t46.5 95v104h-133q-160 0 -160 -104v-28q0 -48 36 -74.5t95 -26.5z" />
    <glyph glyph-name="aring" unicode="&#xe5;" horiz-adv-x="522" 
d="M250 586q-43 0 -69.5 27t-26.5 70q0 42 26.5 69t69.5 27t69.5 -27t26.5 -69q0 -43 -26.5 -70t-69.5 -27zM250 611q31 0 49 18t18 47v13q0 30 -18 47.5t-49 17.5t-49 -17.5t-18 -47.5v-13q0 -29 18 -47t49 -18zM500 0h-69q-41 0 -43 42v37h-4q-42 -91 -162 -91
q-79 0 -122 38t-43 107q0 147 197 147h133v68q0 141 -139 141q-107 0 -148 -90l-25 17q47 104 174 104q84 0 128.5 -43.5t44.5 -124.5v-321h78v-31zM225 19q69 0 115.5 34t46.5 95v104h-133q-160 0 -160 -104v-28q0 -48 36 -74.5t95 -26.5z" />
    <glyph glyph-name="ae" unicode="&#xe6;" horiz-adv-x="862" 
d="M383 252h-133q-159 0 -159 -104v-28q0 -48 35.5 -74.5t95.5 -26.5q69 0 115 34t46 95v104zM419 280h348v6q0 91 -47 147t-124 56q-83 0 -130 -55.5t-47 -149.5v-4zM600 19q121 0 167 116l27 -15q-24 -62 -73.5 -97t-119.5 -35q-72 0 -122 34.5t-70 94.5h-4
q-11 -58 -62 -93.5t-125 -35.5q-78 0 -121.5 38t-43.5 107q0 147 197 147h133v68q0 141 -138 141q-108 0 -149 -90l-25 17q47 104 174 104q74 0 114.5 -35.5t46.5 -95.5h4q20 60 69 95.5t119 35.5q93 0 150 -69t57 -183v-16h-386v-27q0 -94 48 -150t133 -56z" />
    <glyph glyph-name="ccedilla" unicode="&#xe7;" horiz-adv-x="491" 
d="M272 520q121 0 171 -104l-29 -16q-45 89 -142 89q-84 0 -130.5 -55.5t-46.5 -150.5v-58q0 -95 46.5 -150.5t130.5 -55.5q104 0 153 89l26 -18q-52 -98 -168 -102l-14 -58l2 -2q15 3 33 3q30 0 48.5 -16.5t18.5 -43.5q0 -32 -24.5 -53t-64.5 -21q-62 0 -85 34l19 20
q21 -28 66 -28q26 0 41.5 12t15.5 35q0 41 -63 45l-35 3l16 70q-95 5 -147.5 73.5t-52.5 192.5q0 129 56.5 197.5t158.5 68.5z" />
    <glyph glyph-name="egrave" unicode="&#xe8;" horiz-adv-x="537" 
d="M282 587l-113 153l32 18l105 -158zM275 -12q-102 0 -160 69.5t-58 196.5t56.5 196.5t157.5 69.5q94 0 151.5 -69t57.5 -183v-16h-386v-27q0 -94 48 -150t133 -56q121 0 167 116l27 -15q-23 -62 -73 -97t-121 -35zM271 489q-83 0 -130 -55.5t-47 -149.5v-4h348v6
q0 91 -47 147t-124 56z" />
    <glyph glyph-name="eacute" unicode="&#xe9;" horiz-adv-x="537" 
d="M372 740l-113 -153l-24 13l105 158zM275 -12q-102 0 -160 69.5t-58 196.5t56.5 196.5t157.5 69.5q94 0 151.5 -69t57.5 -183v-16h-386v-27q0 -94 48 -150t133 -56q121 0 167 116l27 -15q-23 -62 -73 -97t-121 -35zM271 489q-83 0 -130 -55.5t-47 -149.5v-4h348v6
q0 91 -47 147t-124 56z" />
    <glyph glyph-name="ecircumflex" unicode="&#xea;" horiz-adv-x="537" 
d="M250 748h42l124 -135l-21 -16l-124 125l-124 -125l-21 16zM275 -12q-102 0 -160 69.5t-58 196.5t56.5 196.5t157.5 69.5q94 0 151.5 -69t57.5 -183v-16h-386v-27q0 -94 48 -150t133 -56q121 0 167 116l27 -15q-23 -62 -73 -97t-121 -35zM271 489q-83 0 -130 -55.5
t-47 -149.5v-4h348v6q0 91 -47 147t-124 56z" />
    <glyph glyph-name="edieresis" unicode="&#xeb;" horiz-adv-x="537" 
d="M180 636q-30 0 -30 27v8q0 27 30 27q29 0 29 -27v-8q0 -27 -29 -27zM362 636q-29 0 -29 27v8q0 27 29 27q30 0 30 -27v-8q0 -27 -30 -27zM275 -12q-102 0 -160 69.5t-58 196.5t56.5 196.5t157.5 69.5q94 0 151.5 -69t57.5 -183v-16h-386v-27q0 -94 48 -150t133 -56
q121 0 167 116l27 -15q-23 -62 -73 -97t-121 -35zM271 489q-83 0 -130 -55.5t-47 -149.5v-4h348v6q0 91 -47 147t-124 56z" />
    <glyph glyph-name="igrave" unicode="&#xec;" horiz-adv-x="235" 
d="M128 587l-113 153l32 18l105 -158zM135 0h-35v508h35v-508z" />
    <glyph glyph-name="iacute" unicode="&#xed;" horiz-adv-x="235" 
d="M218 740l-113 -153l-24 13l105 158zM135 0h-35v508h35v-508z" />
    <glyph glyph-name="icircumflex" unicode="&#xee;" horiz-adv-x="235" 
d="M96 748h42l124 -135l-21 -16l-124 125l-124 -125l-21 16zM135 0h-35v508h35v-508z" />
    <glyph glyph-name="idieresis" unicode="&#xef;" horiz-adv-x="235" 
d="M26 636q-30 0 -30 27v8q0 27 30 27q29 0 29 -27v-8q0 -27 -29 -27zM208 636q-29 0 -29 27v8q0 27 29 27q30 0 30 -27v-8q0 -27 -30 -27zM135 0h-35v508h35v-508z" />
    <glyph glyph-name="eth" unicode="&#xf0;" horiz-adv-x="548" 
d="M392 752l15 -20l-102 -74q181 -167 181 -405q0 -125 -58.5 -195t-156.5 -70q-97 0 -155.5 70t-58.5 190q0 117 58.5 185t155.5 68q106 0 154 -82l3 2q-51 131 -148 218l-99 -70l-15 20l94 67q-46 39 -121 84h57q55 -35 90 -65zM271 19q79 0 128 54t49 144v55
q0 90 -49 144t-128 54q-78 0 -127 -53.5t-49 -144.5v-55q0 -91 49 -144.5t127 -53.5z" />
    <glyph glyph-name="ntilde" unicode="&#xf1;" horiz-adv-x="559" 
d="M356 624q-32 0 -77 29q-41 26 -67 26q-32 0 -64 -32l-17 19q36 42 83 42q32 0 77 -29q41 -26 67 -26q32 0 64 32l17 -19q-36 -42 -83 -42zM135 0h-35v508h35v-78h3q37 90 156 90q84 0 128.5 -50t44.5 -144v-326h-35v320q0 169 -146 169q-63 0 -107 -33.5t-44 -94.5v-361z
" />
    <glyph glyph-name="ograve" unicode="&#xf2;" horiz-adv-x="544" 
d="M283 587l-113 153l32 18l105 -158zM272 -12q-101 0 -158 69t-57 197t57 197t158 69t158 -69t57 -197t-57 -197t-158 -69zM272 19q84 0 130.5 55.5t46.5 152.5v54q0 98 -46.5 153t-130.5 55t-130.5 -55t-46.5 -153v-54q0 -97 46.5 -152.5t130.5 -55.5z" />
    <glyph glyph-name="oacute" unicode="&#xf3;" horiz-adv-x="544" 
d="M373 740l-113 -153l-24 13l105 158zM272 -12q-101 0 -158 69t-57 197t57 197t158 69t158 -69t57 -197t-57 -197t-158 -69zM272 19q84 0 130.5 55.5t46.5 152.5v54q0 98 -46.5 153t-130.5 55t-130.5 -55t-46.5 -153v-54q0 -97 46.5 -152.5t130.5 -55.5z" />
    <glyph glyph-name="ocircumflex" unicode="&#xf4;" horiz-adv-x="544" 
d="M251 748h42l124 -135l-21 -16l-124 125l-124 -125l-21 16zM272 -12q-101 0 -158 69t-57 197t57 197t158 69t158 -69t57 -197t-57 -197t-158 -69zM272 19q84 0 130.5 55.5t46.5 152.5v54q0 98 -46.5 153t-130.5 55t-130.5 -55t-46.5 -153v-54q0 -97 46.5 -152.5
t130.5 -55.5z" />
    <glyph glyph-name="otilde" unicode="&#xf5;" horiz-adv-x="544" 
d="M343 624q-32 0 -77 29q-41 26 -67 26q-32 0 -64 -32l-17 19q36 42 83 42q32 0 77 -29q41 -26 67 -26q32 0 64 32l17 -19q-36 -42 -83 -42zM272 -12q-101 0 -158 69t-57 197t57 197t158 69t158 -69t57 -197t-57 -197t-158 -69zM272 19q84 0 130.5 55.5t46.5 152.5v54
q0 98 -46.5 153t-130.5 55t-130.5 -55t-46.5 -153v-54q0 -97 46.5 -152.5t130.5 -55.5z" />
    <glyph glyph-name="odieresis" unicode="&#xf6;" horiz-adv-x="544" 
d="M181 636q-30 0 -30 27v8q0 27 30 27q29 0 29 -27v-8q0 -27 -29 -27zM363 636q-29 0 -29 27v8q0 27 29 27q30 0 30 -27v-8q0 -27 -30 -27zM272 -12q-101 0 -158 69t-57 197t57 197t158 69t158 -69t57 -197t-57 -197t-158 -69zM272 19q84 0 130.5 55.5t46.5 152.5v54
q0 98 -46.5 153t-130.5 55t-130.5 -55t-46.5 -153v-54q0 -97 46.5 -152.5t130.5 -55.5z" />
    <glyph glyph-name="divide" unicode="&#xf7;" 
d="M537 290h-474v31h474v-31zM300 74q-41 0 -41 32v11q0 32 41 32t41 -32v-11q0 -32 -41 -32zM300 461q-41 0 -41 32v12q0 32 41 32t41 -32v-12q0 -32 -41 -32z" />
    <glyph glyph-name="oslash" unicode="&#xf8;" horiz-adv-x="544" 
d="M57 -29l-21 16l68 84q-47 69 -47 183q0 128 57 197t158 69q93 0 149 -58l67 83l21 -16l-71 -88q49 -67 49 -187q0 -128 -57 -197t-158 -69q-97 0 -151 62zM272 19q84 0 130.5 55.5t46.5 152.5v54q0 81 -33 134l-275 -340q47 -56 131 -56zM95 227q0 -76 30 -130l275 339
q-45 53 -128 53q-84 0 -130.5 -55t-46.5 -153v-54z" />
    <glyph glyph-name="ugrave" unicode="&#xf9;" horiz-adv-x="559" 
d="M286 587l-113 153l32 18l105 -158zM424 0v78h-4q-15 -39 -53.5 -64.5t-101.5 -25.5q-84 0 -129 50t-45 144v326h35v-320q0 -169 147 -169q63 0 107 33.5t44 95.5v360h35v-508h-35z" />
    <glyph glyph-name="uacute" unicode="&#xfa;" horiz-adv-x="559" 
d="M376 740l-113 -153l-24 13l105 158zM424 0v78h-4q-15 -39 -53.5 -64.5t-101.5 -25.5q-84 0 -129 50t-45 144v326h35v-320q0 -169 147 -169q63 0 107 33.5t44 95.5v360h35v-508h-35z" />
    <glyph glyph-name="ucircumflex" unicode="&#xfb;" horiz-adv-x="559" 
d="M254 748h42l124 -135l-21 -16l-124 125l-124 -125l-21 16zM424 0v78h-4q-15 -39 -53.5 -64.5t-101.5 -25.5q-84 0 -129 50t-45 144v326h35v-320q0 -169 147 -169q63 0 107 33.5t44 95.5v360h35v-508h-35z" />
    <glyph glyph-name="udieresis" unicode="&#xfc;" horiz-adv-x="559" 
d="M184 636q-30 0 -30 27v8q0 27 30 27q29 0 29 -27v-8q0 -27 -29 -27zM366 636q-29 0 -29 27v8q0 27 29 27q30 0 30 -27v-8q0 -27 -30 -27zM424 0v78h-4q-15 -39 -53.5 -64.5t-101.5 -25.5q-84 0 -129 50t-45 144v326h35v-320q0 -169 147 -169q63 0 107 33.5t44 95.5v360
h35v-508h-35z" />
    <glyph glyph-name="yacute" unicode="&#xfd;" horiz-adv-x="462" 
d="M333 740l-113 -153l-24 13l105 158zM233 38l170 470h35l-248 -675q-8 -18 -19 -25.5t-33 -7.5h-74v31h90l60 159l-191 518h37l170 -470h3z" />
    <glyph glyph-name="thorn" unicode="&#xfe;" horiz-adv-x="567" 
d="M100 -200v940h35v-311h3q18 40 59.5 65.5t101.5 25.5q100 0 155.5 -68.5t55.5 -197.5t-55.5 -197.5t-155.5 -68.5q-60 0 -101 25.5t-60 65.5h-3v-279h-35zM294 20q84 0 131 55t47 150v58q0 95 -47 150.5t-131 55.5q-65 0 -112 -36t-47 -91v-214q0 -56 46.5 -92t112.5 -36
z" />
    <glyph glyph-name="ydieresis" unicode="&#xff;" horiz-adv-x="462" 
d="M141 636q-30 0 -30 27v8q0 27 30 27q29 0 29 -27v-8q0 -27 -29 -27zM323 636q-29 0 -29 27v8q0 27 29 27q30 0 30 -27v-8q0 -27 -30 -27zM233 38l170 470h35l-248 -675q-8 -18 -19 -25.5t-33 -7.5h-74v31h90l60 159l-191 518h37l170 -470h3z" />
    <glyph glyph-name="Amacron" unicode="&#x100;" horiz-adv-x="610" 
d="M172 831v30h264v-30h-264zM580 0h-39l-81 227h-311l-81 -227h-38l251 698h48zM450 259l-144 403h-4l-143 -403h291z" />
    <glyph glyph-name="amacron" unicode="&#x101;" horiz-adv-x="522" 
d="M118 653v30h264v-30h-264zM500 0h-69q-41 0 -43 42v37h-4q-42 -91 -162 -91q-79 0 -122 38t-43 107q0 147 197 147h133v68q0 141 -139 141q-107 0 -148 -90l-25 17q47 104 174 104q84 0 128.5 -43.5t44.5 -124.5v-321h78v-31zM225 19q69 0 115.5 34t46.5 95v104h-133
q-160 0 -160 -104v-28q0 -48 36 -74.5t95 -26.5z" />
    <glyph glyph-name="Abreve" unicode="&#x102;" horiz-adv-x="610" 
d="M304 781q-28 0 -48.5 8t-37 26.5t-26.5 36t-25 48.5l23 11l17 -29q24 -42 43.5 -56.5t53.5 -14.5t53.5 14.5t43.5 56.5l17 29l23 -11q-15 -31 -25 -48.5t-26.5 -36t-37 -26.5t-48.5 -8zM580 0h-39l-81 227h-311l-81 -227h-38l251 698h48zM450 259l-144 403h-4l-143 -403
h291z" />
    <glyph glyph-name="abreve" unicode="&#x103;" horiz-adv-x="522" 
d="M250 604q-28 0 -48.5 8t-37 26.5t-26.5 36t-25 48.5l23 10l17 -28q24 -42 43.5 -57t53.5 -15t53.5 15t43.5 57l17 28l23 -10q-15 -31 -25 -48.5t-26.5 -36t-37 -26.5t-48.5 -8zM500 0h-69q-41 0 -43 42v37h-4q-42 -91 -162 -91q-79 0 -122 38t-43 107q0 147 197 147h133
v68q0 141 -139 141q-107 0 -148 -90l-25 17q47 104 174 104q84 0 128.5 -43.5t44.5 -124.5v-321h78v-31zM225 19q69 0 115.5 34t46.5 95v104h-133q-160 0 -160 -104v-28q0 -48 36 -74.5t95 -26.5z" />
    <glyph glyph-name="Aogonek" unicode="&#x104;" horiz-adv-x="610" 
d="M30 0l251 698h48l251 -698q-59 -43 -83 -71t-24 -59q0 -47 53 -47q38 0 57 25l20 -18q-24 -33 -78 -33q-37 0 -60 18.5t-23 51.5q0 68 106 132v1h-7l-80 227h-312l-81 -227h-38zM450 259l-144 403h-4l-143 -403h291z" />
    <glyph glyph-name="aogonek" unicode="&#x105;" horiz-adv-x="522" 
d="M516 -170q-24 -33 -78 -33q-37 0 -60 18t-23 51q0 65 111 131l-1 3h-38q-37 3 -39 42v37h-4q-42 -91 -162 -91q-79 0 -122 38t-43 107q0 147 197 147h133v68q0 141 -139 141q-107 0 -148 -90l-25 17q47 104 174 104q84 0 128.5 -43.5t44.5 -124.5v-321h78v-31
q-65 -46 -89.5 -72.5t-24.5 -57.5q0 -47 53 -47q36 0 57 25zM225 19q69 0 115.5 34t46.5 95v104h-133q-160 0 -160 -104v-28q0 -48 36 -74.5t95 -26.5z" />
    <glyph glyph-name="Cacute" unicode="&#x106;" horiz-adv-x="613" 
d="M432 918l-113 -154l-24 13l105 158zM331 -12q-127 0 -195.5 91.5t-68.5 268.5t69 269.5t195 92.5q77 0 134.5 -39t87.5 -106l-31 -17q-26 61 -75.5 95t-115.5 34q-106 0 -165 -77.5t-59 -223.5v-56q0 -146 59 -222.5t165 -76.5q71 0 121.5 36t75.5 101l30 -16
q-29 -72 -87.5 -113t-139.5 -41z" />
    <glyph glyph-name="cacute" unicode="&#x107;" horiz-adv-x="491" 
d="M372 740l-113 -153l-24 13l105 158zM272 -12q-102 0 -158.5 69t-56.5 197q0 129 56.5 197.5t158.5 68.5q121 0 171 -105l-29 -15q-45 89 -142 89q-84 0 -130.5 -55.5t-46.5 -150.5v-58q0 -95 46.5 -150.5t130.5 -55.5q104 0 153 89l26 -18q-55 -102 -179 -102z" />
    <glyph glyph-name="Ccircumflex" unicode="&#x108;" horiz-adv-x="613" 
d="M310 926h42l124 -136l-21 -15l-124 124l-124 -124l-21 15zM331 -12q-127 0 -195.5 91.5t-68.5 268.5t69 269.5t195 92.5q77 0 134.5 -39t87.5 -106l-31 -17q-26 61 -75.5 95t-115.5 34q-106 0 -165 -77.5t-59 -223.5v-56q0 -146 59 -222.5t165 -76.5q71 0 121.5 36
t75.5 101l30 -16q-29 -72 -87.5 -113t-139.5 -41z" />
    <glyph glyph-name="ccircumflex" unicode="&#x109;" horiz-adv-x="491" 
d="M250 748h42l124 -135l-21 -16l-124 125l-124 -125l-21 16zM272 -12q-102 0 -158.5 69t-56.5 197q0 129 56.5 197.5t158.5 68.5q121 0 171 -105l-29 -15q-45 89 -142 89q-84 0 -130.5 -55.5t-46.5 -150.5v-58q0 -95 46.5 -150.5t130.5 -55.5q104 0 153 89l26 -18
q-55 -102 -179 -102z" />
    <glyph glyph-name="Cdotaccent" unicode="&#x10a;" horiz-adv-x="613" 
d="M331 812q-31 0 -31 29v8q0 29 31 29t31 -29v-8q0 -29 -31 -29zM331 -12q-127 0 -195.5 91.5t-68.5 268.5t69 269.5t195 92.5q77 0 134.5 -39t87.5 -106l-31 -17q-26 61 -75.5 95t-115.5 34q-106 0 -165 -77.5t-59 -223.5v-56q0 -146 59 -222.5t165 -76.5q71 0 121.5 36
t75.5 101l30 -16q-29 -72 -87.5 -113t-139.5 -41z" />
    <glyph glyph-name="cdotaccent" unicode="&#x10b;" horiz-adv-x="491" 
d="M271 636q-30 0 -30 27v8q0 27 30 27t30 -27v-8q0 -27 -30 -27zM272 -12q-102 0 -158.5 69t-56.5 197q0 129 56.5 197.5t158.5 68.5q121 0 171 -105l-29 -15q-45 89 -142 89q-84 0 -130.5 -55.5t-46.5 -150.5v-58q0 -95 46.5 -150.5t130.5 -55.5q104 0 153 89l26 -18
q-55 -102 -179 -102z" />
    <glyph glyph-name="Ccaron" unicode="&#x10c;" horiz-adv-x="613" 
d="M352 780h-42l-124 135l21 16l124 -125l124 125l21 -16zM331 -12q-127 0 -195.5 91.5t-68.5 268.5t69 269.5t195 92.5q77 0 134.5 -39t87.5 -106l-31 -17q-26 61 -75.5 95t-115.5 34q-106 0 -165 -77.5t-59 -223.5v-56q0 -146 59 -222.5t165 -76.5q71 0 121.5 36t75.5 101
l30 -16q-29 -72 -87.5 -113t-139.5 -41z" />
    <glyph glyph-name="ccaron" unicode="&#x10d;" horiz-adv-x="491" 
d="M292 602h-42l-124 135l21 16l124 -124l124 124l21 -16zM272 -12q-102 0 -158.5 69t-56.5 197q0 129 56.5 197.5t158.5 68.5q121 0 171 -105l-29 -15q-45 89 -142 89q-84 0 -130.5 -55.5t-46.5 -150.5v-58q0 -95 46.5 -150.5t130.5 -55.5q104 0 153 89l26 -18
q-55 -102 -179 -102z" />
    <glyph glyph-name="Dcaron" unicode="&#x10e;" horiz-adv-x="661" 
d="M322 780h-42l-124 135l21 16l124 -125l124 125l21 -16zM104 0v698h212q137 0 207.5 -88t70.5 -261t-70.5 -261t-207.5 -88h-212zM141 33h175q117 0 177.5 74.5t60.5 205.5v72q0 131 -60.5 205.5t-177.5 74.5h-175v-632z" />
    <glyph glyph-name="dcaron" unicode="&#x10f;" horiz-adv-x="567" 
d="M604 740l-31 -178h-25l15 178h41zM432 0v79h-3q-19 -40 -60 -65.5t-101 -25.5q-100 0 -155.5 68.5t-55.5 197.5t55.5 197.5t155.5 68.5q60 0 101.5 -25.5t59.5 -65.5h3v311h35v-740h-35zM273 20q66 0 112.5 36t46.5 92v214q0 55 -47 91t-112 36q-84 0 -131 -55.5
t-47 -150.5v-58q0 -95 47 -150t131 -55z" />
    <glyph glyph-name="Dcroat" unicode="&#x110;" horiz-adv-x="664" 
d="M107 0v354h-82v30h82v314h212q137 0 207.5 -88t70.5 -261t-70.5 -261t-207.5 -88h-212zM144 33h175q117 0 177.5 74.5t60.5 205.5v72q0 131 -60.5 205.5t-177.5 74.5h-175v-281h164v-30h-164v-321z" />
    <glyph glyph-name="dcroat" unicode="&#x111;" horiz-adv-x="570" 
d="M432 0v79h-3q-19 -40 -60 -65.5t-101 -25.5q-100 0 -155.5 68.5t-55.5 197.5t55.5 197.5t155.5 68.5q60 0 101.5 -25.5t59.5 -65.5h3v194h-160v29h160v88h35v-88h66v-29h-66v-623h-35zM273 20q66 0 112.5 36t46.5 92v214q0 55 -47 91t-112 36q-84 0 -131 -55.5
t-47 -150.5v-58q0 -95 47 -150t131 -55z" />
    <glyph glyph-name="Emacron" unicode="&#x112;" horiz-adv-x="566" 
d="M168 831v30h264v-30h-264zM496 0h-392v698h392v-33h-355v-280h341v-33h-341v-319h355v-33z" />
    <glyph glyph-name="emacron" unicode="&#x113;" horiz-adv-x="537" 
d="M139 653v30h264v-30h-264zM275 -12q-102 0 -160 69.5t-58 196.5t56.5 196.5t157.5 69.5q94 0 151.5 -69t57.5 -183v-16h-386v-27q0 -94 48 -150t133 -56q121 0 167 116l27 -15q-23 -62 -73 -97t-121 -35zM271 489q-83 0 -130 -55.5t-47 -149.5v-4h348v6q0 91 -47 147
t-124 56z" />
    <glyph glyph-name="Ebreve" unicode="&#x114;" horiz-adv-x="566" 
d="M300 781q-28 0 -48.5 8t-37 26.5t-26.5 36t-25 48.5l23 11l17 -29q24 -42 43.5 -56.5t53.5 -14.5t53.5 14.5t43.5 56.5l17 29l23 -11q-15 -31 -25 -48.5t-26.5 -36t-37 -26.5t-48.5 -8zM496 0h-392v698h392v-33h-355v-280h341v-33h-341v-319h355v-33z" />
    <glyph glyph-name="ebreve" unicode="&#x115;" horiz-adv-x="537" 
d="M271 604q-28 0 -48.5 8t-37 26.5t-26.5 36t-25 48.5l23 10l17 -28q24 -42 43.5 -57t53.5 -15t53.5 15t43.5 57l17 28l23 -10q-15 -31 -25 -48.5t-26.5 -36t-37 -26.5t-48.5 -8zM275 -12q-102 0 -160 69.5t-58 196.5t56.5 196.5t157.5 69.5q94 0 151.5 -69t57.5 -183v-16
h-386v-27q0 -94 48 -150t133 -56q121 0 167 116l27 -15q-23 -62 -73 -97t-121 -35zM271 489q-83 0 -130 -55.5t-47 -149.5v-4h348v6q0 91 -47 147t-124 56z" />
    <glyph glyph-name="Edotaccent" unicode="&#x116;" horiz-adv-x="566" 
d="M300 812q-31 0 -31 29v8q0 29 31 29t31 -29v-8q0 -29 -31 -29zM496 0h-392v698h392v-33h-355v-280h341v-33h-341v-319h355v-33z" />
    <glyph glyph-name="edotaccent" unicode="&#x117;" horiz-adv-x="537" 
d="M271 636q-30 0 -30 27v8q0 27 30 27t30 -27v-8q0 -27 -30 -27zM275 -12q-102 0 -160 69.5t-58 196.5t56.5 196.5t157.5 69.5q94 0 151.5 -69t57.5 -183v-16h-386v-27q0 -94 48 -150t133 -56q121 0 167 116l27 -15q-23 -62 -73 -97t-121 -35zM271 489q-83 0 -130 -55.5
t-47 -149.5v-4h348v6q0 91 -47 147t-124 56z" />
    <glyph glyph-name="Eogonek" unicode="&#x118;" horiz-adv-x="566" 
d="M104 0v698h392v-33h-355v-280h341v-33h-341v-319h355v-33q-65 -46 -89.5 -72.5t-24.5 -57.5q0 -47 52 -47q37 0 58 25l20 -18q-24 -33 -78 -33q-37 0 -60 18t-23 51q0 66 109 131l-1 3h-355z" />
    <glyph glyph-name="eogonek" unicode="&#x119;" horiz-adv-x="537" 
d="M323 -203q-37 0 -59.5 18t-22.5 53q0 69 93 126l-1 3q-25 -9 -59 -9q-102 0 -159.5 69t-57.5 197q0 127 56.5 196.5t157.5 69.5q94 0 151.5 -69t57.5 -183v-16h-386v-27q0 -94 48 -150t133 -56q121 0 167 116l27 -15q-23 -62 -75 -97q-61 -42 -91.5 -77t-30.5 -74
q0 -49 52 -49q38 0 57 25l20 -18q-23 -33 -78 -33zM94 280h348v6q0 91 -47 147t-124 56q-83 0 -130 -55.5t-47 -149.5v-4z" />
    <glyph glyph-name="Ecaron" unicode="&#x11a;" horiz-adv-x="566" 
d="M321 780h-42l-124 135l21 16l124 -125l124 125l21 -16zM496 0h-392v698h392v-33h-355v-280h341v-33h-341v-319h355v-33z" />
    <glyph glyph-name="ecaron" unicode="&#x11b;" horiz-adv-x="537" 
d="M292 602h-42l-124 135l21 16l124 -124l124 124l21 -16zM275 -12q-102 0 -160 69.5t-58 196.5t56.5 196.5t157.5 69.5q94 0 151.5 -69t57.5 -183v-16h-386v-27q0 -94 48 -150t133 -56q121 0 167 116l27 -15q-23 -62 -73 -97t-121 -35zM271 489q-83 0 -130 -55.5
t-47 -149.5v-4h348v6q0 91 -47 147t-124 56z" />
    <glyph glyph-name="Gcircumflex" unicode="&#x11c;" horiz-adv-x="673" 
d="M323 926h42l124 -136l-21 -15l-124 124l-124 -124l-21 15zM560 0v111h-3q-53 -123 -215 -123q-131 0 -203 92t-72 269t72 269t205 92q82 0 143 -39t91 -106l-30 -17q-26 61 -80 95t-124 34q-111 0 -174 -77.5t-63 -220.5v-59q0 -144 63 -221.5t175 -77.5q92 0 153 48.5
t61 138.5v97h-171v33h207v-338h-35z" />
    <glyph glyph-name="gcircumflex" unicode="&#x11d;" horiz-adv-x="528" 
d="M243 748h42l124 -135l-21 -16l-124 125l-124 -125l-21 16zM506 -63q0 -149 -242 -149q-216 0 -216 129q0 85 95 116v4q-51 17 -51 69q0 63 86 87v3q-93 42 -93 153q0 78 48.5 124.5t129.5 46.5q41 0 74 -12h165v-29h-119q60 -52 60 -130q0 -77 -49.5 -124t-129.5 -47
q-22 0 -55 7q-85 -24 -85 -74q0 -52 85 -52h129q168 0 168 -122zM264 209q65 0 102.5 34t37.5 88v36q0 55 -37.5 88.5t-102.5 33.5q-66 0 -103 -33.5t-37 -88.5v-36q0 -54 38 -88t102 -34zM471 -65q0 45 -31 68t-104 23h-159q-94 -25 -94 -105q0 -46 40.5 -74t112.5 -28h55
q84 0 132 29t48 87z" />
    <glyph glyph-name="Gbreve" unicode="&#x11e;" horiz-adv-x="673" 
d="M344 781q-28 0 -48.5 8t-37 26.5t-26.5 36t-25 48.5l23 11l17 -29q24 -42 43.5 -56.5t53.5 -14.5t53.5 14.5t43.5 56.5l17 29l23 -11q-15 -31 -25 -48.5t-26.5 -36t-37 -26.5t-48.5 -8zM560 0v111h-3q-53 -123 -215 -123q-131 0 -203 92t-72 269t72 269t205 92
q82 0 143 -39t91 -106l-30 -17q-26 61 -80 95t-124 34q-111 0 -174 -77.5t-63 -220.5v-59q0 -144 63 -221.5t175 -77.5q92 0 153 48.5t61 138.5v97h-171v33h207v-338h-35z" />
    <glyph glyph-name="gbreve" unicode="&#x11f;" horiz-adv-x="528" 
d="M264 604q-28 0 -48.5 8t-37 26.5t-26.5 36t-25 48.5l23 10l17 -28q24 -42 43.5 -57t53.5 -15t53.5 15t43.5 57l17 28l23 -10q-15 -31 -25 -48.5t-26.5 -36t-37 -26.5t-48.5 -8zM506 -63q0 -149 -242 -149q-216 0 -216 129q0 85 95 116v4q-51 17 -51 69q0 63 86 87v3
q-93 42 -93 153q0 78 48.5 124.5t129.5 46.5q41 0 74 -12h165v-29h-119q60 -52 60 -130q0 -77 -49.5 -124t-129.5 -47q-22 0 -55 7q-85 -24 -85 -74q0 -52 85 -52h129q168 0 168 -122zM264 209q65 0 102.5 34t37.5 88v36q0 55 -37.5 88.5t-102.5 33.5q-66 0 -103 -33.5
t-37 -88.5v-36q0 -54 38 -88t102 -34zM471 -65q0 45 -31 68t-104 23h-159q-94 -25 -94 -105q0 -46 40.5 -74t112.5 -28h55q84 0 132 29t48 87z" />
    <glyph glyph-name="Gdotaccent" unicode="&#x120;" horiz-adv-x="673" 
d="M344 812q-31 0 -31 29v8q0 29 31 29t31 -29v-8q0 -29 -31 -29zM560 0v111h-3q-53 -123 -215 -123q-131 0 -203 92t-72 269t72 269t205 92q82 0 143 -39t91 -106l-30 -17q-26 61 -80 95t-124 34q-111 0 -174 -77.5t-63 -220.5v-59q0 -144 63 -221.5t175 -77.5
q92 0 153 48.5t61 138.5v97h-171v33h207v-338h-35z" />
    <glyph glyph-name="gdotaccent" unicode="&#x121;" horiz-adv-x="528" 
d="M264 636q-30 0 -30 27v8q0 27 30 27t30 -27v-8q0 -27 -30 -27zM506 -63q0 -149 -242 -149q-216 0 -216 129q0 85 95 116v4q-51 17 -51 69q0 63 86 87v3q-93 42 -93 153q0 78 48.5 124.5t129.5 46.5q66 0 108 -30v40q0 37 35 37h97v-31h-108v-64q48 -48 48 -123
q0 -77 -49.5 -124t-129.5 -47q-22 0 -55 7q-85 -24 -85 -74q0 -52 85 -52h129q168 0 168 -122zM471 -65q0 45 -31 68t-104 23h-159q-94 -25 -94 -105q0 -46 40.5 -74t112.5 -28h55q84 0 132 29t48 87zM264 209q65 0 102.5 33.5t37.5 88.5v36q0 55 -37.5 88.5t-102.5 33.5
q-66 0 -103 -33.5t-37 -88.5v-36q0 -55 38 -88.5t102 -33.5z" />
    <glyph glyph-name="Gcommaaccent" unicode="&#x122;" horiz-adv-x="673" 
d="M343 -66q29 0 29 -28v-11q0 -28 -14 -60.5t-35 -54.5h-27q38 42 46 92q-30 1 -30 26v8q0 28 31 28zM560 0v111h-3q-53 -123 -215 -123q-131 0 -203 92t-72 269t72 269t205 92q82 0 143 -39t91 -106l-30 -17q-26 61 -80 95t-124 34q-111 0 -174 -77.5t-63 -220.5v-59
q0 -144 63 -221.5t175 -77.5q92 0 153 48.5t61 138.5v97h-171v33h207v-338h-35z" />
    <glyph glyph-name="gcommaaccent" unicode="&#x123;" horiz-adv-x="528" 
d="M263 598q-28 0 -28 28v11q0 28 14 60.5t34 54.5h28q-36 -38 -47 -92q30 -1 30 -26v-8q0 -28 -31 -28zM506 -63q0 -149 -242 -149q-216 0 -216 129q0 85 95 116v4q-51 17 -51 69q0 63 86 87v3q-93 42 -93 153q0 78 48.5 124.5t129.5 46.5q66 0 108 -30v40q0 37 35 37h97
v-31h-108v-64q48 -48 48 -123q0 -77 -49.5 -124t-129.5 -47q-22 0 -55 7q-85 -24 -85 -74q0 -52 85 -52h129q168 0 168 -122zM471 -65q0 45 -31 68t-104 23h-159q-94 -25 -94 -105q0 -46 40.5 -74t112.5 -28h55q84 0 132 29t48 87zM264 209q65 0 102.5 33.5t37.5 88.5v36
q0 55 -37.5 88.5t-102.5 33.5q-66 0 -103 -33.5t-37 -88.5v-36q0 -55 38 -88.5t102 -33.5z" />
    <glyph glyph-name="Hcircumflex" unicode="&#x124;" horiz-adv-x="695" 
d="M327 926h42l124 -136l-21 -15l-124 124l-124 -124l-21 15zM554 0v352h-413v-352h-37v698h37v-313h413v313h37v-698h-37z" />
    <glyph glyph-name="hcircumflex" unicode="&#x125;" horiz-adv-x="559" 
d="M97 906h42l124 -135l-21 -16l-124 125l-124 -125l-21 16zM100 0v740h35v-310h3q37 90 156 90q84 0 128.5 -50t44.5 -144v-326h-35v320q0 169 -146 169q-63 0 -107 -33.5t-44 -94.5v-361h-35z" />
    <glyph glyph-name="Hbar" unicode="&#x126;" horiz-adv-x="701" 
d="M557 0v352h-413v-352h-37v532h-79v30h79v136h37v-136h413v136h37v-136h79v-30h-79v-532h-37zM144 385h413v147h-413v-147z" />
    <glyph glyph-name="hbar" unicode="&#x127;" horiz-adv-x="562" 
d="M138 0h-35v623h-66v29h66v88h35v-88h159v-29h-159v-193h3q35 90 155 90q84 0 129 -50t45 -144v-326h-35v320q0 169 -146 169q-63 0 -107 -33.5t-44 -94.5v-361z" />
    <glyph glyph-name="Itilde" unicode="&#x128;" horiz-adv-x="379" 
d="M260 802q-30 0 -77 29q-42 25 -67 25q-33 0 -64 -31l-17 18q37 43 83 43q30 0 77 -29q42 -25 67 -25q33 0 64 31l17 -18q-37 -43 -83 -43zM313 0h-247v31h105v636h-105v31h247v-31h-105v-636h105v-31z" />
    <glyph glyph-name="itilde" unicode="&#x129;" horiz-adv-x="235" 
d="M188 624q-32 0 -77 29q-41 26 -67 26q-32 0 -64 -32l-17 19q36 42 83 42q32 0 77 -29q41 -26 67 -26q32 0 64 32l17 -19q-36 -42 -83 -42zM135 0h-35v508h35v-508z" />
    <glyph glyph-name="Imacron" unicode="&#x12a;" horiz-adv-x="379" 
d="M57 831v30h264v-30h-264zM313 0h-247v31h105v636h-105v31h247v-31h-105v-636h105v-31z" />
    <glyph glyph-name="imacron" unicode="&#x12b;" horiz-adv-x="235" 
d="M-15 653v30h264v-30h-264zM135 0h-35v508h35v-508z" />
    <glyph glyph-name="Ibreve" unicode="&#x12c;" horiz-adv-x="379" 
d="M189 781q-28 0 -48.5 8t-37 26.5t-26.5 36t-25 48.5l23 11l17 -29q24 -42 43.5 -56.5t53.5 -14.5t53.5 14.5t43.5 56.5l17 29l23 -11q-15 -31 -25 -48.5t-26.5 -36t-37 -26.5t-48.5 -8zM313 0h-247v31h105v636h-105v31h247v-31h-105v-636h105v-31z" />
    <glyph glyph-name="ibreve" unicode="&#x12d;" horiz-adv-x="235" 
d="M117 604q-28 0 -48.5 8t-37 26.5t-26.5 36t-25 48.5l23 10l17 -28q24 -42 43.5 -57t53.5 -15t53.5 15t43.5 57l17 28l23 -10q-15 -31 -25 -48.5t-26.5 -36t-37 -26.5t-48.5 -8zM135 0h-35v508h35v-508z" />
    <glyph glyph-name="Iogonek" unicode="&#x12e;" horiz-adv-x="379" 
d="M66 0v31h105v636h-105v31h247v-31h-105v-636h105v-31q-65 -45 -89.5 -72t-24.5 -58q0 -47 52 -47q36 0 57 25l20 -18q-23 -33 -78 -33q-37 0 -60 18t-23 51q0 65 110 131l-1 3h-210z" />
    <glyph glyph-name="iogonek" unicode="&#x12f;" horiz-adv-x="235" 
d="M100 0v508h35v-508q-53 -50 -72 -75t-19 -53q0 -49 52 -49q37 0 58 25l20 -18q-24 -33 -78 -33q-37 0 -60 18.5t-23 51.5q0 34 22 63.5t70 68.5v1h-5zM118 665q-30 0 -30 26v9q0 26 29 26q30 0 30 -26v-9q0 -26 -29 -26z" />
    <glyph glyph-name="Idotaccent" unicode="&#x130;" horiz-adv-x="379" 
d="M189 812q-31 0 -31 29v8q0 29 31 29t31 -29v-8q0 -29 -31 -29zM313 0h-247v31h105v636h-105v31h247v-31h-105v-636h105v-31z" />
    <glyph glyph-name="dotlessi" unicode="&#x131;" horiz-adv-x="235" 
d="M135 0h-35v508h35v-508z" />
    <glyph glyph-name="IJ" unicode="&#x132;" horiz-adv-x="634" 
d="M315 698h222v-491q0 -105 -58.5 -162t-166.5 -57q-179 0 -214 150l33 9q18 -64 61.5 -95t120.5 -31q90 0 138.5 47t48.5 135v462h-185v33zM97 290v408h37v-408h-37z" />
    <glyph glyph-name="ij" unicode="&#x133;" horiz-adv-x="471" 
d="M336 -169v677h35v-657q0 -51 -48 -51h-72v31h85zM354 665q-30 0 -30 26v9q0 26 29 26q30 0 30 -26v-9q0 -26 -29 -26zM118 665q-30 0 -30 26v9q0 26 29 26q30 0 30 -26v-9q0 -26 -29 -26zM100 0v508h35v-508h-35z" />
    <glyph glyph-name="Jcircumflex" unicode="&#x134;" horiz-adv-x="475" 
d="M218 926h42l124 -136l-21 -15l-124 124l-124 -124l-21 15zM96 698h282v-515q0 -93 -47.5 -144t-131.5 -51q-66 0 -114 36.5t-62 96.5l33 9q14 -49 51.5 -79t92.5 -30q69 0 105 42.5t36 122.5v479h-245v33z" />
    <glyph glyph-name="jcircumflex" unicode="&#x135;" horiz-adv-x="235" 
d="M96 748h42l124 -135l-21 -16l-124 125l-124 -125l-21 16zM15 -200v31h85v677h35v-657q0 -51 -48 -51h-72z" />
    <glyph glyph-name="Kcommaaccent" unicode="&#x136;" horiz-adv-x="587" 
d="M320 -66q29 0 29 -28v-11q0 -28 -14 -60.5t-35 -54.5h-27q38 42 46 92q-30 1 -30 26v8q0 28 31 28zM522 0l-254 377l-127 -139v-238h-37v698h37v-414h2l123 137l248 277h46l-267 -296l273 -402h-44z" />
    <glyph glyph-name="kcommaaccent" unicode="&#x137;" horiz-adv-x="499" 
d="M276 -66q29 0 29 -28v-11q0 -28 -14 -60.5t-35 -54.5h-27q38 42 46 92q-30 1 -30 26v8q0 28 31 28zM100 0v740h35v-508h3l80 81l193 195h44l-209 -211l234 -297h-43l-216 274l-86 -85v-189h-35z" />
    <glyph glyph-name="kgreenlandic" unicode="&#x138;" horiz-adv-x="499" 
d="M437 0l-216 266l-86 -85v-181h-35v508h35v-284h3l81 82l201 202h43l-216 -218l233 -290h-43z" />
    <glyph glyph-name="Lacute" unicode="&#x139;" horiz-adv-x="481" 
d="M224 918l-113 -154l-24 13l105 158zM460 0h-356v698h37v-665h319v-33z" />
    <glyph glyph-name="lacute" unicode="&#x13a;" horiz-adv-x="255" 
d="M218 940l-113 -153l-24 13l105 158zM218 0h-75q-43 0 -43 42v698h35v-709h83v-31z" />
    <glyph glyph-name="Lcommaaccent" unicode="&#x13b;" horiz-adv-x="481" 
d="M294 -66q29 0 29 -28v-11q0 -28 -14 -60.5t-35 -54.5h-27q38 42 46 92q-30 1 -30 26v8q0 28 31 28zM460 0h-356v698h37v-665h319v-33z" />
    <glyph glyph-name="lcommaaccent" unicode="&#x13c;" horiz-adv-x="255" 
d="M163 -66q29 0 29 -28v-11q0 -28 -14 -60.5t-35 -54.5h-27q38 42 46 92q-30 1 -30 26v8q0 28 31 28zM218 0h-75q-43 0 -43 42v698h35v-709h83v-31z" />
    <glyph glyph-name="Lcaron" unicode="&#x13d;" horiz-adv-x="481" 
d="M292 740l-31 -178h-25l15 178h41zM460 0h-356v698h37v-665h319v-33z" />
    <glyph glyph-name="lcaron" unicode="&#x13e;" horiz-adv-x="255" 
d="M277 740l-31 -178h-25l15 178h41zM218 0h-75q-43 0 -43 42v698h35v-709h83v-31z" />
    <glyph glyph-name="Ldot" unicode="&#x13f;" horiz-adv-x="481" 
d="M365 276q-30 0 -30 27v8q0 27 30 27t30 -27v-8q0 -27 -30 -27zM460 0h-356v698h37v-665h319v-33z" />
    <glyph glyph-name="ldot" unicode="&#x140;" horiz-adv-x="295" 
d="M263 243q-30 0 -30 27v8q0 27 30 27t30 -27v-8q0 -27 -30 -27zM218 0h-75q-43 0 -43 42v698h35v-709h83v-31z" />
    <glyph glyph-name="Lslash" unicode="&#x141;" horiz-adv-x="484" 
d="M463 33v-33h-356v295l-98 -32v32l98 32v371h37v-359l199 63v-32l-199 -63v-274h319z" />
    <glyph glyph-name="lslash" unicode="&#x142;" horiz-adv-x="261" 
d="M221 31v-31h-75q-43 0 -43 42v303l-73 -24v31l73 24v364h35v-352l95 31v-31l-95 -31v-326h83z" />
    <glyph glyph-name="Nacute" unicode="&#x143;" horiz-adv-x="696" 
d="M449 918l-113 -154l-24 13l105 158zM542 0l-399 650h-3v-650h-36v698h49l400 -650h3v650h36v-698h-50z" />
    <glyph glyph-name="nacute" unicode="&#x144;" horiz-adv-x="559" 
d="M386 740l-113 -153l-24 13l105 158zM135 0h-35v508h35v-78h3q37 90 156 90q84 0 128.5 -50t44.5 -144v-326h-35v320q0 169 -146 169q-63 0 -107 -33.5t-44 -94.5v-361z" />
    <glyph glyph-name="Ncommaaccent" unicode="&#x145;" horiz-adv-x="696" 
d="M349 -66q29 0 29 -28v-11q0 -28 -14 -60.5t-35 -54.5h-27q38 42 46 92q-30 1 -30 26v8q0 28 31 28zM542 0l-399 650h-3v-650h-36v698h49l400 -650h3v650h36v-698h-50z" />
    <glyph glyph-name="ncommaaccent" unicode="&#x146;" horiz-adv-x="559" 
d="M285 -66q29 0 29 -28v-11q0 -28 -14 -60.5t-35 -54.5h-27q38 42 46 92q-30 1 -30 26v8q0 28 31 28zM135 0h-35v508h35v-78h3q37 90 156 90q84 0 128.5 -50t44.5 -144v-326h-35v320q0 169 -146 169q-63 0 -107 -33.5t-44 -94.5v-361z" />
    <glyph glyph-name="Ncaron" unicode="&#x147;" horiz-adv-x="696" 
d="M369 780h-42l-124 135l21 16l124 -125l124 125l21 -16zM542 0l-399 650h-3v-650h-36v698h49l400 -650h3v650h36v-698h-50z" />
    <glyph glyph-name="ncaron" unicode="&#x148;" horiz-adv-x="559" 
d="M306 602h-42l-124 135l21 16l124 -124l124 124l21 -16zM135 0h-35v508h35v-78h3q37 90 156 90q84 0 128.5 -50t44.5 -144v-326h-35v320q0 169 -146 169q-63 0 -107 -33.5t-44 -94.5v-361z" />
    <glyph glyph-name="napostrophe" unicode="&#x149;" horiz-adv-x="807" 
d="M383 0h-35v508h35v-78h3q37 90 156 90q84 0 128.5 -50t44.5 -144v-326h-35v320q0 169 -146 169q-63 0 -107 -33.5t-44 -94.5v-361zM129 750q34 0 34 -34v-12q0 -41 -22.5 -87.5t-57.5 -78.5h-30q63 63 74 138q-34 1 -34 30v10q0 34 36 34z" />
    <glyph glyph-name="Eng" unicode="&#x14a;" horiz-adv-x="696" 
d="M140 0h-36v698h49l400 -650h3v650h36v-846q0 -52 -50 -52h-72v32h86v168h-14l-399 650h-3v-650z" />
    <glyph glyph-name="eng" unicode="&#x14b;" horiz-adv-x="559" 
d="M348 -200v31h84v489q0 169 -146 169q-63 0 -107 -33.5t-44 -94.5v-361h-35v508h35v-78h3q37 90 156 90q84 0 128.5 -50t44.5 -144v-476q0 -50 -48 -50h-71z" />
    <glyph glyph-name="Omacron" unicode="&#x14c;" horiz-adv-x="686" 
d="M211 831v30h264v-30h-264zM343 -12q-132 0 -204 92t-72 269t72 269t204 92t204 -92t72 -269t-72 -269t-204 -92zM343 21q110 0 173 77.5t63 220.5v60q0 143 -63 220.5t-173 77.5t-173 -77.5t-63 -220.5v-60q0 -143 63 -220.5t173 -77.5z" />
    <glyph glyph-name="omacron" unicode="&#x14d;" horiz-adv-x="544" 
d="M140 653v30h264v-30h-264zM272 -12q-101 0 -158 69t-57 197t57 197t158 69t158 -69t57 -197t-57 -197t-158 -69zM272 19q84 0 130.5 55.5t46.5 152.5v54q0 98 -46.5 153t-130.5 55t-130.5 -55t-46.5 -153v-54q0 -97 46.5 -152.5t130.5 -55.5z" />
    <glyph glyph-name="Obreve" unicode="&#x14e;" horiz-adv-x="686" 
d="M343 781q-28 0 -48.5 8t-37 26.5t-26.5 36t-25 48.5l23 11l17 -29q24 -42 43.5 -56.5t53.5 -14.5t53.5 14.5t43.5 56.5l17 29l23 -11q-15 -31 -25 -48.5t-26.5 -36t-37 -26.5t-48.5 -8zM343 -12q-132 0 -204 92t-72 269t72 269t204 92t204 -92t72 -269t-72 -269t-204 -92
zM343 21q110 0 173 77.5t63 220.5v60q0 143 -63 220.5t-173 77.5t-173 -77.5t-63 -220.5v-60q0 -143 63 -220.5t173 -77.5z" />
    <glyph glyph-name="obreve" unicode="&#x14f;" horiz-adv-x="544" 
d="M272 604q-28 0 -48.5 8t-37 26.5t-26.5 36t-25 48.5l23 10l17 -28q24 -42 43.5 -57t53.5 -15t53.5 15t43.5 57l17 28l23 -10q-15 -31 -25 -48.5t-26.5 -36t-37 -26.5t-48.5 -8zM272 -12q-101 0 -158 69t-57 197t57 197t158 69t158 -69t57 -197t-57 -197t-158 -69zM272 19
q84 0 130.5 55.5t46.5 152.5v54q0 98 -46.5 153t-130.5 55t-130.5 -55t-46.5 -153v-54q0 -97 46.5 -152.5t130.5 -55.5z" />
    <glyph glyph-name="Ohungarumlaut" unicode="&#x150;" horiz-adv-x="686" 
d="M378 918l-113 -154l-23 13l105 158zM538 918l-113 -154l-23 13l105 158zM343 -12q-132 0 -204 92t-72 269t72 269t204 92t204 -92t72 -269t-72 -269t-204 -92zM343 21q110 0 173 77.5t63 220.5v60q0 143 -63 220.5t-173 77.5t-173 -77.5t-63 -220.5v-60q0 -143 63 -220.5
t173 -77.5z" />
    <glyph glyph-name="ohungarumlaut" unicode="&#x151;" horiz-adv-x="544" 
d="M307 740l-113 -153l-23 13l105 157zM467 740l-113 -153l-23 13l105 157zM272 -12q-101 0 -158 69t-57 197t57 197t158 69t158 -69t57 -197t-57 -197t-158 -69zM272 19q84 0 130.5 55.5t46.5 152.5v54q0 98 -46.5 153t-130.5 55t-130.5 -55t-46.5 -153v-54
q0 -97 46.5 -152.5t130.5 -55.5z" />
    <glyph glyph-name="OE" unicode="&#x152;" horiz-adv-x="971" 
d="M901 0h-392q-79 -12 -140 -12q-146 0 -224 91.5t-78 269.5t78 269.5t224 91.5q61 0 140 -12h392v-33h-355v-280h341v-33h-341v-319h355v-33zM372 21q73 0 137 15v626q-64 15 -137 15q-127 0 -196 -77t-69 -221v-60q0 -144 69 -221t196 -77z" />
    <glyph glyph-name="oe" unicode="&#x153;" horiz-adv-x="929" 
d="M272 19q84 0 130.5 55.5t46.5 152.5v54q0 98 -46.5 153t-130.5 55t-130.5 -55t-46.5 -153v-54q0 -97 46.5 -152.5t130.5 -55.5zM487 280h348v6q0 92 -47.5 147.5t-124.5 55.5q-82 0 -129 -55.5t-47 -149.5v-4zM668 -12q-76 0 -126.5 38.5t-71.5 109.5h-4
q-20 -71 -70 -109.5t-124 -38.5q-101 0 -158 69t-57 197t57 197t158 69q74 0 124.5 -37.5t70.5 -108.5h4q20 71 69.5 108.5t122.5 37.5q95 0 152.5 -69t57.5 -183v-16h-386v-27q0 -94 48 -150t133 -56q121 0 167 116l27 -15q-24 -62 -74 -97t-120 -35z" />
    <glyph glyph-name="Racute" unicode="&#x154;" horiz-adv-x="632" 
d="M406 918l-113 -154l-24 13l105 158zM141 317v-317h-37v698h271q86 0 132.5 -50.5t46.5 -139.5q0 -85 -43.5 -135t-124.5 -54l185 -319h-42l-182 317h-206zM141 349h234q67 0 103 39t36 97v44q0 58 -36 97t-103 39h-234v-316z" />
    <glyph glyph-name="racute" unicode="&#x155;" horiz-adv-x="347" 
d="M322 740l-113 -153l-24 13l105 158zM135 0h-35v508h35v-89h4q41 89 156 89h38v-33h-44q-66 0 -110 -33t-44 -93v-349z" />
    <glyph glyph-name="Rcommaaccent" unicode="&#x156;" horiz-adv-x="632" 
d="M311 -66q29 0 29 -28v-11q0 -28 -14 -60.5t-35 -54.5h-27q38 42 46 92q-30 1 -30 26v8q0 28 31 28zM141 317v-317h-37v698h271q86 0 132.5 -50.5t46.5 -139.5q0 -85 -43.5 -135t-124.5 -54l185 -319h-42l-182 317h-206zM141 349h234q67 0 103 39t36 97v44q0 58 -36 97
t-103 39h-234v-316z" />
    <glyph glyph-name="rcommaaccent" unicode="&#x157;" horiz-adv-x="347" 
d="M120 -66q29 0 29 -28v-11q0 -28 -14 -60.5t-35 -54.5h-27q38 42 46 92q-30 1 -30 26v8q0 28 31 28zM135 0h-35v508h35v-89h4q41 89 156 89h38v-33h-44q-66 0 -110 -33t-44 -93v-349z" />
    <glyph glyph-name="Rcaron" unicode="&#x158;" horiz-adv-x="632" 
d="M326 780h-42l-124 135l21 16l124 -125l124 125l21 -16zM141 317v-317h-37v698h271q86 0 132.5 -50.5t46.5 -139.5q0 -85 -43.5 -135t-124.5 -54l185 -319h-42l-182 317h-206zM141 349h234q67 0 103 39t36 97v44q0 58 -36 97t-103 39h-234v-316z" />
    <glyph glyph-name="rcaron" unicode="&#x159;" horiz-adv-x="347" 
d="M242 602h-42l-124 135l21 16l124 -124l124 124l21 -16zM135 0h-35v508h35v-89h4q41 89 156 89h38v-33h-44q-66 0 -110 -33t-44 -93v-349z" />
    <glyph glyph-name="Sacute" unicode="&#x15a;" horiz-adv-x="555" 
d="M374 918l-113 -154l-24 13l105 158zM279 -12q-150 0 -237 116l28 22q80 -105 210 -105q87 0 135 41t48 118q0 73 -40 106.5t-114 48.5l-67 13q-183 35 -183 182q0 88 58.5 134t158.5 46q145 0 212 -100l-28 -20q-62 87 -186 87q-85 0 -131.5 -37t-46.5 -109
q0 -69 40 -102t114 -47l67 -13q100 -20 141.5 -67.5t41.5 -118.5q0 -93 -59 -144t-162 -51z" />
    <glyph glyph-name="sacute" unicode="&#x15b;" horiz-adv-x="468" 
d="M328 740l-113 -153l-24 13l105 158zM237 -12q-122 0 -191 95l27 20q34 -45 72.5 -64.5t92.5 -19.5q67 0 102.5 28t35.5 81q0 49 -29 75t-91 36l-43 7q-73 11 -111 43.5t-38 96.5t46.5 99t119.5 35q104 0 170 -75l-25 -23q-56 67 -146 67q-61 0 -96 -26.5t-35 -75.5
t29 -73.5t92 -34.5l43 -7q73 -12 110.5 -45.5t37.5 -95.5q0 -67 -46 -105t-127 -38z" />
    <glyph glyph-name="Scircumflex" unicode="&#x15c;" horiz-adv-x="555" 
d="M252 926h42l124 -136l-21 -15l-124 124l-124 -124l-21 15zM279 -12q-150 0 -237 116l28 22q80 -105 210 -105q87 0 135 41t48 118q0 73 -40 106.5t-114 48.5l-67 13q-183 35 -183 182q0 88 58.5 134t158.5 46q145 0 212 -100l-28 -20q-62 87 -186 87q-85 0 -131.5 -37
t-46.5 -109q0 -69 40 -102t114 -47l67 -13q100 -20 141.5 -67.5t41.5 -118.5q0 -93 -59 -144t-162 -51z" />
    <glyph glyph-name="scircumflex" unicode="&#x15d;" horiz-adv-x="468" 
d="M206 748h42l124 -135l-21 -16l-124 125l-124 -125l-21 16zM237 -12q-122 0 -191 95l27 20q34 -45 72.5 -64.5t92.5 -19.5q67 0 102.5 28t35.5 81q0 49 -29 75t-91 36l-43 7q-73 11 -111 43.5t-38 96.5t46.5 99t119.5 35q104 0 170 -75l-25 -23q-56 67 -146 67
q-61 0 -96 -26.5t-35 -75.5t29 -73.5t92 -34.5l43 -7q73 -12 110.5 -45.5t37.5 -95.5q0 -67 -46 -105t-127 -38z" />
    <glyph glyph-name="Scedilla" unicode="&#x15e;" horiz-adv-x="555" 
d="M274 677q-85 0 -131.5 -37t-46.5 -109q0 -69 40 -102t114 -47l67 -13q100 -20 141.5 -67.5t41.5 -118.5q0 -91 -56.5 -142t-155.5 -53l-14 -58l2 -2q15 3 32 3q30 0 49 -16.5t19 -43.5q0 -32 -24.5 -53t-64.5 -21q-61 0 -86 34l19 20q23 -28 67 -28q26 0 41.5 12t15.5 35
q0 41 -63 45l-35 3l17 70q-138 7 -221 116l28 22q80 -105 210 -105q87 0 135 41t48 118q0 73 -40 106.5t-114 48.5l-67 13q-183 35 -183 182q0 88 58.5 134t158.5 46q145 0 212 -100l-28 -20q-62 87 -186 87z" />
    <glyph glyph-name="scedilla" unicode="&#x15f;" horiz-adv-x="468" 
d="M336 -129q0 -32 -24.5 -53t-64.5 -21q-60 0 -85 34l19 20q23 -28 66 -28q26 0 41.5 12t15.5 35q0 41 -62 45l-35 3l16 70q-112 4 -177 95l27 20q34 -45 72.5 -64.5t92.5 -19.5q67 0 102 28t35 81q0 49 -29 75.5t-90 35.5l-43 7q-73 11 -111 43.5t-38 96.5t46.5 99
t119.5 35q104 0 170 -75l-25 -23q-56 67 -146 67q-61 0 -96 -26.5t-35 -75.5q0 -50 29 -74.5t92 -33.5l43 -7q73 -12 110.5 -45.5t37.5 -95.5q0 -65 -43 -102.5t-118 -40.5l-14 -58l2 -2q15 3 32 3q30 0 48.5 -16.5t18.5 -43.5z" />
    <glyph glyph-name="Scaron" unicode="&#x160;" horiz-adv-x="555" 
d="M294 780h-42l-124 135l21 16l124 -125l124 125l21 -16zM279 -12q-150 0 -237 116l28 22q80 -105 210 -105q87 0 135 41t48 118q0 73 -40 106.5t-114 48.5l-67 13q-183 35 -183 182q0 88 58.5 134t158.5 46q145 0 212 -100l-28 -20q-62 87 -186 87q-85 0 -131.5 -37
t-46.5 -109q0 -69 40 -102t114 -47l67 -13q100 -20 141.5 -67.5t41.5 -118.5q0 -93 -59 -144t-162 -51z" />
    <glyph glyph-name="scaron" unicode="&#x161;" horiz-adv-x="468" 
d="M248 602h-42l-124 135l21 16l124 -124l124 124l21 -16zM237 -12q-122 0 -191 95l27 20q34 -45 72.5 -64.5t92.5 -19.5q67 0 102.5 28t35.5 81q0 49 -29 75t-91 36l-43 7q-73 11 -111 43.5t-38 96.5t46.5 99t119.5 35q104 0 170 -75l-25 -23q-56 67 -146 67
q-61 0 -96 -26.5t-35 -75.5t29 -73.5t92 -34.5l43 -7q73 -12 110.5 -45.5t37.5 -95.5q0 -67 -46 -105t-127 -38z" />
    <glyph glyph-name="Tcommaaccent" unicode="&#x162;" horiz-adv-x="563" 
d="M282 -66q29 0 29 -28v-11q0 -28 -14 -60.5t-35 -54.5h-27q38 42 46 92q-30 1 -30 26v8q0 28 31 28zM545 665h-245v-665h-37v665h-245v33h527v-33z" />
    <glyph glyph-name="tcommaaccent" unicode="&#x163;" horiz-adv-x="320" 
d="M196 -66q29 0 29 -28v-11q0 -28 -14 -60.5t-35 -54.5h-27q38 42 46 92q-30 1 -30 26v8q0 28 31 28zM268 0h-103q-43 0 -43 42v435h-92v31h66q16 0 22 7t6 24v113h33v-144h119v-31h-119v-446h111v-31z" />
    <glyph glyph-name="Tcaron" unicode="&#x164;" horiz-adv-x="563" 
d="M302 780h-42l-124 135l21 16l124 -125l124 125l21 -16zM545 665h-245v-665h-37v665h-245v33h527v-33z" />
    <glyph glyph-name="tcaron" unicode="&#x165;" horiz-adv-x="320" 
d="M306 743l-31 -178h-25l15 178h41zM268 0h-103q-43 0 -43 42v435h-92v31h66q16 0 22 7t6 24v113h33v-144h119v-31h-119v-446h111v-31z" />
    <glyph glyph-name="Tbar" unicode="&#x166;" horiz-adv-x="563" 
d="M482 359h-182v-359h-37v359h-182v30h182v276h-245v33h527v-33h-245v-276h182v-30z" />
    <glyph glyph-name="tbar" unicode="&#x167;" horiz-adv-x="326" 
d="M271 31v-31h-103q-43 0 -43 42v230h-67v29h67v176h-92v31h66q16 0 22 7t6 24v113h33v-144h119v-31h-119v-176h99v-29h-99v-241h111z" />
    <glyph glyph-name="Utilde" unicode="&#x168;" horiz-adv-x="658" 
d="M399 802q-30 0 -77 29q-42 25 -67 25q-33 0 -64 -31l-17 18q37 43 83 43q30 0 77 -29q42 -25 67 -25q33 0 64 31l17 -18q-37 -43 -83 -43zM97 698h37v-430q0 -135 43 -191t152 -56t152 56t43 191v430h37v-424q0 -156 -52 -221t-181 -65q-128 0 -179.5 65t-51.5 221v424z
" />
    <glyph glyph-name="utilde" unicode="&#x169;" horiz-adv-x="559" 
d="M346 624q-32 0 -77 29q-41 26 -67 26q-32 0 -64 -32l-17 19q36 42 83 42q32 0 77 -29q41 -26 67 -26q32 0 64 32l17 -19q-36 -42 -83 -42zM424 0v78h-4q-15 -39 -53.5 -64.5t-101.5 -25.5q-84 0 -129 50t-45 144v326h35v-320q0 -169 147 -169q63 0 107 33.5t44 95.5v360
h35v-508h-35z" />
    <glyph glyph-name="Umacron" unicode="&#x16a;" horiz-adv-x="658" 
d="M196 831v30h264v-30h-264zM97 698h37v-430q0 -135 43 -191t152 -56t152 56t43 191v430h37v-424q0 -156 -52 -221t-181 -65q-128 0 -179.5 65t-51.5 221v424z" />
    <glyph glyph-name="umacron" unicode="&#x16b;" horiz-adv-x="559" 
d="M143 653v30h264v-30h-264zM424 0v78h-4q-15 -39 -53.5 -64.5t-101.5 -25.5q-84 0 -129 50t-45 144v326h35v-320q0 -169 147 -169q63 0 107 33.5t44 95.5v360h35v-508h-35z" />
    <glyph glyph-name="Ubreve" unicode="&#x16c;" horiz-adv-x="658" 
d="M328 781q-28 0 -48.5 8t-37 26.5t-26.5 36t-25 48.5l23 11l17 -29q24 -42 43.5 -56.5t53.5 -14.5t53.5 14.5t43.5 56.5l17 29l23 -11q-15 -31 -25 -48.5t-26.5 -36t-37 -26.5t-48.5 -8zM97 698h37v-430q0 -135 43 -191t152 -56t152 56t43 191v430h37v-424
q0 -156 -52 -221t-181 -65q-128 0 -179.5 65t-51.5 221v424z" />
    <glyph glyph-name="ubreve" unicode="&#x16d;" horiz-adv-x="559" 
d="M275 604q-28 0 -48.5 8t-37 26.5t-26.5 36t-25 48.5l23 10l17 -28q24 -42 43.5 -57t53.5 -15t53.5 15t43.5 57l17 28l23 -10q-15 -31 -25 -48.5t-26.5 -36t-37 -26.5t-48.5 -8zM424 0v78h-4q-15 -39 -53.5 -64.5t-101.5 -25.5q-84 0 -129 50t-45 144v326h35v-320
q0 -169 147 -169q63 0 107 33.5t44 95.5v360h35v-508h-35z" />
    <glyph glyph-name="Uring" unicode="&#x16e;" horiz-adv-x="658" 
d="M328 764q-43 0 -69.5 26.5t-26.5 69.5t26.5 70t69.5 27t69.5 -27t26.5 -70t-26.5 -69.5t-69.5 -26.5zM328 789q31 0 49 17.5t18 47.5v13q0 29 -18 47t-49 18t-49 -18t-18 -47v-13q0 -30 18 -47.5t49 -17.5zM97 698h37v-430q0 -135 43 -191t152 -56t152 56t43 191v430h37
v-424q0 -156 -52 -221t-181 -65q-128 0 -179.5 65t-51.5 221v424z" />
    <glyph glyph-name="uring" unicode="&#x16f;" horiz-adv-x="559" 
d="M275 586q-43 0 -69.5 27t-26.5 70q0 42 26.5 69t69.5 27t69.5 -27t26.5 -69q0 -43 -26.5 -70t-69.5 -27zM275 611q31 0 49 18t18 47v13q0 30 -18 47.5t-49 17.5t-49 -17.5t-18 -47.5v-13q0 -29 18 -47t49 -18zM424 0v78h-4q-15 -39 -53.5 -64.5t-101.5 -25.5
q-84 0 -129 50t-45 144v326h35v-320q0 -169 147 -169q63 0 107 33.5t44 95.5v360h35v-508h-35z" />
    <glyph glyph-name="Uhungarumlaut" unicode="&#x170;" horiz-adv-x="658" 
d="M363 918l-113 -154l-23 13l105 158zM523 918l-113 -154l-23 13l105 158zM97 698h37v-430q0 -135 43 -191t152 -56t152 56t43 191v430h37v-424q0 -156 -52 -221t-181 -65q-128 0 -179.5 65t-51.5 221v424z" />
    <glyph glyph-name="uhungarumlaut" unicode="&#x171;" horiz-adv-x="559" 
d="M310 740l-113 -153l-23 13l105 157zM470 740l-113 -153l-23 13l105 157zM424 0v78h-4q-15 -39 -53.5 -64.5t-101.5 -25.5q-84 0 -129 50t-45 144v326h35v-320q0 -169 147 -169q63 0 107 33.5t44 95.5v360h35v-508h-35z" />
    <glyph glyph-name="Uogonek" unicode="&#x172;" horiz-adv-x="658" 
d="M97 698h37v-430q0 -135 43 -191t152 -56t152 56t43 191v430h37v-424q0 -107 -23.5 -169t-81.5 -100q-63 -40 -92 -71t-29 -63q0 -48 51 -48q37 0 58 25l20 -18q-23 -33 -78 -33q-37 0 -59.5 18t-22.5 51q0 67 105 129l-2 3q-34 -10 -79 -10q-128 0 -179.5 65t-51.5 221
v424z" />
    <glyph glyph-name="uogonek" unicode="&#x173;" horiz-adv-x="559" 
d="M459 0q-58 -48 -78.5 -72t-20.5 -54q0 -51 52 -51q38 0 57 25l21 -18q-23 -33 -79 -33q-36 0 -59 19t-23 54q0 62 99 129v1h-4v78h-4q-15 -39 -53.5 -64.5t-101.5 -25.5q-84 0 -129 50t-45 144v326h35v-320q0 -169 147 -169q63 0 107 33.5t44 95.5v360h35v-508z" />
    <glyph glyph-name="Wcircumflex" unicode="&#x174;" horiz-adv-x="877" 
d="M415 926h42l124 -136l-21 -15l-124 124l-124 -124l-21 15zM255 0h-45l-182 698h39l166 -650h3l178 650h48l178 -650h3l168 650h38l-184 -698h-46l-180 657h-3z" />
    <glyph glyph-name="wcircumflex" unicode="&#x175;" horiz-adv-x="735" 
d="M347 748h42l124 -135l-21 -16l-124 125l-124 -125l-21 16zM184 0l-150 508h36l135 -472h3l143 472h34l144 -472h3l135 472h34l-150 -508h-43l-139 456h-3l-139 -456h-43z" />
    <glyph glyph-name="Ycircumflex" unicode="&#x176;" horiz-adv-x="557" 
d="M257 926h42l124 -136l-21 -15l-124 124l-124 -124l-21 15zM297 0h-37v290l-241 408h42l216 -368h3l217 368h41l-241 -408v-290z" />
    <glyph glyph-name="ycircumflex" unicode="&#x177;" horiz-adv-x="462" 
d="M211 748h42l124 -135l-21 -16l-124 125l-124 -125l-21 16zM233 38l170 470h35l-248 -675q-8 -18 -19 -25.5t-33 -7.5h-74v31h90l60 159l-191 518h37l170 -470h3z" />
    <glyph glyph-name="Ydieresis" unicode="&#x178;" horiz-adv-x="557" 
d="M187 812q-30 0 -30 27v8q0 27 30 27q29 0 29 -27v-8q0 -27 -29 -27zM369 812q-29 0 -29 27v8q0 27 29 27q30 0 30 -27v-8q0 -27 -30 -27zM297 0h-37v290l-241 408h42l216 -368h3l217 368h41l-241 -408v-290z" />
    <glyph glyph-name="Zacute" unicode="&#x179;" horiz-adv-x="561" 
d="M387 918l-113 -154l-24 13l105 158zM531 33v-33h-493v35l434 630h-411v33h451v-35l-434 -630h453z" />
    <glyph glyph-name="zacute" unicode="&#x17a;" horiz-adv-x="428" 
d="M315 740l-113 -153l-24 13l105 158zM404 0h-376v32l327 445h-317v31h357v-30l-328 -447h337v-31z" />
    <glyph glyph-name="Zdotaccent" unicode="&#x17b;" horiz-adv-x="561" 
d="M286 812q-31 0 -31 29v8q0 29 31 29t31 -29v-8q0 -29 -31 -29zM531 33v-33h-493v35l434 630h-411v33h451v-35l-434 -630h453z" />
    <glyph glyph-name="zdotaccent" unicode="&#x17c;" horiz-adv-x="428" 
d="M214 636q-30 0 -30 27v8q0 27 30 27t30 -27v-8q0 -27 -30 -27zM404 0h-376v32l327 445h-317v31h357v-30l-328 -447h337v-31z" />
    <glyph glyph-name="Zcaron" unicode="&#x17d;" horiz-adv-x="561" 
d="M307 780h-42l-124 135l21 16l124 -125l124 125l21 -16zM531 33v-33h-493v35l434 630h-411v33h451v-35l-434 -630h453z" />
    <glyph glyph-name="zcaron" unicode="&#x17e;" horiz-adv-x="428" 
d="M235 602h-42l-124 135l21 16l124 -124l124 124l21 -16zM404 0h-376v32l327 445h-317v31h357v-30l-328 -447h337v-31z" />
    <glyph glyph-name="uni018F" unicode="&#x18f;" horiz-adv-x="686" 
d="M67 349v7h513v21q0 145 -62.5 222.5t-172.5 77.5q-81 0 -138.5 -43t-83.5 -124l-31 16q29 89 94 136.5t159 47.5q131 0 202.5 -92.5t71.5 -268.5q0 -177 -71.5 -269t-204.5 -92t-204.5 91.5t-71.5 269.5zM343 21q110 0 173.5 78t63.5 222v3h-474v-3q0 -144 63.5 -222
t173.5 -78z" />
    <glyph glyph-name="florin" unicode="&#x192;" horiz-adv-x="484" 
d="M-10 -134l3 31h170l41 412h-166l4 31h165l31 308q5 50 55 50h163l-3 -31h-178l-32 -327h200l-3 -31h-201l-38 -393q-6 -50 -56 -50h-155z" />
    <glyph glyph-name="Ohorn" unicode="&#x1a0;" horiz-adv-x="686" 
d="M589 811h32v-102q0 -37 -37 -37h-96q131 -85 131 -323q0 -177 -72 -269t-204 -92t-204 92t-72 269t72 269t204 92q48 0 87 -12h159v113zM343 21q110 0 173 77.5t63 220.5v60q0 143 -63 220.5t-173 77.5t-173 -77.5t-63 -220.5v-60q0 -143 63 -220.5t173 -77.5z" />
    <glyph glyph-name="ohorn" unicode="&#x1a1;" horiz-adv-x="544" 
d="M446 612h33v-92q0 -37 -37 -37h-46q91 -65 91 -229q0 -128 -57 -197t-158 -69t-158 69t-57 197t57 197t158 69q36 0 77 -12h97v104zM272 19q84 0 130.5 55.5t46.5 152.5v54q0 98 -46.5 153t-130.5 55t-130.5 -55t-46.5 -153v-54q0 -97 46.5 -152.5t130.5 -55.5z" />
    <glyph glyph-name="Uhorn" unicode="&#x1af;" horiz-adv-x="658" 
d="M97 698h37v-430q0 -135 43 -191t152 -56t152 56t43 191v430h83v111h32v-100q0 -37 -37 -37h-41v-398q0 -156 -52 -221t-181 -65q-128 0 -179.5 65t-51.5 221v424z" />
    <glyph glyph-name="uhorn" unicode="&#x1b0;" horiz-adv-x="559" 
d="M539 620v-101q0 -37 -38 -37h-42v-482h-35v78h-4q-15 -39 -53.5 -64.5t-101.5 -25.5q-84 0 -129 50t-45 144v326h35v-320q0 -169 147 -169q63 0 107 33.5t44 95.5v360h82v112h33z" />
    <glyph glyph-name="Aringacute" unicode="&#x1fa;" horiz-adv-x="610" 
d="M394 1082l-87 -101l-22 11l78 106zM304 761q-43 0 -69.5 27t-26.5 70t26.5 70t69.5 27t69.5 -27t26.5 -70t-26.5 -70t-69.5 -27zM304 787q31 0 49 17.5t18 46.5v13q0 30 -18 47.5t-49 17.5t-49 -17.5t-18 -47.5v-13q0 -29 18 -46.5t49 -17.5zM580 0h-39l-81 227h-311
l-81 -227h-38l251 698h48zM450 259l-144 403h-4l-143 -403h291z" />
    <glyph glyph-name="aringacute" unicode="&#x1fb;" horiz-adv-x="522" 
d="M339 903l-86 -100l-22 13l79 106zM250 584q-43 0 -69.5 26.5t-26.5 69.5t26.5 70t69.5 27t69.5 -27t26.5 -70t-26.5 -69.5t-69.5 -26.5zM250 609q31 0 49 17.5t18 47.5v13q0 29 -18 47t-49 18t-49 -18t-18 -47v-13q0 -30 18 -47.5t49 -17.5zM500 0h-69q-41 0 -43 42v37
h-4q-42 -91 -162 -91q-79 0 -122 38t-43 107q0 147 197 147h133v68q0 141 -139 141q-107 0 -148 -90l-25 17q47 104 174 104q84 0 128.5 -43.5t44.5 -124.5v-321h78v-31zM225 19q69 0 115.5 34t46.5 95v104h-133q-160 0 -160 -104v-28q0 -48 36 -74.5t95 -26.5z" />
    <glyph glyph-name="AEacute" unicode="&#x1fc;" horiz-adv-x="872" 
d="M700 918l-113 -154l-24 13l105 158zM410 0v227h-246l-123 -227h-39l377 698h423v-33h-355v-280h341v-33h-341v-319h355v-33h-392zM410 665h-11l-219 -406h230v406z" />
    <glyph glyph-name="aeacute" unicode="&#x1fd;" horiz-adv-x="862" 
d="M526 740l-113 -153l-24 13l105 158zM383 252h-133q-159 0 -159 -104v-28q0 -48 35.5 -74.5t95.5 -26.5q69 0 115 34t46 95v104zM419 280h348v6q0 91 -47 147t-124 56q-83 0 -130 -55.5t-47 -149.5v-4zM600 19q121 0 167 116l27 -15q-24 -62 -73.5 -97t-119.5 -35
q-72 0 -122 34.5t-70 94.5h-4q-11 -58 -62 -93.5t-125 -35.5q-78 0 -121.5 38t-43.5 107q0 147 197 147h133v68q0 141 -138 141q-108 0 -149 -90l-25 17q47 104 174 104q74 0 114.5 -35.5t46.5 -95.5h4q20 60 69 95.5t119 35.5q93 0 150 -69t57 -183v-16h-386v-27
q0 -94 48 -150t133 -56z" />
    <glyph glyph-name="Oslashacute" unicode="&#x1fe;" horiz-adv-x="686" 
d="M444 918l-113 -154l-24 13l105 158zM343 -12q-115 0 -184 69l-63 -91l-27 17l69 99q-71 93 -71 267q0 177 72 269t204 92q115 0 184 -69l65 93l26 -17l-70 -100q71 -94 71 -268q0 -177 -72 -269t-204 -92zM107 319q0 -129 52 -206l347 498q-61 66 -163 66
q-110 0 -173 -77.5t-63 -220.5v-60zM579 379q0 129 -52 206l-347 -498q61 -66 163 -66q110 0 173 77.5t63 220.5v60z" />
    <glyph glyph-name="oslashacute" unicode="&#x1ff;" horiz-adv-x="544" 
d="M374 740l-113 -153l-24 13l105 158zM57 -29l-21 16l68 84q-47 69 -47 183q0 128 57 197t158 69q93 0 149 -58l67 83l21 -16l-71 -88q49 -67 49 -187q0 -128 -57 -197t-158 -69q-97 0 -151 62zM272 19q84 0 130.5 55.5t46.5 152.5v54q0 81 -33 134l-275 -340
q47 -56 131 -56zM95 227q0 -76 30 -130l275 339q-45 53 -128 53q-84 0 -130.5 -55t-46.5 -153v-54z" />
    <glyph glyph-name="Scommaaccent" unicode="&#x218;" horiz-adv-x="555" 
d="M278 -66q29 0 29 -28v-11q0 -28 -14 -60.5t-35 -54.5h-27q38 42 46 92q-30 1 -30 26v8q0 28 31 28zM279 -12q-150 0 -237 116l28 22q80 -105 210 -105q87 0 135 41t48 118q0 73 -40 106.5t-114 48.5l-67 13q-183 35 -183 182q0 88 58.5 134t158.5 46q145 0 212 -100
l-28 -20q-62 87 -186 87q-85 0 -131.5 -37t-46.5 -109q0 -69 40 -102t114 -47l67 -13q100 -20 141.5 -67.5t41.5 -118.5q0 -93 -59 -144t-162 -51z" />
    <glyph glyph-name="scommaaccent" unicode="&#x219;" horiz-adv-x="468" 
d="M239 -66q29 0 29 -28v-11q0 -28 -14 -60.5t-35 -54.5h-27q38 42 46 92q-30 1 -30 26v8q0 28 31 28zM237 -12q-122 0 -191 95l27 20q34 -45 72.5 -64.5t92.5 -19.5q67 0 102.5 28t35.5 81q0 49 -29 75t-91 36l-43 7q-73 11 -111 43.5t-38 96.5t46.5 99t119.5 35
q104 0 170 -75l-25 -23q-56 67 -146 67q-61 0 -96 -26.5t-35 -75.5t29 -73.5t92 -34.5l43 -7q73 -12 110.5 -45.5t37.5 -95.5q0 -67 -46 -105t-127 -38z" />
    <glyph glyph-name="uni021A" unicode="&#x21a;" horiz-adv-x="563" 
d="M282 -66q29 0 29 -28v-11q0 -28 -14 -60.5t-35 -54.5h-27q38 42 46 92q-30 1 -30 26v8q0 28 31 28zM545 665h-245v-665h-37v665h-245v33h527v-33z" />
    <glyph glyph-name="uni021B" unicode="&#x21b;" horiz-adv-x="320" 
d="M196 -66q29 0 29 -28v-11q0 -28 -14 -60.5t-35 -54.5h-27q38 42 46 92q-30 1 -30 26v8q0 28 31 28zM268 0h-103q-43 0 -43 42v435h-92v31h66q16 0 22 7t6 24v113h33v-144h119v-31h-119v-446h111v-31z" />
    <glyph glyph-name="uni0237" unicode="&#x237;" horiz-adv-x="235" 
d="M15 -200v31h85v677h35v-657q0 -51 -48 -51h-72z" />
    <glyph glyph-name="uni0259" unicode="&#x259;" horiz-adv-x="537" 
d="M57 264h385v27q0 94 -48 150t-132 56q-122 0 -168 -116l-26 15q23 62 73.5 97t121.5 35q102 0 159.5 -69t57.5 -197q0 -127 -56.5 -196.5t-157.5 -69.5q-95 0 -152 68.5t-57 183.5v16zM95 236v-6q0 -91 47 -147t124 -56q82 0 129 55.5t47 149.5v4h-347z" />
    <glyph glyph-name="uni02BB" unicode="&#x2bb;" 
d="M299 598q-28 0 -28 28v11q0 28 14 60.5t34 54.5h28q-36 -38 -47 -92q30 -1 30 -26v-8q0 -28 -31 -28z" />
    <glyph glyph-name="uni02BC" unicode="&#x2bc;" 
d="M308 740l-31 -178h-25l15 178h41z" />
    <glyph glyph-name="circumflex" unicode="&#x2c6;" 
d="M279 748h42l124 -135l-21 -16l-124 125l-124 -125l-21 16z" />
    <glyph glyph-name="caron" unicode="&#x2c7;" 
d="M321 602h-42l-124 135l21 16l124 -124l124 124l21 -16z" />
    <glyph glyph-name="breve" unicode="&#x2d8;" 
d="M300 604q-28 0 -48.5 8t-37 26.5t-26.5 36t-25 48.5l23 10l17 -28q24 -42 43.5 -57t53.5 -15t53.5 15t43.5 57l17 28l23 -10q-15 -31 -25 -48.5t-26.5 -36t-37 -26.5t-48.5 -8z" />
    <glyph glyph-name="dotaccent" unicode="&#x2d9;" 
d="M300 636q-30 0 -30 27v8q0 27 30 27t30 -27v-8q0 -27 -30 -27z" />
    <glyph glyph-name="ring" unicode="&#x2da;" 
d="M300 586q-43 0 -69.5 27t-26.5 70q0 42 26.5 69t69.5 27t69.5 -27t26.5 -69q0 -43 -26.5 -70t-69.5 -27zM300 611q31 0 49 18t18 47v13q0 30 -18 47.5t-49 17.5t-49 -17.5t-18 -47.5v-13q0 -29 18 -47t49 -18z" />
    <glyph glyph-name="ogonek" unicode="&#x2db;" 
d="M243 -203q-36 0 -59 18t-23 51q0 67 115 136l-5 12l28 3l7 -17q-65 -45 -89.5 -72t-24.5 -58q0 -47 52 -47q38 0 57 25l21 -18q-24 -33 -79 -33z" />
    <glyph glyph-name="tilde" unicode="&#x2dc;" 
d="M371 624q-32 0 -77 29q-41 26 -67 26q-32 0 -64 -32l-17 19q36 42 83 42q32 0 77 -29q41 -26 67 -26q32 0 64 32l17 -19q-36 -42 -83 -42z" />
    <glyph glyph-name="hungarumlaut" unicode="&#x2dd;" 
d="M335 740l-113 -153l-23 13l105 157zM495 740l-113 -153l-23 13l105 157z" />
    <glyph glyph-name="uni0300" unicode="&#x300;" horiz-adv-x="0" 
d="M11 587l-113 153l32 18l105 -158z" />
    <glyph glyph-name="uni0301" unicode="&#x301;" horiz-adv-x="0" 
d="M101 740l-113 -153l-24 13l105 158z" />
    <glyph glyph-name="uni0302" unicode="&#x302;" horiz-adv-x="0" 
d="M-21 748h42l124 -135l-21 -16l-124 125l-124 -125l-21 16z" />
    <glyph glyph-name="uni0303" unicode="&#x303;" horiz-adv-x="0" 
d="M71 624q-32 0 -77 29q-41 26 -67 26q-32 0 -64 -32l-17 19q36 42 83 42q32 0 77 -29q41 -26 67 -26q32 0 64 32l17 -19q-36 -42 -83 -42z" />
    <glyph glyph-name="uni0304" unicode="&#x304;" horiz-adv-x="0" 
d="M-132 653v30h264v-30h-264z" />
    <glyph glyph-name="uni0306" unicode="&#x306;" horiz-adv-x="0" 
d="M0 604q-28 0 -48.5 8t-37 26.5t-26.5 36t-25 48.5l23 10l17 -28q24 -42 43.5 -57t53.5 -15t53.5 15t43.5 57l17 28l23 -10q-15 -31 -25 -48.5t-26.5 -36t-37 -26.5t-48.5 -8z" />
    <glyph glyph-name="uni0307" unicode="&#x307;" horiz-adv-x="0" 
d="M0 636q-30 0 -30 27v8q0 27 30 27t30 -27v-8q0 -27 -30 -27z" />
    <glyph glyph-name="uni0308" unicode="&#x308;" horiz-adv-x="0" 
d="M-91 636q-30 0 -30 27v8q0 27 30 27q29 0 29 -27v-8q0 -27 -29 -27zM91 636q-29 0 -29 27v8q0 27 29 27q30 0 30 -27v-8q0 -27 -30 -27z" />
    <glyph glyph-name="uni0309" unicode="&#x309;" horiz-adv-x="0" 
d="M-76 715v29h130q34 0 34 -27q0 -17 -35 -69l-43 -65l-23 12l72 120h-135z" />
    <glyph glyph-name="uni030A" unicode="&#x30a;" horiz-adv-x="0" 
d="M0 586q-43 0 -69.5 27t-26.5 70q0 42 26.5 69t69.5 27t69.5 -27t26.5 -69q0 -43 -26.5 -70t-69.5 -27zM0 611q31 0 49 18t18 47v13q0 30 -18 47.5t-49 17.5t-49 -17.5t-18 -47.5v-13q0 -29 18 -47t49 -18z" />
    <glyph glyph-name="uni030B" unicode="&#x30b;" horiz-adv-x="0" 
d="M35 740l-113 -153l-23 13l105 157zM195 740l-113 -153l-23 13l105 157z" />
    <glyph glyph-name="uni030C" unicode="&#x30c;" horiz-adv-x="0" 
d="M21 602h-42l-124 135l21 16l124 -124l124 124l21 -16z" />
    <glyph glyph-name="uni0312" unicode="&#x312;" horiz-adv-x="0" 
d="M-1 598q-28 0 -28 28v11q0 28 14 60.5t34 54.5h28q-36 -38 -47 -92q30 -1 30 -26v-8q0 -28 -31 -28z" />
    <glyph glyph-name="uni0315" unicode="&#x315;" horiz-adv-x="0" 
d="M56 740l-31 -178h-25l15 178h41z" />
    <glyph glyph-name="uni031B" unicode="&#x31b;" horiz-adv-x="0" 
d="M38 620v-101q0 -37 -37 -37h-76v26h81v112h32z" />
    <glyph glyph-name="uni0323" unicode="&#x323;" horiz-adv-x="0" 
d="M0 -142q-30 0 -30 27v8q0 27 30 27t30 -27v-8q0 -27 -30 -27z" />
    <glyph glyph-name="uni0326" unicode="&#x326;" horiz-adv-x="0" 
d="M1 -66q29 0 29 -28v-11q0 -28 -14 -60.5t-35 -54.5h-27q38 42 46 92q-30 1 -30 26v8q0 28 31 28z" />
    <glyph glyph-name="uni0327" unicode="&#x327;" horiz-adv-x="0" 
d="M10 -203q-61 0 -86 34l19 20q23 -28 67 -28q26 0 41.5 12t15.5 35q0 41 -63 45l-35 2l21 90h25l-18 -77l2 -2q15 3 32 3q30 0 49 -16.5t19 -43.5q0 -32 -24.5 -53t-64.5 -21z" />
    <glyph glyph-name="uni0328" unicode="&#x328;" horiz-adv-x="0" 
d="M-64 -203q-36 0 -59 18t-23 51q0 67 115 136l-5 12l28 3l7 -17q-65 -45 -89.5 -72t-24.5 -58q0 -47 52 -47q38 0 57 25l21 -18q-24 -33 -79 -33z" />
    <glyph glyph-name="pi" unicode="&#x3c0;" horiz-adv-x="572" 
d="M447 477v-446h93v-31h-86q-42 0 -42 42v435h-262v-477h-35v477h-93v31h518v-31h-93z" />
    <glyph glyph-name="uni0E3F" unicode="&#xe3f;" horiz-adv-x="614" 
d="M316 21v-103h-31v103h-181v656h181v103h31v-103h39q78 0 121 -43.5t43 -119.5q0 -116 -101 -144v-3q62 -10 97 -52.5t35 -112.5q0 -82 -47 -131.5t-129 -49.5h-58zM141 380h144v264h-144v-264zM316 644v-264h39q61 0 93 31.5t32 80.5v40q0 49 -31.5 80.5t-93.5 31.5h-39z
M141 54h144v294h-144v-294zM316 348v-294h53q68 0 105 36t37 91v41q0 54 -37 90t-105 36h-53z" />
    <glyph glyph-name="Wgrave" unicode="&#x1e80;" horiz-adv-x="877" 
d="M447 764l-113 154l32 17l105 -158zM255 0h-45l-182 698h39l166 -650h3l178 650h48l178 -650h3l168 650h38l-184 -698h-46l-180 657h-3z" />
    <glyph glyph-name="wgrave" unicode="&#x1e81;" horiz-adv-x="735" 
d="M379 587l-113 153l32 18l105 -158zM184 0l-150 508h36l135 -472h3l143 472h34l144 -472h3l135 472h34l-150 -508h-43l-139 456h-3l-139 -456h-43z" />
    <glyph glyph-name="Wacute" unicode="&#x1e82;" horiz-adv-x="877" 
d="M537 918l-113 -154l-24 13l105 158zM255 0h-45l-182 698h39l166 -650h3l178 650h48l178 -650h3l168 650h38l-184 -698h-46l-180 657h-3z" />
    <glyph glyph-name="wacute" unicode="&#x1e83;" horiz-adv-x="735" 
d="M469 740l-113 -153l-24 13l105 158zM184 0l-150 508h36l135 -472h3l143 472h34l144 -472h3l135 472h34l-150 -508h-43l-139 456h-3l-139 -456h-43z" />
    <glyph glyph-name="Wdieresis" unicode="&#x1e84;" horiz-adv-x="877" 
d="M345 812q-30 0 -30 27v8q0 27 30 27q29 0 29 -27v-8q0 -27 -29 -27zM527 812q-29 0 -29 27v8q0 27 29 27q30 0 30 -27v-8q0 -27 -30 -27zM255 0h-45l-182 698h39l166 -650h3l178 650h48l178 -650h3l168 650h38l-184 -698h-46l-180 657h-3z" />
    <glyph glyph-name="wdieresis" unicode="&#x1e85;" horiz-adv-x="735" 
d="M277 636q-30 0 -30 27v8q0 27 30 27q29 0 29 -27v-8q0 -27 -29 -27zM459 636q-29 0 -29 27v8q0 27 29 27q30 0 30 -27v-8q0 -27 -30 -27zM184 0l-150 508h36l135 -472h3l143 472h34l144 -472h3l135 472h34l-150 -508h-43l-139 456h-3l-139 -456h-43z" />
    <glyph glyph-name="uni1E9E" unicode="&#x1e9e;" horiz-adv-x="685" 
d="M630 193q0 -100 -54 -152.5t-147 -52.5q-123 0 -191 91l28 22q61 -81 163 -81q73 0 117.5 39.5t44.5 112.5v39q0 157 -196 157h-41v33l193 264h-406v-665h-37v698h481v-36l-190 -259v-4q235 -1 235 -206z" />
    <glyph glyph-name="uni1EA0" unicode="&#x1ea0;" horiz-adv-x="610" 
d="M310 -142q-30 0 -30 27v8q0 27 30 27t30 -27v-8q0 -27 -30 -27zM580 0h-39l-81 227h-311l-81 -227h-38l251 698h48zM450 259l-144 403h-4l-143 -403h291z" />
    <glyph glyph-name="uni1EA1" unicode="&#x1ea1;" horiz-adv-x="522" 
d="M229 -142q-30 0 -30 27v8q0 27 30 27t30 -27v-8q0 -27 -30 -27zM500 0h-69q-41 0 -43 42v37h-4q-42 -91 -162 -91q-79 0 -122 38t-43 107q0 147 197 147h133v68q0 141 -139 141q-107 0 -148 -90l-25 17q47 104 174 104q84 0 128.5 -43.5t44.5 -124.5v-321h78v-31zM225 19
q69 0 115.5 34t46.5 95v104h-133q-160 0 -160 -104v-28q0 -48 36 -74.5t95 -26.5z" />
    <glyph glyph-name="uni1EA2" unicode="&#x1ea2;" horiz-adv-x="610" 
d="M228 893v28h130q34 0 34 -27q0 -16 -35 -68l-43 -65l-23 11l72 121h-135zM580 0h-39l-81 227h-311l-81 -227h-38l251 698h48zM450 259l-144 403h-4l-143 -403h291z" />
    <glyph glyph-name="uni1EA3" unicode="&#x1ea3;" horiz-adv-x="522" 
d="M174 715v29h130q34 0 34 -27q0 -17 -35 -69l-43 -65l-23 12l72 120h-135zM500 0h-69q-41 0 -43 42v37h-4q-42 -91 -162 -91q-79 0 -122 38t-43 107q0 147 197 147h133v68q0 141 -139 141q-107 0 -148 -90l-25 17q47 104 174 104q84 0 128.5 -43.5t44.5 -124.5v-321h78
v-31zM225 19q69 0 115.5 34t46.5 95v104h-133q-160 0 -160 -104v-28q0 -48 36 -74.5t95 -26.5z" />
    <glyph glyph-name="uni1EA4" unicode="&#x1ea4;" horiz-adv-x="610" 
d="M540 1029l-113 -154l-23 13l105 158zM283 915h42l124 -133l-21 -16l-124 124l-124 -124l-21 16zM580 0h-39l-81 227h-311l-81 -227h-38l251 698h48zM450 259l-144 403h-4l-143 -403h291z" />
    <glyph glyph-name="uni1EA5" unicode="&#x1ea5;" horiz-adv-x="522" 
d="M486 851l-113 -154l-23 13l105 158zM229 737h42l124 -133l-21 -15l-124 123l-124 -123l-21 15zM500 0h-69q-41 0 -43 42v37h-4q-42 -91 -162 -91q-79 0 -122 38t-43 107q0 147 197 147h133v68q0 141 -139 141q-107 0 -148 -90l-25 17q47 104 174 104q84 0 128.5 -43.5
t44.5 -124.5v-321h78v-31zM225 19q69 0 115.5 34t46.5 95v104h-133q-160 0 -160 -104v-28q0 -48 36 -74.5t95 -26.5z" />
    <glyph glyph-name="uni1EA6" unicode="&#x1ea6;" horiz-adv-x="610" 
d="M181 875l-113 154l31 17l105 -158zM283 915h42l124 -133l-21 -16l-124 124l-124 -124l-21 16zM580 0h-39l-81 227h-311l-81 -227h-38l251 698h48zM450 259l-144 403h-4l-143 -403h291z" />
    <glyph glyph-name="uni1EA7" unicode="&#x1ea7;" horiz-adv-x="522" 
d="M127 697l-113 154l31 17l105 -158zM229 737h42l124 -133l-21 -15l-124 123l-124 -123l-21 15zM500 0h-69q-41 0 -43 42v37h-4q-42 -91 -162 -91q-79 0 -122 38t-43 107q0 147 197 147h133v68q0 141 -139 141q-107 0 -148 -90l-25 17q47 104 174 104q84 0 128.5 -43.5
t44.5 -124.5v-321h78v-31zM225 19q69 0 115.5 34t46.5 95v104h-133q-160 0 -160 -104v-28q0 -48 36 -74.5t95 -26.5z" />
    <glyph glyph-name="uni1EA8" unicode="&#x1ea8;" horiz-adv-x="610" 
d="M346 1005v27h130q34 0 34 -26q0 -17 -35 -69l-43 -65l-23 11l73 122h-136zM283 915h42l124 -133l-21 -16l-124 124l-124 -124l-21 16zM580 0h-39l-81 227h-311l-81 -227h-38l251 698h48zM450 259l-144 403h-4l-143 -403h291z" />
    <glyph glyph-name="uni1EA9" unicode="&#x1ea9;" horiz-adv-x="522" 
d="M292 827v28h130q34 0 34 -27q0 -17 -35 -69l-43 -65l-23 12l73 121h-136zM229 737h42l124 -133l-21 -15l-124 123l-124 -123l-21 15zM500 0h-69q-41 0 -43 42v37h-4q-42 -91 -162 -91q-79 0 -122 38t-43 107q0 147 197 147h133v68q0 141 -139 141q-107 0 -148 -90l-25 17
q47 104 174 104q84 0 128.5 -43.5t44.5 -124.5v-321h78v-31zM225 19q69 0 115.5 34t46.5 95v104h-133q-160 0 -160 -104v-28q0 -48 36 -74.5t95 -26.5z" />
    <glyph glyph-name="uni1EAA" unicode="&#x1eaa;" horiz-adv-x="610" 
d="M233 1033q33 0 77 -29q41 -26 67 -26q32 0 64 32l16 -18q-34 -42 -82 -42q-33 0 -77 29q-41 26 -67 26q-32 0 -64 -32l-16 18q34 42 82 42zM283 915h42l124 -133l-21 -16l-124 124l-124 -124l-21 16zM580 0h-39l-81 227h-311l-81 -227h-38l251 698h48zM450 259l-144 403
h-4l-143 -403h291z" />
    <glyph glyph-name="uni1EAB" unicode="&#x1eab;" horiz-adv-x="522" 
d="M179 856q31 0 77 -29q42 -25 67 -25q33 0 64 31l16 -17q-35 -43 -82 -43q-31 0 -77 29q-42 25 -67 25q-33 0 -64 -31l-16 17q35 43 82 43zM229 737h42l124 -133l-21 -15l-124 123l-124 -123l-21 15zM500 0h-69q-41 0 -43 42v37h-4q-42 -91 -162 -91q-79 0 -122 38
t-43 107q0 147 197 147h133v68q0 141 -139 141q-107 0 -148 -90l-25 17q47 104 174 104q84 0 128.5 -43.5t44.5 -124.5v-321h78v-31zM225 19q69 0 115.5 34t46.5 95v104h-133q-160 0 -160 -104v-28q0 -48 36 -74.5t95 -26.5z" />
    <glyph glyph-name="uni1EAC" unicode="&#x1eac;" horiz-adv-x="610" 
d="M310 -142q-30 0 -30 27v8q0 27 30 27t30 -27v-8q0 -27 -30 -27zM283 926h42l124 -136l-21 -15l-124 124l-124 -124l-21 15zM580 0h-39l-81 227h-311l-81 -227h-38l251 698h48zM450 259l-144 403h-4l-143 -403h291z" />
    <glyph glyph-name="uni1EAD" unicode="&#x1ead;" horiz-adv-x="522" 
d="M229 -142q-30 0 -30 27v8q0 27 30 27t30 -27v-8q0 -27 -30 -27zM229 748h42l124 -135l-21 -16l-124 125l-124 -125l-21 16zM500 0h-69q-41 0 -43 42v37h-4q-42 -91 -162 -91q-79 0 -122 38t-43 107q0 147 197 147h133v68q0 141 -139 141q-107 0 -148 -90l-25 17
q47 104 174 104q84 0 128.5 -43.5t44.5 -124.5v-321h78v-31zM225 19q69 0 115.5 34t46.5 95v104h-133q-160 0 -160 -104v-28q0 -48 36 -74.5t95 -26.5z" />
    <glyph glyph-name="uni1EAE" unicode="&#x1eae;" horiz-adv-x="610" 
d="M304 770q-53 0 -82 27t-55 84l23 11l17 -30q22 -37 42 -50.5t55 -13.5t55 13.5t42 50.5l17 30l23 -11q-26 -57 -55 -84t-82 -27zM411 1029l-113 -154l-23 13l105 158zM580 0h-39l-81 227h-311l-81 -227h-38l251 698h48zM450 259l-144 403h-4l-143 -403h291z" />
    <glyph glyph-name="uni1EAF" unicode="&#x1eaf;" horiz-adv-x="522" 
d="M250 592q-53 0 -82 27t-55 84l23 11l17 -28q22 -38 42.5 -52t54.5 -14t54.5 14t42.5 52l17 28l23 -11q-26 -57 -55 -84t-82 -27zM357 851l-113 -154l-23 13l105 158zM500 0h-69q-41 0 -43 42v37h-4q-42 -91 -162 -91q-79 0 -122 38t-43 107q0 147 197 147h133v68
q0 141 -139 141q-107 0 -148 -90l-25 17q47 104 174 104q84 0 128.5 -43.5t44.5 -124.5v-321h78v-31zM225 19q69 0 115.5 34t46.5 95v104h-133q-160 0 -160 -104v-28q0 -48 36 -74.5t95 -26.5z" />
    <glyph glyph-name="uni1EB0" unicode="&#x1eb0;" horiz-adv-x="610" 
d="M304 770q-53 0 -82 27t-55 84l23 11l17 -30q22 -37 42 -50.5t55 -13.5t55 13.5t42 50.5l17 30l23 -11q-26 -57 -55 -84t-82 -27zM310 875l-113 154l31 17l105 -158zM580 0h-39l-81 227h-311l-81 -227h-38l251 698h48zM450 259l-144 403h-4l-143 -403h291z" />
    <glyph glyph-name="uni1EB1" unicode="&#x1eb1;" horiz-adv-x="522" 
d="M250 592q-53 0 -82 27t-55 84l23 11l17 -28q22 -38 42.5 -52t54.5 -14t54.5 14t42.5 52l17 28l23 -11q-26 -57 -55 -84t-82 -27zM256 697l-113 154l31 17l105 -158zM500 0h-69q-41 0 -43 42v37h-4q-42 -91 -162 -91q-79 0 -122 38t-43 107q0 147 197 147h133v68
q0 141 -139 141q-107 0 -148 -90l-25 17q47 104 174 104q84 0 128.5 -43.5t44.5 -124.5v-321h78v-31zM225 19q69 0 115.5 34t46.5 95v104h-133q-160 0 -160 -104v-28q0 -48 36 -74.5t95 -26.5z" />
    <glyph glyph-name="uni1EB2" unicode="&#x1eb2;" horiz-adv-x="610" 
d="M226 1005v27h127q34 0 34 -26q0 -17 -35 -69l-43 -65l-23 11l73 122h-133zM304 770q-53 0 -82 27t-55 84l23 11l17 -30q22 -37 42 -50.5t55 -13.5t55 13.5t42 50.5l17 30l23 -11q-26 -57 -55 -84t-82 -27zM580 0h-39l-81 227h-311l-81 -227h-38l251 698h48zM450 259
l-144 403h-4l-143 -403h291z" />
    <glyph glyph-name="uni1EB3" unicode="&#x1eb3;" horiz-adv-x="522" 
d="M250 592q-53 0 -82 27t-55 84l23 11l17 -28q22 -38 42.5 -52t54.5 -14t54.5 14t42.5 52l17 28l23 -11q-26 -57 -55 -84t-82 -27zM172 827v28h127q34 0 34 -27q0 -17 -35 -69l-43 -65l-23 12l73 121h-133zM500 0h-69q-41 0 -43 42v37h-4q-42 -91 -162 -91q-79 0 -122 38
t-43 107q0 147 197 147h133v68q0 141 -139 141q-107 0 -148 -90l-25 17q47 104 174 104q84 0 128.5 -43.5t44.5 -124.5v-321h78v-31zM225 19q69 0 115.5 34t46.5 95v104h-133q-160 0 -160 -104v-28q0 -48 36 -74.5t95 -26.5z" />
    <glyph glyph-name="uni1EB4" unicode="&#x1eb4;" horiz-adv-x="610" 
d="M375 943q-31 0 -77 29q-42 25 -67 25q-33 0 -64 -31l-16 17q35 43 82 43q31 0 77 -29q42 -25 67 -25q33 0 64 31l16 -17q-35 -43 -82 -43zM304 770q-53 0 -82 27t-55 84l23 11l17 -30q22 -37 42 -50.5t55 -13.5t55 13.5t42 50.5l17 30l23 -11q-26 -57 -55 -84t-82 -27z
M580 0h-39l-81 227h-311l-81 -227h-38l251 698h48zM450 259l-144 403h-4l-143 -403h291z" />
    <glyph glyph-name="uni1EB5" unicode="&#x1eb5;" horiz-adv-x="522" 
d="M250 592q-53 0 -82 27t-55 84l23 11l17 -28q22 -38 42.5 -52t54.5 -14t54.5 14t42.5 52l17 28l23 -11q-26 -57 -55 -84t-82 -27zM321 765q-31 0 -77 29q-41 26 -67 26q-32 0 -64 -32l-16 18q34 42 82 42q31 0 77 -29q41 -26 67 -26q32 0 64 32l16 -18q-34 -42 -82 -42z
M500 0h-69q-41 0 -43 42v37h-4q-42 -91 -162 -91q-79 0 -122 38t-43 107q0 147 197 147h133v68q0 141 -139 141q-107 0 -148 -90l-25 17q47 104 174 104q84 0 128.5 -43.5t44.5 -124.5v-321h78v-31zM225 19q69 0 115.5 34t46.5 95v104h-133q-160 0 -160 -104v-28
q0 -48 36 -74.5t95 -26.5z" />
    <glyph glyph-name="uni1EB6" unicode="&#x1eb6;" horiz-adv-x="610" 
d="M310 -142q-30 0 -30 27v8q0 27 30 27t30 -27v-8q0 -27 -30 -27zM304 781q-28 0 -48.5 8t-37 26.5t-26.5 36t-25 48.5l23 11l17 -29q24 -42 43.5 -56.5t53.5 -14.5t53.5 14.5t43.5 56.5l17 29l23 -11q-15 -31 -25 -48.5t-26.5 -36t-37 -26.5t-48.5 -8zM580 0h-39l-81 227
h-311l-81 -227h-38l251 698h48zM450 259l-144 403h-4l-143 -403h291z" />
    <glyph glyph-name="uni1EB7" unicode="&#x1eb7;" horiz-adv-x="522" 
d="M229 -142q-30 0 -30 27v8q0 27 30 27t30 -27v-8q0 -27 -30 -27zM250 604q-28 0 -48.5 8t-37 26.5t-26.5 36t-25 48.5l23 10l17 -28q24 -42 43.5 -57t53.5 -15t53.5 15t43.5 57l17 28l23 -10q-15 -31 -25 -48.5t-26.5 -36t-37 -26.5t-48.5 -8zM500 0h-69q-41 0 -43 42v37
h-4q-42 -91 -162 -91q-79 0 -122 38t-43 107q0 147 197 147h133v68q0 141 -139 141q-107 0 -148 -90l-25 17q47 104 174 104q84 0 128.5 -43.5t44.5 -124.5v-321h78v-31zM225 19q69 0 115.5 34t46.5 95v104h-133q-160 0 -160 -104v-28q0 -48 36 -74.5t95 -26.5z" />
    <glyph glyph-name="uni1EB8" unicode="&#x1eb8;" horiz-adv-x="566" 
d="M300 -142q-30 0 -30 27v8q0 27 30 27t30 -27v-8q0 -27 -30 -27zM496 0h-392v698h392v-33h-355v-280h341v-33h-341v-319h355v-33z" />
    <glyph glyph-name="uni1EB9" unicode="&#x1eb9;" horiz-adv-x="537" 
d="M275 -142q-30 0 -30 27v8q0 27 30 27t30 -27v-8q0 -27 -30 -27zM275 -12q-102 0 -160 69.5t-58 196.5t56.5 196.5t157.5 69.5q94 0 151.5 -69t57.5 -183v-16h-386v-27q0 -94 48 -150t133 -56q121 0 167 116l27 -15q-23 -62 -73 -97t-121 -35zM271 489q-83 0 -130 -55.5
t-47 -149.5v-4h348v6q0 91 -47 147t-124 56z" />
    <glyph glyph-name="uni1EBA" unicode="&#x1eba;" horiz-adv-x="566" 
d="M224 893v28h130q34 0 34 -27q0 -16 -35 -68l-43 -65l-23 11l72 121h-135zM496 0h-392v698h392v-33h-355v-280h341v-33h-341v-319h355v-33z" />
    <glyph glyph-name="uni1EBB" unicode="&#x1ebb;" horiz-adv-x="537" 
d="M195 715v29h130q34 0 34 -27q0 -17 -35 -69l-43 -65l-23 12l72 120h-135zM275 -12q-102 0 -160 69.5t-58 196.5t56.5 196.5t157.5 69.5q94 0 151.5 -69t57.5 -183v-16h-386v-27q0 -94 48 -150t133 -56q121 0 167 116l27 -15q-23 -62 -73 -97t-121 -35zM271 489
q-83 0 -130 -55.5t-47 -149.5v-4h348v6q0 91 -47 147t-124 56z" />
    <glyph glyph-name="uni1EBC" unicode="&#x1ebc;" horiz-adv-x="566" 
d="M371 802q-30 0 -77 29q-42 25 -67 25q-33 0 -64 -31l-17 18q37 43 83 43q30 0 77 -29q42 -25 67 -25q33 0 64 31l17 -18q-37 -43 -83 -43zM496 0h-392v698h392v-33h-355v-280h341v-33h-341v-319h355v-33z" />
    <glyph glyph-name="uni1EBD" unicode="&#x1ebd;" horiz-adv-x="537" 
d="M342 624q-32 0 -77 29q-41 26 -67 26q-32 0 -64 -32l-17 19q36 42 83 42q32 0 77 -29q41 -26 67 -26q32 0 64 32l17 -19q-36 -42 -83 -42zM275 -12q-102 0 -160 69.5t-58 196.5t56.5 196.5t157.5 69.5q94 0 151.5 -69t57.5 -183v-16h-386v-27q0 -94 48 -150t133 -56
q121 0 167 116l27 -15q-23 -62 -73 -97t-121 -35zM271 489q-83 0 -130 -55.5t-47 -149.5v-4h348v6q0 91 -47 147t-124 56z" />
    <glyph glyph-name="uni1EBE" unicode="&#x1ebe;" horiz-adv-x="566" 
d="M536 1029l-113 -154l-23 13l105 158zM279 915h42l124 -133l-21 -16l-124 124l-124 -124l-21 16zM496 0h-392v698h392v-33h-355v-280h341v-33h-341v-319h355v-33z" />
    <glyph glyph-name="uni1EBF" unicode="&#x1ebf;" horiz-adv-x="537" 
d="M507 851l-113 -154l-23 13l105 158zM250 737h42l124 -133l-21 -15l-124 123l-124 -123l-21 15zM275 -12q-102 0 -160 69.5t-58 196.5t56.5 196.5t157.5 69.5q94 0 151.5 -69t57.5 -183v-16h-386v-27q0 -94 48 -150t133 -56q121 0 167 116l27 -15q-23 -62 -73 -97
t-121 -35zM271 489q-83 0 -130 -55.5t-47 -149.5v-4h348v6q0 91 -47 147t-124 56z" />
    <glyph glyph-name="uni1EC0" unicode="&#x1ec0;" horiz-adv-x="566" 
d="M177 875l-113 154l31 17l105 -158zM279 915h42l124 -133l-21 -16l-124 124l-124 -124l-21 16zM496 0h-392v698h392v-33h-355v-280h341v-33h-341v-319h355v-33z" />
    <glyph glyph-name="uni1EC1" unicode="&#x1ec1;" horiz-adv-x="537" 
d="M148 697l-113 154l31 17l105 -158zM250 737h42l124 -133l-21 -15l-124 123l-124 -123l-21 15zM275 -12q-102 0 -160 69.5t-58 196.5t56.5 196.5t157.5 69.5q94 0 151.5 -69t57.5 -183v-16h-386v-27q0 -94 48 -150t133 -56q121 0 167 116l27 -15q-23 -62 -73 -97t-121 -35
zM271 489q-83 0 -130 -55.5t-47 -149.5v-4h348v6q0 91 -47 147t-124 56z" />
    <glyph glyph-name="uni1EC2" unicode="&#x1ec2;" horiz-adv-x="566" 
d="M342 1005v27h130q34 0 34 -26q0 -17 -35 -69l-43 -65l-23 11l73 122h-136zM279 915h42l124 -133l-21 -16l-124 124l-124 -124l-21 16zM496 0h-392v698h392v-33h-355v-280h341v-33h-341v-319h355v-33z" />
    <glyph glyph-name="uni1EC3" unicode="&#x1ec3;" horiz-adv-x="537" 
d="M313 827v28h130q34 0 34 -27q0 -17 -35 -69l-43 -65l-23 12l73 121h-136zM250 737h42l124 -133l-21 -15l-124 123l-124 -123l-21 15zM275 -12q-102 0 -160 69.5t-58 196.5t56.5 196.5t157.5 69.5q94 0 151.5 -69t57.5 -183v-16h-386v-27q0 -94 48 -150t133 -56
q121 0 167 116l27 -15q-23 -62 -73 -97t-121 -35zM271 489q-83 0 -130 -55.5t-47 -149.5v-4h348v6q0 91 -47 147t-124 56z" />
    <glyph glyph-name="uni1EC4" unicode="&#x1ec4;" horiz-adv-x="566" 
d="M229 1033q33 0 77 -29q41 -26 67 -26q32 0 64 32l16 -18q-34 -42 -82 -42q-33 0 -77 29q-41 26 -67 26q-32 0 -64 -32l-16 18q34 42 82 42zM279 915h42l124 -133l-21 -16l-124 124l-124 -124l-21 16zM496 0h-392v698h392v-33h-355v-280h341v-33h-341v-319h355v-33z" />
    <glyph glyph-name="uni1EC5" unicode="&#x1ec5;" horiz-adv-x="537" 
d="M200 856q31 0 77 -29q42 -25 67 -25q33 0 64 31l16 -17q-35 -43 -82 -43q-31 0 -77 29q-42 25 -67 25q-33 0 -64 -31l-16 17q35 43 82 43zM250 737h42l124 -133l-21 -15l-124 123l-124 -123l-21 15zM275 -12q-102 0 -160 69.5t-58 196.5t56.5 196.5t157.5 69.5
q94 0 151.5 -69t57.5 -183v-16h-386v-27q0 -94 48 -150t133 -56q121 0 167 116l27 -15q-23 -62 -73 -97t-121 -35zM271 489q-83 0 -130 -55.5t-47 -149.5v-4h348v6q0 91 -47 147t-124 56z" />
    <glyph glyph-name="uni1EC6" unicode="&#x1ec6;" horiz-adv-x="566" 
d="M300 -142q-30 0 -30 27v8q0 27 30 27t30 -27v-8q0 -27 -30 -27zM279 926h42l124 -136l-21 -15l-124 124l-124 -124l-21 15zM496 0h-392v698h392v-33h-355v-280h341v-33h-341v-319h355v-33z" />
    <glyph glyph-name="uni1EC7" unicode="&#x1ec7;" horiz-adv-x="537" 
d="M275 -142q-30 0 -30 27v8q0 27 30 27t30 -27v-8q0 -27 -30 -27zM250 748h42l124 -135l-21 -16l-124 125l-124 -125l-21 16zM275 -12q-102 0 -160 69.5t-58 196.5t56.5 196.5t157.5 69.5q94 0 151.5 -69t57.5 -183v-16h-386v-27q0 -94 48 -150t133 -56q121 0 167 116
l27 -15q-23 -62 -73 -97t-121 -35zM271 489q-83 0 -130 -55.5t-47 -149.5v-4h348v6q0 91 -47 147t-124 56z" />
    <glyph glyph-name="uni1EC8" unicode="&#x1ec8;" horiz-adv-x="379" 
d="M113 893v28h130q34 0 34 -27q0 -16 -35 -68l-43 -65l-23 11l72 121h-135zM313 0h-247v31h105v636h-105v31h247v-31h-105v-636h105v-31z" />
    <glyph glyph-name="uni1EC9" unicode="&#x1ec9;" horiz-adv-x="235" 
d="M41 715v29h130q34 0 34 -27q0 -17 -35 -69l-43 -65l-23 12l72 120h-135zM135 0h-35v508h35v-508z" />
    <glyph glyph-name="uni1ECA" unicode="&#x1eca;" horiz-adv-x="379" 
d="M189 -142q-30 0 -30 27v8q0 27 30 27t30 -27v-8q0 -27 -30 -27zM313 0h-247v31h105v636h-105v31h247v-31h-105v-636h105v-31z" />
    <glyph glyph-name="uni1ECB" unicode="&#x1ecb;" horiz-adv-x="235" 
d="M118 -142q-30 0 -30 27v8q0 27 30 27t30 -27v-8q0 -27 -30 -27zM118 665q-30 0 -30 26v9q0 26 29 26q30 0 30 -26v-9q0 -26 -29 -26zM100 0v508h35v-508h-35z" />
    <glyph glyph-name="uni1ECC" unicode="&#x1ecc;" horiz-adv-x="686" 
d="M343 -142q-30 0 -30 27v8q0 27 30 27t30 -27v-8q0 -27 -30 -27zM343 -12q-132 0 -204 92t-72 269t72 269t204 92t204 -92t72 -269t-72 -269t-204 -92zM343 21q110 0 173 77.5t63 220.5v60q0 143 -63 220.5t-173 77.5t-173 -77.5t-63 -220.5v-60q0 -143 63 -220.5
t173 -77.5z" />
    <glyph glyph-name="uni1ECD" unicode="&#x1ecd;" horiz-adv-x="544" 
d="M272 -142q-30 0 -30 27v8q0 27 30 27t30 -27v-8q0 -27 -30 -27zM272 -12q-101 0 -158 69t-57 197t57 197t158 69t158 -69t57 -197t-57 -197t-158 -69zM272 19q84 0 130.5 55.5t46.5 152.5v54q0 98 -46.5 153t-130.5 55t-130.5 -55t-46.5 -153v-54q0 -97 46.5 -152.5
t130.5 -55.5z" />
    <glyph glyph-name="uni1ECE" unicode="&#x1ece;" horiz-adv-x="686" 
d="M267 893v28h130q34 0 34 -27q0 -16 -35 -68l-43 -65l-23 11l72 121h-135zM343 -12q-132 0 -204 92t-72 269t72 269t204 92t204 -92t72 -269t-72 -269t-204 -92zM343 21q110 0 173 77.5t63 220.5v60q0 143 -63 220.5t-173 77.5t-173 -77.5t-63 -220.5v-60
q0 -143 63 -220.5t173 -77.5z" />
    <glyph glyph-name="uni1ECF" unicode="&#x1ecf;" horiz-adv-x="544" 
d="M196 715v29h130q34 0 34 -27q0 -17 -35 -69l-43 -65l-23 12l72 120h-135zM272 -12q-101 0 -158 69t-57 197t57 197t158 69t158 -69t57 -197t-57 -197t-158 -69zM272 19q84 0 130.5 55.5t46.5 152.5v54q0 98 -46.5 153t-130.5 55t-130.5 -55t-46.5 -153v-54
q0 -97 46.5 -152.5t130.5 -55.5z" />
    <glyph glyph-name="uni1ED0" unicode="&#x1ed0;" horiz-adv-x="686" 
d="M579 1029l-113 -154l-23 13l105 158zM322 915h42l124 -133l-21 -16l-124 124l-124 -124l-21 16zM343 -12q-132 0 -204 92t-72 269t72 269t204 92t204 -92t72 -269t-72 -269t-204 -92zM343 21q110 0 173 77.5t63 220.5v60q0 143 -63 220.5t-173 77.5t-173 -77.5
t-63 -220.5v-60q0 -143 63 -220.5t173 -77.5z" />
    <glyph glyph-name="uni1ED1" unicode="&#x1ed1;" horiz-adv-x="544" 
d="M508 851l-113 -154l-23 13l105 158zM251 737h42l124 -133l-21 -15l-124 123l-124 -123l-21 15zM272 -12q-101 0 -158 69t-57 197t57 197t158 69t158 -69t57 -197t-57 -197t-158 -69zM272 19q84 0 130.5 55.5t46.5 152.5v54q0 98 -46.5 153t-130.5 55t-130.5 -55
t-46.5 -153v-54q0 -97 46.5 -152.5t130.5 -55.5z" />
    <glyph glyph-name="uni1ED2" unicode="&#x1ed2;" horiz-adv-x="686" 
d="M220 875l-113 154l31 17l105 -158zM322 915h42l124 -133l-21 -16l-124 124l-124 -124l-21 16zM343 -12q-132 0 -204 92t-72 269t72 269t204 92t204 -92t72 -269t-72 -269t-204 -92zM343 21q110 0 173 77.5t63 220.5v60q0 143 -63 220.5t-173 77.5t-173 -77.5t-63 -220.5
v-60q0 -143 63 -220.5t173 -77.5z" />
    <glyph glyph-name="uni1ED3" unicode="&#x1ed3;" horiz-adv-x="544" 
d="M149 697l-113 154l31 17l105 -158zM251 737h42l124 -133l-21 -15l-124 123l-124 -123l-21 15zM272 -12q-101 0 -158 69t-57 197t57 197t158 69t158 -69t57 -197t-57 -197t-158 -69zM272 19q84 0 130.5 55.5t46.5 152.5v54q0 98 -46.5 153t-130.5 55t-130.5 -55
t-46.5 -153v-54q0 -97 46.5 -152.5t130.5 -55.5z" />
    <glyph glyph-name="uni1ED4" unicode="&#x1ed4;" horiz-adv-x="686" 
d="M385 1005v27h130q34 0 34 -26q0 -17 -35 -69l-43 -65l-23 11l73 122h-136zM322 915h42l124 -133l-21 -16l-124 124l-124 -124l-21 16zM343 -12q-132 0 -204 92t-72 269t72 269t204 92t204 -92t72 -269t-72 -269t-204 -92zM343 21q110 0 173 77.5t63 220.5v60
q0 143 -63 220.5t-173 77.5t-173 -77.5t-63 -220.5v-60q0 -143 63 -220.5t173 -77.5z" />
    <glyph glyph-name="uni1ED5" unicode="&#x1ed5;" horiz-adv-x="544" 
d="M314 827v28h130q34 0 34 -27q0 -17 -35 -69l-43 -65l-23 12l73 121h-136zM251 737h42l124 -133l-21 -15l-124 123l-124 -123l-21 15zM272 -12q-101 0 -158 69t-57 197t57 197t158 69t158 -69t57 -197t-57 -197t-158 -69zM272 19q84 0 130.5 55.5t46.5 152.5v54
q0 98 -46.5 153t-130.5 55t-130.5 -55t-46.5 -153v-54q0 -97 46.5 -152.5t130.5 -55.5z" />
    <glyph glyph-name="uni1ED6" unicode="&#x1ed6;" horiz-adv-x="686" 
d="M272 1033q34 0 77 -29q41 -26 67 -26q32 0 64 32l16 -18q-34 -42 -82 -42q-34 0 -77 29q-41 26 -67 26q-32 0 -64 -32l-16 18q34 42 82 42zM322 915h42l124 -133l-21 -16l-124 124l-124 -124l-21 16zM343 -12q-132 0 -204 92t-72 269t72 269t204 92t204 -92t72 -269
t-72 -269t-204 -92zM343 21q110 0 173 77.5t63 220.5v60q0 143 -63 220.5t-173 77.5t-173 -77.5t-63 -220.5v-60q0 -143 63 -220.5t173 -77.5z" />
    <glyph glyph-name="uni1ED7" unicode="&#x1ed7;" horiz-adv-x="544" 
d="M201 856q31 0 77 -29q42 -25 67 -25q33 0 64 31l16 -17q-35 -43 -82 -43q-31 0 -77 29q-42 25 -67 25q-33 0 -64 -31l-16 17q35 43 82 43zM251 737h42l124 -133l-21 -15l-124 123l-124 -123l-21 15zM272 -12q-101 0 -158 69t-57 197t57 197t158 69t158 -69t57 -197
t-57 -197t-158 -69zM272 19q84 0 130.5 55.5t46.5 152.5v54q0 98 -46.5 153t-130.5 55t-130.5 -55t-46.5 -153v-54q0 -97 46.5 -152.5t130.5 -55.5z" />
    <glyph glyph-name="uni1ED8" unicode="&#x1ed8;" horiz-adv-x="686" 
d="M343 -142q-30 0 -30 27v8q0 27 30 27t30 -27v-8q0 -27 -30 -27zM322 926h42l124 -136l-21 -15l-124 124l-124 -124l-21 15zM343 -12q-132 0 -204 92t-72 269t72 269t204 92t204 -92t72 -269t-72 -269t-204 -92zM343 21q110 0 173 77.5t63 220.5v60q0 143 -63 220.5
t-173 77.5t-173 -77.5t-63 -220.5v-60q0 -143 63 -220.5t173 -77.5z" />
    <glyph glyph-name="uni1ED9" unicode="&#x1ed9;" horiz-adv-x="544" 
d="M272 -142q-30 0 -30 27v8q0 27 30 27t30 -27v-8q0 -27 -30 -27zM251 748h42l124 -135l-21 -16l-124 125l-124 -125l-21 16zM272 -12q-101 0 -158 69t-57 197t57 197t158 69t158 -69t57 -197t-57 -197t-158 -69zM272 19q84 0 130.5 55.5t46.5 152.5v54q0 98 -46.5 153
t-130.5 55t-130.5 -55t-46.5 -153v-54q0 -97 46.5 -152.5t130.5 -55.5z" />
    <glyph glyph-name="uni1EDA" unicode="&#x1eda;" horiz-adv-x="686" 
d="M444 918l-113 -154l-24 13l105 158zM589 811h32v-102q0 -37 -37 -37h-96q131 -85 131 -323q0 -177 -72 -269t-204 -92t-204 92t-72 269t72 269t204 92q48 0 87 -12h159v113zM343 21q110 0 173 77.5t63 220.5v60q0 143 -63 220.5t-173 77.5t-173 -77.5t-63 -220.5v-60
q0 -143 63 -220.5t173 -77.5z" />
    <glyph glyph-name="uni1EDB" unicode="&#x1edb;" horiz-adv-x="544" 
d="M373 740l-113 -153l-24 13l105 158zM446 612h33v-92q0 -37 -37 -37h-46q91 -65 91 -229q0 -128 -57 -197t-158 -69t-158 69t-57 197t57 197t158 69q36 0 77 -12h97v104zM272 19q84 0 130.5 55.5t46.5 152.5v54q0 98 -46.5 153t-130.5 55t-130.5 -55t-46.5 -153v-54
q0 -97 46.5 -152.5t130.5 -55.5z" />
    <glyph glyph-name="uni1EDC" unicode="&#x1edc;" horiz-adv-x="686" 
d="M354 764l-113 154l32 17l105 -158zM589 811h32v-102q0 -37 -37 -37h-96q131 -85 131 -323q0 -177 -72 -269t-204 -92t-204 92t-72 269t72 269t204 92q48 0 87 -12h159v113zM343 21q110 0 173 77.5t63 220.5v60q0 143 -63 220.5t-173 77.5t-173 -77.5t-63 -220.5v-60
q0 -143 63 -220.5t173 -77.5z" />
    <glyph glyph-name="uni1EDD" unicode="&#x1edd;" horiz-adv-x="544" 
d="M283 587l-113 153l32 18l105 -158zM446 612h33v-92q0 -37 -37 -37h-46q91 -65 91 -229q0 -128 -57 -197t-158 -69t-158 69t-57 197t57 197t158 69q36 0 77 -12h97v104zM272 19q84 0 130.5 55.5t46.5 152.5v54q0 98 -46.5 153t-130.5 55t-130.5 -55t-46.5 -153v-54
q0 -97 46.5 -152.5t130.5 -55.5z" />
    <glyph glyph-name="uni1EDE" unicode="&#x1ede;" horiz-adv-x="686" 
d="M267 893v28h130q34 0 34 -27q0 -16 -35 -68l-43 -65l-23 11l72 121h-135zM589 811h32v-102q0 -37 -37 -37h-96q131 -85 131 -323q0 -177 -72 -269t-204 -92t-204 92t-72 269t72 269t204 92q48 0 87 -12h159v113zM343 21q110 0 173 77.5t63 220.5v60q0 143 -63 220.5
t-173 77.5t-173 -77.5t-63 -220.5v-60q0 -143 63 -220.5t173 -77.5z" />
    <glyph glyph-name="uni1EDF" unicode="&#x1edf;" horiz-adv-x="544" 
d="M196 715v29h130q34 0 34 -27q0 -17 -35 -69l-43 -65l-23 12l72 120h-135zM446 612h33v-92q0 -37 -37 -37h-46q91 -65 91 -229q0 -128 -57 -197t-158 -69t-158 69t-57 197t57 197t158 69q36 0 77 -12h97v104zM272 19q84 0 130.5 55.5t46.5 152.5v54q0 98 -46.5 153
t-130.5 55t-130.5 -55t-46.5 -153v-54q0 -97 46.5 -152.5t130.5 -55.5z" />
    <glyph glyph-name="uni1EE0" unicode="&#x1ee0;" horiz-adv-x="686" 
d="M416 803q-31 0 -75 28q-40 24 -64 24q-33 0 -63 -31l-17 19q34 42 81 42q31 0 75 -28q40 -24 64 -24q33 0 63 31l17 -19q-34 -42 -81 -42zM589 811h32v-102q0 -37 -37 -37h-96q131 -85 131 -323q0 -177 -72 -269t-204 -92t-204 92t-72 269t72 269t204 92q48 0 87 -12h159
v113zM343 21q110 0 173 77.5t63 220.5v60q0 143 -63 220.5t-173 77.5t-173 -77.5t-63 -220.5v-60q0 -143 63 -220.5t173 -77.5z" />
    <glyph glyph-name="uni1EE1" unicode="&#x1ee1;" horiz-adv-x="544" 
d="M342 625q-31 0 -75 28q-39 25 -64 25q-33 0 -63 -32l-17 19q34 42 81 42q31 0 75 -28q39 -25 64 -25q33 0 63 32l17 -19q-34 -42 -81 -42zM446 612h33v-92q0 -37 -37 -37h-46q91 -65 91 -229q0 -128 -57 -197t-158 -69t-158 69t-57 197t57 197t158 69q36 0 77 -12h97v104
zM272 19q84 0 130.5 55.5t46.5 152.5v54q0 98 -46.5 153t-130.5 55t-130.5 -55t-46.5 -153v-54q0 -97 46.5 -152.5t130.5 -55.5z" />
    <glyph glyph-name="uni1EE2" unicode="&#x1ee2;" horiz-adv-x="686" 
d="M348 -142q-30 0 -30 27v8q0 27 30 27t30 -27v-8q0 -27 -30 -27zM589 811h32v-102q0 -37 -37 -37h-96q131 -85 131 -323q0 -177 -72 -269t-204 -92t-204 92t-72 269t72 269t204 92q48 0 87 -12h159v113zM343 21q110 0 173 77.5t63 220.5v60q0 143 -63 220.5t-173 77.5
t-173 -77.5t-63 -220.5v-60q0 -143 63 -220.5t173 -77.5z" />
    <glyph glyph-name="uni1EE3" unicode="&#x1ee3;" horiz-adv-x="544" 
d="M272 -142q-30 0 -30 27v8q0 27 30 27t30 -27v-8q0 -27 -30 -27zM446 612h33v-92q0 -37 -37 -37h-46q91 -65 91 -229q0 -128 -57 -197t-158 -69t-158 69t-57 197t57 197t158 69q36 0 77 -12h97v104zM272 19q84 0 130.5 55.5t46.5 152.5v54q0 98 -46.5 153t-130.5 55
t-130.5 -55t-46.5 -153v-54q0 -97 46.5 -152.5t130.5 -55.5z" />
    <glyph glyph-name="uni1EE4" unicode="&#x1ee4;" horiz-adv-x="658" 
d="M329 -142q-30 0 -30 27v8q0 27 30 27t30 -27v-8q0 -27 -30 -27zM97 698h37v-430q0 -135 43 -191t152 -56t152 56t43 191v430h37v-424q0 -156 -52 -221t-181 -65q-128 0 -179.5 65t-51.5 221v424z" />
    <glyph glyph-name="uni1EE5" unicode="&#x1ee5;" horiz-adv-x="559" 
d="M271 -142q-30 0 -30 27v8q0 27 30 27t30 -27v-8q0 -27 -30 -27zM424 0v78h-4q-15 -39 -53.5 -64.5t-101.5 -25.5q-84 0 -129 50t-45 144v326h35v-320q0 -169 147 -169q63 0 107 33.5t44 95.5v360h35v-508h-35z" />
    <glyph glyph-name="uni1EE6" unicode="&#x1ee6;" horiz-adv-x="658" 
d="M252 893v28h130q34 0 34 -27q0 -16 -35 -68l-43 -65l-23 11l72 121h-135zM97 698h37v-430q0 -135 43 -191t152 -56t152 56t43 191v430h37v-424q0 -156 -52 -221t-181 -65q-128 0 -179.5 65t-51.5 221v424z" />
    <glyph glyph-name="uni1EE7" unicode="&#x1ee7;" horiz-adv-x="559" 
d="M199 715v29h130q34 0 34 -27q0 -17 -35 -69l-43 -65l-23 12l72 120h-135zM424 0v78h-4q-15 -39 -53.5 -64.5t-101.5 -25.5q-84 0 -129 50t-45 144v326h35v-320q0 -169 147 -169q63 0 107 33.5t44 95.5v360h35v-508h-35z" />
    <glyph glyph-name="uni1EE8" unicode="&#x1ee8;" horiz-adv-x="658" 
d="M429 918l-113 -154l-24 13l105 158zM97 698h37v-430q0 -135 43 -191t152 -56t152 56t43 191v430h83v111h32v-100q0 -37 -37 -37h-41v-398q0 -156 -52 -221t-181 -65q-128 0 -179.5 65t-51.5 221v424z" />
    <glyph glyph-name="uni1EE9" unicode="&#x1ee9;" horiz-adv-x="559" 
d="M376 740l-113 -153l-24 13l105 158zM539 620v-101q0 -37 -38 -37h-42v-482h-35v78h-4q-15 -39 -53.5 -64.5t-101.5 -25.5q-84 0 -129 50t-45 144v326h35v-320q0 -169 147 -169q63 0 107 33.5t44 95.5v360h82v112h33z" />
    <glyph glyph-name="uni1EEA" unicode="&#x1eea;" horiz-adv-x="658" 
d="M339 764l-113 154l32 17l105 -158zM97 698h37v-430q0 -135 43 -191t152 -56t152 56t43 191v430h83v111h32v-100q0 -37 -37 -37h-41v-398q0 -156 -52 -221t-181 -65q-128 0 -179.5 65t-51.5 221v424z" />
    <glyph glyph-name="uni1EEB" unicode="&#x1eeb;" horiz-adv-x="559" 
d="M286 587l-113 153l32 18l105 -158zM539 620v-101q0 -37 -38 -37h-42v-482h-35v78h-4q-15 -39 -53.5 -64.5t-101.5 -25.5q-84 0 -129 50t-45 144v326h35v-320q0 -169 147 -169q63 0 107 33.5t44 95.5v360h82v112h33z" />
    <glyph glyph-name="uni1EEC" unicode="&#x1eec;" horiz-adv-x="658" 
d="M252 893v28h130q34 0 34 -27q0 -16 -35 -68l-43 -65l-23 11l72 121h-135zM97 698h37v-430q0 -135 43 -191t152 -56t152 56t43 191v430h83v111h32v-100q0 -37 -37 -37h-41v-398q0 -156 -52 -221t-181 -65q-128 0 -179.5 65t-51.5 221v424z" />
    <glyph glyph-name="uni1EED" unicode="&#x1eed;" horiz-adv-x="559" 
d="M199 715v29h130q34 0 34 -27q0 -17 -35 -69l-43 -65l-23 12l72 120h-135zM539 620v-101q0 -37 -38 -37h-42v-482h-35v78h-4q-15 -39 -53.5 -64.5t-101.5 -25.5q-84 0 -129 50t-45 144v326h35v-320q0 -169 147 -169q63 0 107 33.5t44 95.5v360h82v112h33z" />
    <glyph glyph-name="uni1EEE" unicode="&#x1eee;" horiz-adv-x="658" 
d="M399 803q-31 0 -75 28q-40 24 -64 24q-33 0 -63 -31l-17 19q34 42 81 42q31 0 75 -28q40 -24 64 -24q33 0 63 31l17 -19q-34 -42 -81 -42zM97 698h37v-430q0 -135 43 -191t152 -56t152 56t43 191v430h83v111h32v-100q0 -37 -37 -37h-41v-398q0 -156 -52 -221t-181 -65
q-128 0 -179.5 65t-51.5 221v424z" />
    <glyph glyph-name="uni1EEF" unicode="&#x1eef;" horiz-adv-x="559" 
d="M345 625q-31 0 -75 28q-39 25 -64 25q-33 0 -63 -32l-17 19q34 42 81 42q31 0 75 -28q39 -25 64 -25q33 0 63 32l17 -19q-34 -42 -81 -42zM539 620v-101q0 -37 -38 -37h-42v-482h-35v78h-4q-15 -39 -53.5 -64.5t-101.5 -25.5q-84 0 -129 50t-45 144v326h35v-320
q0 -169 147 -169q63 0 107 33.5t44 95.5v360h82v112h33z" />
    <glyph glyph-name="uni1EF0" unicode="&#x1ef0;" horiz-adv-x="658" 
d="M330 -142q-30 0 -30 27v8q0 27 30 27t30 -27v-8q0 -27 -30 -27zM97 698h37v-430q0 -135 43 -191t152 -56t152 56t43 191v430h83v111h32v-100q0 -37 -37 -37h-41v-398q0 -156 -52 -221t-181 -65q-128 0 -179.5 65t-51.5 221v424z" />
    <glyph glyph-name="uni1EF1" unicode="&#x1ef1;" horiz-adv-x="559" 
d="M268 -142q-30 0 -30 27v8q0 27 30 27t30 -27v-8q0 -27 -30 -27zM539 620v-101q0 -37 -38 -37h-42v-482h-35v78h-4q-15 -39 -53.5 -64.5t-101.5 -25.5q-84 0 -129 50t-45 144v326h35v-320q0 -169 147 -169q63 0 107 33.5t44 95.5v360h82v112h33z" />
    <glyph glyph-name="Ygrave" unicode="&#x1ef2;" horiz-adv-x="557" 
d="M289 764l-113 154l32 17l105 -158zM297 0h-37v290l-241 408h42l216 -368h3l217 368h41l-241 -408v-290z" />
    <glyph glyph-name="ygrave" unicode="&#x1ef3;" horiz-adv-x="462" 
d="M243 587l-113 153l32 18l105 -158zM233 38l170 470h35l-248 -675q-8 -18 -19 -25.5t-33 -7.5h-74v31h90l60 159l-191 518h37l170 -470h3z" />
    <glyph glyph-name="uni1EF4" unicode="&#x1ef4;" horiz-adv-x="557" 
d="M279 -142q-30 0 -30 27v8q0 27 30 27t30 -27v-8q0 -27 -30 -27zM297 0h-37v290l-241 408h42l216 -368h3l217 368h41l-241 -408v-290z" />
    <glyph glyph-name="uni1EF5" unicode="&#x1ef5;" horiz-adv-x="462" 
d="M364 -142q-30 0 -30 27v8q0 27 30 27t30 -27v-8q0 -27 -30 -27zM233 38l170 470h35l-248 -675q-8 -18 -19 -25.5t-33 -7.5h-74v31h90l60 159l-191 518h37l170 -470h3z" />
    <glyph glyph-name="uni1EF6" unicode="&#x1ef6;" horiz-adv-x="557" 
d="M202 893v28h130q34 0 34 -27q0 -16 -35 -68l-43 -65l-23 11l72 121h-135zM297 0h-37v290l-241 408h42l216 -368h3l217 368h41l-241 -408v-290z" />
    <glyph glyph-name="uni1EF7" unicode="&#x1ef7;" horiz-adv-x="462" 
d="M156 715v29h130q34 0 34 -27q0 -17 -35 -69l-43 -65l-23 12l72 120h-135zM233 38l170 470h35l-248 -675q-8 -18 -19 -25.5t-33 -7.5h-74v31h90l60 159l-191 518h37l170 -470h3z" />
    <glyph glyph-name="uni1EF8" unicode="&#x1ef8;" horiz-adv-x="557" 
d="M349 802q-30 0 -77 29q-42 25 -67 25q-33 0 -64 -31l-17 18q37 43 83 43q30 0 77 -29q42 -25 67 -25q33 0 64 31l17 -18q-37 -43 -83 -43zM297 0h-37v290l-241 408h42l216 -368h3l217 368h41l-241 -408v-290z" />
    <glyph glyph-name="uni1EF9" unicode="&#x1ef9;" horiz-adv-x="462" 
d="M303 624q-32 0 -77 29q-41 26 -67 26q-32 0 -64 -32l-17 19q36 42 83 42q32 0 77 -29q41 -26 67 -26q32 0 64 32l17 -19q-36 -42 -83 -42zM233 38l170 470h35l-248 -675q-8 -18 -19 -25.5t-33 -7.5h-74v31h90l60 159l-191 518h37l170 -470h3z" />
    <glyph glyph-name="endash" unicode="&#x2013;" horiz-adv-x="588" 
d="M552 289h-516v32h516v-32z" />
    <glyph glyph-name="emdash" unicode="&#x2014;" horiz-adv-x="780" 
d="M744 289h-708v32h708v-32z" />
    <glyph glyph-name="quoteleft" unicode="&#x2018;" horiz-adv-x="248" 
d="M119 528q-34 0 -34 34v12q0 41 22.5 87.5t57.5 78.5h30q-63 -63 -74 -138q34 -1 34 -30v-10q0 -34 -36 -34z" />
    <glyph glyph-name="quoteright" unicode="&#x2019;" horiz-adv-x="248" 
d="M129 750q34 0 34 -34v-12q0 -41 -22.5 -87.5t-57.5 -78.5h-30q63 63 74 138q-34 1 -34 30v10q0 34 36 34z" />
    <glyph glyph-name="quotesinglbase" unicode="&#x201a;" horiz-adv-x="248" 
d="M124 82q35 0 35 -34v-12q0 -41 -23 -87.5t-58 -78.5h-30q65 65 74 138q-33 1 -33 30v10q0 34 35 34z" />
    <glyph glyph-name="quotedblleft" unicode="&#x201c;" horiz-adv-x="418" 
d="M288 528q-34 0 -34 34v12q0 41 22.5 87.5t57.5 78.5h30q-63 -63 -74 -138q34 -1 34 -30v-10q0 -34 -36 -34zM119 528q-34 0 -34 34v12q0 41 22.5 87.5t57.5 78.5h30q-63 -63 -74 -138q34 -1 34 -30v-10q0 -34 -36 -34z" />
    <glyph glyph-name="quotedblright" unicode="&#x201d;" horiz-adv-x="418" 
d="M299 750q34 0 34 -34v-12q0 -41 -22.5 -87.5t-57.5 -78.5h-30q63 63 74 138q-34 1 -34 30v10q0 34 36 34zM129 750q34 0 34 -34v-12q0 -41 -22.5 -87.5t-57.5 -78.5h-30q63 63 74 138q-34 1 -34 30v10q0 34 36 34z" />
    <glyph glyph-name="quotedblbase" unicode="&#x201e;" horiz-adv-x="418" 
d="M293 82q35 0 35 -34v-12q0 -41 -23 -87.5t-58 -78.5h-30q65 65 74 138q-33 1 -33 30v10q0 34 35 34zM124 82q35 0 35 -34v-12q0 -41 -23 -87.5t-58 -78.5h-30q65 65 74 138q-33 1 -33 30v10q0 34 35 34z" />
    <glyph glyph-name="dagger" unicode="&#x2020;" horiz-adv-x="559" 
d="M296 -200h-33v679h-207v29h207v232h33v-232h207v-29h-207v-679z" />
    <glyph glyph-name="daggerdbl" unicode="&#x2021;" horiz-adv-x="559" 
d="M296 -200h-33v232h-207v29h207v418h-207v29h207v232h33v-232h207v-29h-207v-418h207v-29h-207v-232z" />
    <glyph glyph-name="bullet" unicode="&#x2022;" horiz-adv-x="350" 
d="M175 210q-48 0 -71.5 22.5t-23.5 59.5v24q0 37 23.5 59.5t71.5 22.5t71.5 -22.5t23.5 -59.5v-24q0 -37 -23.5 -59.5t-71.5 -22.5z" />
    <glyph glyph-name="ellipsis" unicode="&#x2026;" horiz-adv-x="744" 
d="M620 -7q-35 0 -35 33v9q0 33 35 33t35 -33v-9q0 -33 -35 -33zM372 -7q-35 0 -35 33v9q0 33 35 33t35 -33v-9q0 -33 -35 -33zM124 -7q-35 0 -35 33v9q0 33 35 33t35 -33v-9q0 -33 -35 -33z" />
    <glyph glyph-name="perthousand" unicode="&#x2030;" horiz-adv-x="1253" 
d="M222 0h-36l484 698h36zM218 323q-65 0 -105 48.5t-40 145.5q0 96 40 144.5t105 48.5t105 -48.5t40 -144.5q0 -97 -40 -145.5t-105 -48.5zM218 348q49 0 80.5 37t31.5 112v39q0 75 -31.5 112t-80.5 37t-80.5 -37t-31.5 -112v-39q0 -75 31.5 -112t80.5 -37zM674 -12
q-65 0 -105 48.5t-40 145.5q0 96 40 144.5t105 48.5t105 -48.5t40 -144.5q0 -97 -40 -145.5t-105 -48.5zM674 13q49 0 80.5 37t31.5 112v39q0 75 -31.5 112t-80.5 37t-80.5 -37t-31.5 -112v-39q0 -75 31.5 -112t80.5 -37zM1035 -12q-65 0 -105 48.5t-40 145.5q0 96 40 144.5
t105 48.5t105 -48.5t40 -144.5q0 -97 -40 -145.5t-105 -48.5zM1035 13q49 0 80.5 37t31.5 112v39q0 75 -31.5 112t-80.5 37t-80.5 -37t-31.5 -112v-39q0 -75 31.5 -112t80.5 -37z" />
    <glyph glyph-name="guilsinglleft" unicode="&#x2039;" horiz-adv-x="295" 
d="M244 124l-13 -24l-197 175v33l197 175l13 -24l-173 -167z" />
    <glyph glyph-name="guilsinglright" unicode="&#x203a;" horiz-adv-x="295" 
d="M64 100l-13 24l173 168l-173 167l13 24l197 -175v-33z" />
    <glyph glyph-name="fraction" unicode="&#x2044;" horiz-adv-x="147" 
d="M-138 0h-32l456 698h33z" />
    <glyph glyph-name="uni2070" unicode="&#x2070;" horiz-adv-x="382" 
d="M191 323q-134 0 -134 191q0 190 134 190t134 -190q0 -191 -134 -191zM191 348q102 0 102 142v47q0 142 -102 142t-102 -142v-47q0 -142 102 -142z" />
    <glyph glyph-name="uni2074" unicode="&#x2074;" horiz-adv-x="346" 
d="M256 329h-29v85h-207v27l195 257h41v-260h64v-24h-64v-85zM227 438v232h-3l-176 -232h179z" />
    <glyph glyph-name="uni2075" unicode="&#x2075;" horiz-adv-x="342" 
d="M280 698v-25h-186l-11 -159h2q37 40 93 40q57 0 88 -30t31 -83q0 -54 -34.5 -86t-95.5 -32q-81 0 -126 58l22 17q38 -50 104 -50q48 0 73 23t25 62v11q0 85 -93 85q-51 0 -89 -36l-26 4l13 201h210z" />
    <glyph glyph-name="uni2076" unicode="&#x2076;" horiz-adv-x="361" 
d="M182 323q-59 0 -93 33.5t-34 98.5q0 76 45 140.5t100 102.5h42q-62 -41 -100 -87t-55 -109l3 -1q31 53 100 53q55 0 88 -31t33 -83q0 -54 -35 -85.5t-94 -31.5zM183 348q43 0 69.5 21.5t26.5 64.5v9q0 43 -26.5 64.5t-69.5 21.5q-44 0 -70 -21.5t-26 -64.5v-9
q0 -43 26 -64.5t70 -21.5z" />
    <glyph glyph-name="uni2077" unicode="&#x2077;" horiz-adv-x="342" 
d="M148 329h-32l155 344h-202v-85h-27v110h257v-27z" />
    <glyph glyph-name="uni2078" unicode="&#x2078;" horiz-adv-x="392" 
d="M196 323q-67 0 -103 28t-36 76q0 73 85 91v4q-71 18 -71 88q0 44 33 69t92 25q58 0 91.5 -25t33.5 -69q0 -31 -18 -55t-54 -33v-4q86 -18 86 -91q0 -48 -36 -76t-103 -28zM196 532q94 0 94 70v7q0 33 -23.5 51.5t-70.5 18.5t-70.5 -18.5t-23.5 -51.5v-7q0 -70 94 -70z
M196 348q51 0 79 19.5t28 55.5v9q0 36 -28 55.5t-79 19.5t-79 -19.5t-28 -55.5v-9q0 -36 28 -55.5t79 -19.5z" />
    <glyph glyph-name="uni2079" unicode="&#x2079;" horiz-adv-x="361" 
d="M306 572q0 -76 -45 -140.5t-100 -102.5h-42q62 41 100 87t55 109l-3 1q-31 -53 -100 -53q-55 0 -88 31t-33 83q0 54 35 85.5t94 31.5t93 -33.5t34 -98.5zM178 498q44 0 70 21.5t26 64.5v9q0 43 -26 64.5t-70 21.5q-43 0 -69.5 -21.5t-26.5 -64.5v-9q0 -43 26.5 -64.5
t69.5 -21.5z" />
    <glyph glyph-name="uni2080" unicode="&#x2080;" horiz-adv-x="382" 
d="M191 -6q-134 0 -134 191q0 190 134 190t134 -190q0 -191 -134 -191zM191 19q102 0 102 142v47q0 142 -102 142t-102 -142v-47q0 -142 102 -142z" />
    <glyph glyph-name="uni2081" unicode="&#x2081;" horiz-adv-x="370" 
d="M326 0h-267v25h124v318l-133 -68l-12 21l141 73h34v-344h113v-25z" />
    <glyph glyph-name="uni2082" unicode="&#x2082;" horiz-adv-x="345" 
d="M303 25v-25h-260v29l137 112q78 66 78 121v9q0 36 -22.5 57.5t-64.5 21.5q-79 0 -106 -74l-26 9q13 40 46.5 65t86.5 25q56 0 87 -30t31 -76q0 -69 -94 -146l-122 -98h229z" />
    <glyph glyph-name="uni2083" unicode="&#x2083;" horiz-adv-x="347" 
d="M113 204h45q94 0 94 73v5q0 32 -22 50t-63 18q-63 0 -96 -46l-21 16q36 55 118 55q54 0 85 -25.5t31 -69.5q0 -69 -72 -86v-3q79 -13 79 -89q0 -50 -34.5 -79t-94.5 -29q-81 0 -124 58l22 17q37 -50 102 -50q47 0 72 21t25 60v6q0 73 -94 73h-52v25z" />
    <glyph glyph-name="uni2084" unicode="&#x2084;" horiz-adv-x="346" 
d="M256 0h-29v85h-207v27l195 257h41v-260h64v-24h-64v-85zM227 109v232h-3l-176 -232h179z" />
    <glyph glyph-name="uni2085" unicode="&#x2085;" horiz-adv-x="342" 
d="M280 344h-186l-11 -159h2q37 40 93 40q57 0 88 -30t31 -83q0 -54 -34.5 -86t-95.5 -32q-81 0 -126 58l22 17q38 -50 104 -50q48 0 73 23t25 62v11q0 85 -93 85q-51 0 -89 -36l-26 4l13 201h210v-25z" />
    <glyph glyph-name="uni2086" unicode="&#x2086;" horiz-adv-x="361" 
d="M182 -6q-59 0 -93 33.5t-34 98.5q0 76 45 140.5t100 102.5h42q-62 -41 -100 -87t-55 -109l3 -1q31 53 100 53q55 0 88 -31t33 -83q0 -54 -35 -85.5t-94 -31.5zM183 19q43 0 69.5 21.5t26.5 64.5v9q0 43 -26.5 64.5t-69.5 21.5q-44 0 -70 -21.5t-26 -64.5v-9
q0 -43 26 -64.5t70 -21.5z" />
    <glyph glyph-name="uni2087" unicode="&#x2087;" horiz-adv-x="342" 
d="M148 0h-32l155 344h-202v-84h-27v109h257v-27z" />
    <glyph glyph-name="uni2088" unicode="&#x2088;" horiz-adv-x="392" 
d="M196 -6q-67 0 -103 28t-36 76q0 73 85 91v4q-71 18 -71 88q0 44 33 69t92 25q58 0 91.5 -25t33.5 -69q0 -31 -18 -55t-54 -33v-4q86 -18 86 -91q0 -48 -36 -76t-103 -28zM196 19q51 0 79 19.5t28 55.5v9q0 36 -28 55.5t-79 19.5t-79 -19.5t-28 -55.5v-9q0 -36 28 -55.5
t79 -19.5zM196 203q94 0 94 70v7q0 33 -23.5 51.5t-70.5 18.5t-70.5 -18.5t-23.5 -51.5v-7q0 -70 94 -70z" />
    <glyph glyph-name="uni2089" unicode="&#x2089;" horiz-adv-x="361" 
d="M306 243q0 -76 -45 -140.5t-100 -102.5h-42q62 41 100 87t55 109l-3 1q-31 -53 -100 -53q-55 0 -88 31t-33 83q0 54 35 85.5t94 31.5t93 -33.5t34 -98.5zM178 169q44 0 70 21.5t26 64.5v9q0 43 -26 64.5t-70 21.5q-43 0 -69.5 -21.5t-26.5 -64.5v-9q0 -43 26.5 -64.5
t69.5 -21.5z" />
    <glyph glyph-name="uni20A1" unicode="&#x20a1;" horiz-adv-x="613" 
d="M312 -82l10 80q-56 2 -98 21l-12 -101h-31l13 114q-127 74 -127 317q0 154 53 241.5t153 105.5l10 84h31l-10 -81q15 1 27 1q37 0 73 -11l11 91h30l-11 -100q77 -35 119 -125l-30 -17q-34 75 -94 106l-73 -611q123 10 172 135l30 -17q-27 -66 -79.5 -106.5t-125.5 -45.5
l-10 -81h-31zM332 667q-14 0 -32 -2l-72 -611q43 -23 98 -23l74 625q-31 11 -68 11zM107 320q0 -182 93 -250l69 590q-162 -38 -162 -281v-59z" />
    <glyph glyph-name="uni20A4" unicode="&#x20a4;" horiz-adv-x="583" 
d="M516 33v-33h-433v43q42 29 66 76t24 103q0 11 -1 20h-106v30h103q-3 17 -8 34.5t-8.5 28.5t-11.5 31.5t-11 29.5h-64v30h55q-12 46 -12 81q0 93 59 148t154 55q133 0 203 -117l-30 -19q-60 103 -173 103q-80 0 -127.5 -45.5t-47.5 -126.5q0 -35 12 -79h263v-30h-254
q28 -74 38 -124h216v-30h-213v-18q0 -56 -23.5 -106.5t-65.5 -81.5v-3h396z" />
    <glyph glyph-name="uni20A6" unicode="&#x20a6;" horiz-adv-x="672" 
d="M519 0l-149 255h-228v-255h-35v255h-90v30h90v128h-90v30h90v255h46l149 -255h228v255h35v-255h90v-30h-90v-128h90v-30h-90v-255h-46zM317 414l75 -130h138v130h-213zM142 284h212l-75 130h-137v-130zM527 50h3v205h-121zM142 646v-203h120l-117 203h-3z" />
    <glyph glyph-name="uni20A8" unicode="&#x20a8;" horiz-adv-x="719" 
d="M681 109q0 -53 -37.5 -87t-97.5 -34q-111 0 -161 95l-131 248q-7 -1 -22 -1h-91v-330h-37v698h129q175 0 175 -184q0 -149 -117 -177l125 -235q23 -43 53.5 -63t77.5 -20q44 0 71.5 25t27.5 65q0 29 -12.5 48.5t-49.5 49.5l-35 28q-46 36 -65.5 67t-19.5 70q0 42 29 72
t83 30q58 0 98 -34l-18 -26q-34 29 -79 29q-38 0 -58 -20t-20 -51q0 -33 16.5 -57.5t56.5 -55.5l34 -27q43 -35 59 -60.5t16 -62.5zM141 666v-305h91q66 0 102 33.5t36 96.5v45q0 63 -36 96.5t-102 33.5h-91z" />
    <glyph glyph-name="uni20A9" unicode="&#x20a9;" horiz-adv-x="912" 
d="M637 0l-69 252h-226l-69 -252h-45l-65 251h-123v30h115l-33 129h-82v30h74l-67 258h37l67 -259h209l72 259h48l70 -259h212l67 259h37l-68 -258h74v-30h-82l-34 -129h116v-30h-124l-66 -251h-45zM560 281l-36 129h-139l-35 -129h210zM755 410h-197l35 -129h128zM158 410
l33 -129h126l36 129h-195zM454 659l-61 -220h123l-60 220h-2zM658 47h3l53 205h-113zM251 47h2l56 205h-111z" />
    <glyph glyph-name="uni20AA" unicode="&#x20aa;" horiz-adv-x="767" 
d="M278 0v564h36v-532h204q109 0 109 130v536h36v-532q0 -82 -38.5 -124t-106.5 -42h-240zM140 0h-36v698h233q69 0 110.5 -42.5t41.5 -123.5v-398h-36v402q0 69 -33.5 99.5t-82.5 30.5h-197v-666z" />
    <glyph glyph-name="uni20AB" unicode="&#x20ab;" horiz-adv-x="566" 
d="M420 117v72h-3q-17 -36 -56.5 -59.5t-96.5 -23.5q-93 0 -144.5 57t-51.5 165t51.5 165.5t144.5 57.5q57 0 96.5 -24t56.5 -60h3v172h-161v29h161v72h35v-72h70v-29h-70v-522h-35zM272 136q61 0 104.5 34.5t43.5 86.5v142q0 54 -43 88t-105 34q-78 0 -122 -44.5
t-44 -120.5v-55q0 -76 44.5 -120.5t121.5 -44.5zM488 0h-420v31h420v-31z" />
    <glyph glyph-name="Euro" unicode="&#x20ac;" horiz-adv-x="612" 
d="M557 141q-29 -71 -87 -112t-139 -41q-127 0 -195.5 92t-68.5 269t68.5 269t195.5 92q77 0 134 -39t87 -106l-30 -17q-26 61 -75.5 95t-115.5 34q-94 0 -151.5 -60t-70.5 -175h262v-30h-264q-1 -11 -1 -36v-54q0 -12 2 -38h263v-30h-262q13 -113 71 -173t151 -60
q71 0 121 36t75 101z" />
    <glyph glyph-name="uni20AD" unicode="&#x20ad;" horiz-adv-x="580" 
d="M144 351v-351h-37v351h-90v31h90v316h37v-316h92l255 316h43l-256 -316h241v-31h-239l270 -351h-45l-269 351h-92z" />
    <glyph glyph-name="uni20AE" unicode="&#x20ae;" horiz-adv-x="587" 
d="M462 318l-150 -74v-244h-37v228l-150 -73v33l150 73v118l-150 -73v33l150 73v253h-245v33h527v-33h-245v-237l150 74v-33l-150 -73v-118l150 73v-33z" />
    <glyph glyph-name="uni20B1" unicode="&#x20b1;" horiz-adv-x="608" 
d="M144 242v-242h-37v379h-90v30h90v123h-90v30h90v136h225q141 0 172 -136h88v-30h-84v-62v-61h84v-30h-88q-14 -65 -57.5 -101t-114.5 -36h-188zM144 665v-103h324q-10 46 -44.5 74.5t-91.5 28.5h-188zM144 409h327v123h-327v-123zM144 275h188q57 0 91.5 29t44.5 75h-324
v-104z" />
    <glyph glyph-name="uni20B2" unicode="&#x20b2;" horiz-adv-x="652" 
d="M277 -82h-33l16 88q-193 49 -193 344q0 172 68.5 261t197.5 89q19 0 35 -3l14 83h33l-14 -88q112 -28 157 -131l-30 -17q-38 90 -133 115l-51 -321h231v-119q0 -105 -67 -163t-170 -58q-24 0 -47 3zM107 320q0 -116 41 -187.5t118 -92.5l97 625q-18 2 -30 2
q-107 0 -166.5 -74.5t-59.5 -213.5v-59zM538 306h-199l-43 -272q22 -3 45 -3q88 0 142.5 48t54.5 135v92z" />
    <glyph glyph-name="uni20B4" unicode="&#x20b4;" horiz-adv-x="622" 
d="M319 -12q-90 0 -144 47t-54 128q0 53 34 102h-102v30h127l214 128h-341v30h378q29 35 29 91q0 63 -40 98t-110 35q-92 0 -163 -78l-25 24q80 87 191 87q83 0 133.5 -44.5t50.5 -120.5q0 -57 -27 -92h99v-30h-121l-214 -128h335v-30h-373q-38 -44 -38 -101
q0 -68 43 -105.5t119 -37.5q97 0 180 89l24 -24q-88 -98 -205 -98z" />
    <glyph glyph-name="uni20B5" unicode="&#x20b5;" horiz-adv-x="613" 
d="M270 -82h-33l16 90q-186 48 -186 341q0 176 68 263.5t196 87.5q12 0 30 -2l14 82h32l-14 -87q110 -27 160 -138l-31 -16q-41 97 -135 121l-97 -626q19 -3 41 -3q71 0 121.5 36t75.5 101l30 -16q-30 -71 -87.5 -112.5t-139.5 -41.5q-27 0 -47 4zM107 320q0 -233 152 -279
l97 625q-3 0 -12 0.5t-13 0.5q-107 0 -165.5 -72t-58.5 -216v-59z" />
    <glyph glyph-name="uni20B8" unicode="&#x20b8;" horiz-adv-x="603" 
d="M565 667h-527v31h527v-31zM565 515h-245v-515h-37v515h-245v31h527v-31z" />
    <glyph glyph-name="uni20B9" unicode="&#x20b9;" horiz-adv-x="610" 
d="M510 0h-45l-238 316h-161v32h223q68 0 105 38.5t37 102.5v9h-365v30h365q-1 62 -38.5 100t-102.5 38h-224v32h512v-32h-197v-2q79 -31 86 -136h111v-30h-111v-5q-2 -81 -49.5 -129t-130.5 -48h-17z" />
    <glyph glyph-name="uni20BA" unicode="&#x20ba;" horiz-adv-x="610" 
d="M144 0v291l-123 -59v33l123 59v118l-123 -59v33l123 59v223h37v-207l209 102v-33l-209 -101v-119l209 102v-33l-209 -102v-274h128q99 0 155.5 76t56.5 196h36q0 -134 -64.5 -219.5t-180.5 -85.5h-168z" />
    <glyph glyph-name="uni20BD" unicode="&#x20bd;" horiz-adv-x="599" 
d="M397 162h-253v-162h-37v162h-90v31h90v123h-90v32h90v350h270q86 0 132.5 -51t46.5 -140t-46.5 -140t-132.5 -51h-233v-123h253v-31zM144 665v-317h233q67 0 103 39t36 97v45q0 58 -36 97t-103 39h-233z" />
    <glyph glyph-name="uni20BF" unicode="&#x20bf;" horiz-adv-x="614" 
d="M343 -82v103h-95v-103h-32v103h-112v656h112v103h32v-103h95v103h32v-104q69 -5 106.5 -48t37.5 -114q0 -116 -101 -144v-3q62 -10 97 -52.5t35 -112.5q0 -82 -46.5 -131.5t-128.5 -49.5v-103h-32zM141 644v-264h214q61 0 93 31.5t32 80.5v40q0 49 -31.5 80.5t-93.5 31.5
h-214zM141 348v-294h228q68 0 105 36t37 91v41q0 54 -37 90t-105 36h-228z" />
    <glyph glyph-name="uni2113" unicode="&#x2113;" horiz-adv-x="466" 
d="M258 -12q-134 0 -134 175v30q-32 -26 -68 -48l-15 26q50 30 83 59v339q0 183 119 183q114 0 114 -147q0 -102 -54.5 -204.5t-144.5 -184.5v-49q0 -76 24 -112t77 -36q51 0 84 29.5t62 83.5l27 -15q-66 -129 -174 -129zM244 721q-86 0 -86 -150v-316q75 76 120.5 167
t45.5 178v13q0 108 -80 108z" />
    <glyph glyph-name="uni2116" unicode="&#x2116;" horiz-adv-x="1014" 
d="M831 366q-71 0 -111 46t-40 127q0 79 40.5 125t110.5 46t110.5 -46t40.5 -125q0 -81 -40 -127t-111 -46zM139 0h-35v698h47l396 -650h3v650h35v-698h-47l-396 648h-3v-648zM831 392q56 0 87 36.5t31 90.5v39q0 54 -31.5 90t-86.5 36t-86.5 -36t-31.5 -90v-39
q0 -54 31 -90.5t87 -36.5zM968 275h-274v30h274v-30z" />
    <glyph glyph-name="trademark" unicode="&#x2122;" horiz-adv-x="643" 
d="M154 427h-27v248h-102v23h231v-23h-102v-248zM346 427h-24v271h33l83 -160h2l84 160h32v-271h-24v233h-3l-90 -171l-90 171h-3v-233z" />
    <glyph glyph-name="Omega" unicode="&#x2126;" horiz-adv-x="718" 
d="M84 0v32h173v15q-93 53 -135 130.5t-42 200.5q0 154 72 243t207 89t207 -89t72 -243q0 -122 -42 -200t-135 -131v-15h173v-32h-205v63q66 30 117.5 102.5t51.5 178.5v71q0 117 -65 189.5t-174 72.5t-174.5 -72.5t-65.5 -189.5v-71q0 -106 52 -178.5t118 -102.5v-63h-205z
" />
    <glyph glyph-name="uni212E" unicode="&#x212e;" horiz-adv-x="700" 
d="M116 349v-176q27 -69 90 -113.5t146 -44.5q169 0 250 146l25 -13q-38 -73 -107.5 -116.5t-167.5 -43.5q-139 0 -225 101t-86 260t85.5 260t223.5 101t223.5 -101t85.5 -260h-543zM116 376h468v152q-27 70 -89 112.5t-145 42.5t-145 -42.5t-89 -112.5v-152z" />
    <glyph glyph-name="uni2150" unicode="&#x2150;" horiz-adv-x="870" 
d="M676 0h-32l155 344h-202v-84h-27v109h257v-27zM243 0h-32l456 698h33zM326 329h-267v25h124v318l-133 -68l-12 21l141 73h34v-344h113v-25z" />
    <glyph glyph-name="uni2151" unicode="&#x2151;" horiz-adv-x="889" 
d="M834 243q0 -76 -45 -140.5t-100 -102.5h-42q62 41 100 87t55 109l-3 1q-31 -53 -100 -53q-55 0 -88 31t-33 83q0 54 35 85.5t94 31.5t93 -33.5t34 -98.5zM706 169q44 0 70 21.5t26 64.5v9q0 43 -26 64.5t-70 21.5q-43 0 -69.5 -21.5t-26.5 -64.5v-9q0 -43 26.5 -64.5
t69.5 -21.5zM243 0h-32l456 698h33zM326 329h-267v25h124v318l-133 -68l-12 21l141 73h34v-344h113v-25z" />
    <glyph glyph-name="uni2153" unicode="&#x2153;" horiz-adv-x="875" 
d="M641 204h45q94 0 94 73v5q0 32 -22 50t-63 18q-63 0 -96 -46l-21 16q36 55 118 55q54 0 85 -25.5t31 -69.5q0 -69 -72 -86v-3q79 -13 79 -89q0 -50 -34.5 -79t-94.5 -29q-81 0 -124 58l22 17q37 -50 102 -50q47 0 72 21t25 60v6q0 73 -94 73h-52v25zM243 0h-32l456 698
h33zM326 329h-267v25h124v318l-133 -68l-12 21l141 73h34v-344h113v-25z" />
    <glyph glyph-name="uni2154" unicode="&#x2154;" horiz-adv-x="850" 
d="M616 204h45q94 0 94 73v5q0 32 -22 50t-63 18q-63 0 -96 -46l-21 16q36 55 118 55q54 0 85 -25.5t31 -69.5q0 -69 -72 -86v-3q79 -13 79 -89q0 -50 -34.5 -79t-94.5 -29q-81 0 -124 58l22 17q37 -50 102 -50q47 0 72 21t25 60v6q0 73 -94 73h-52v25zM218 0h-32l456 698
h33zM303 354v-25h-260v29l137 112q78 66 78 121v9q0 36 -22.5 57.5t-64.5 21.5q-79 0 -106 -74l-26 9q13 40 46.5 65t86.5 25q56 0 87 -30t31 -76q0 -69 -94 -146l-122 -98h229z" />
    <glyph glyph-name="uni2155" unicode="&#x2155;" horiz-adv-x="866" 
d="M804 344h-186l-11 -159h2q37 40 93 40q57 0 88 -30t31 -83q0 -54 -34.5 -86t-95.5 -32q-81 0 -126 58l22 17q38 -50 104 -50q48 0 73 23t25 62v11q0 85 -93 85q-51 0 -89 -36l-26 4l13 201h210v-25zM243 0h-32l456 698h33zM326 329h-267v25h124v318l-133 -68l-12 21
l141 73h34v-344h113v-25z" />
    <glyph glyph-name="uni2156" unicode="&#x2156;" horiz-adv-x="841" 
d="M779 344h-186l-11 -159h2q37 40 93 40q57 0 88 -30t31 -83q0 -54 -34.5 -86t-95.5 -32q-81 0 -126 58l22 17q38 -50 104 -50q48 0 73 23t25 62v11q0 85 -93 85q-51 0 -89 -36l-26 4l13 201h210v-25zM218 0h-32l456 698h33zM303 354v-25h-260v29l137 112q78 66 78 121v9
q0 36 -22.5 57.5t-64.5 21.5q-79 0 -106 -74l-26 9q13 40 46.5 65t86.5 25q56 0 87 -30t31 -76q0 -69 -94 -146l-122 -98h229z" />
    <glyph glyph-name="uni2157" unicode="&#x2157;" horiz-adv-x="836" 
d="M774 344h-186l-11 -159h2q37 40 93 40q57 0 88 -30t31 -83q0 -54 -34.5 -86t-95.5 -32q-81 0 -126 58l22 17q38 -50 104 -50q48 0 73 23t25 62v11q0 85 -93 85q-51 0 -89 -36l-26 4l13 201h210v-25zM213 0h-32l456 698h33zM113 533h45q94 0 94 73v5q0 32 -22 50t-63 18
q-63 0 -96 -46l-21 16q36 55 118 55q54 0 85 -25.5t31 -69.5q0 -69 -72 -86v-3q79 -13 79 -89q0 -50 -34.5 -79t-94.5 -29q-81 0 -124 58l22 17q37 -50 102 -50q47 0 72 21t25 60v6q0 73 -94 73h-52v25z" />
    <glyph glyph-name="uni2158" unicode="&#x2158;" horiz-adv-x="842" 
d="M780 344h-186l-11 -159h2q37 40 93 40q57 0 88 -30t31 -83q0 -54 -34.5 -86t-95.5 -32q-81 0 -126 58l22 17q38 -50 104 -50q48 0 73 23t25 62v11q0 85 -93 85q-51 0 -89 -36l-26 4l13 201h210v-25zM219 0h-32l456 698h33zM256 329h-29v85h-207v27l195 257h41v-260h64
v-24h-64v-85zM227 438v232h-3l-176 -232h179z" />
    <glyph glyph-name="uni2159" unicode="&#x2159;" horiz-adv-x="874" 
d="M695 -6q-59 0 -93 33.5t-34 98.5q0 76 45 140.5t100 102.5h42q-62 -41 -100 -87t-55 -109l3 -1q31 53 100 53q55 0 88 -31t33 -83q0 -54 -35 -85.5t-94 -31.5zM696 19q43 0 69.5 21.5t26.5 64.5v9q0 43 -26.5 64.5t-69.5 21.5q-44 0 -70 -21.5t-26 -64.5v-9
q0 -43 26 -64.5t70 -21.5zM243 0h-32l456 698h33zM326 329h-267v25h124v318l-133 -68l-12 21l141 73h34v-344h113v-25z" />
    <glyph glyph-name="uni215A" unicode="&#x215a;" horiz-adv-x="839" 
d="M660 -6q-59 0 -93 33.5t-34 98.5q0 76 45 140.5t100 102.5h42q-62 -41 -100 -87t-55 -109l3 -1q31 53 100 53q55 0 88 -31t33 -83q0 -54 -35 -85.5t-94 -31.5zM661 19q43 0 69.5 21.5t26.5 64.5v9q0 43 -26.5 64.5t-69.5 21.5q-44 0 -70 -21.5t-26 -64.5v-9
q0 -43 26 -64.5t70 -21.5zM208 0h-32l456 698h33zM280 698v-25h-186l-11 -159h2q37 40 93 40q57 0 88 -30t31 -83q0 -54 -34.5 -86t-95.5 -32q-81 0 -126 58l22 17q38 -50 104 -50q48 0 73 23t25 62v11q0 85 -93 85q-51 0 -89 -36l-26 4l13 201h210z" />
    <glyph glyph-name="uni215B" unicode="&#x215b;" horiz-adv-x="916" 
d="M720 -6q-67 0 -103 28t-36 76q0 73 85 91v4q-71 18 -71 88q0 44 33 69t92 25q58 0 91.5 -25t33.5 -69q0 -31 -18 -55t-54 -33v-4q86 -18 86 -91q0 -48 -36 -76t-103 -28zM720 19q51 0 79 19.5t28 55.5v9q0 36 -28 55.5t-79 19.5t-79 -19.5t-28 -55.5v-9q0 -36 28 -55.5
t79 -19.5zM720 203q94 0 94 70v7q0 33 -23.5 51.5t-70.5 18.5t-70.5 -18.5t-23.5 -51.5v-7q0 -70 94 -70zM243 0h-32l456 698h33zM326 329h-267v25h124v318l-133 -68l-12 21l141 73h34v-344h113v-25z" />
    <glyph glyph-name="uni215C" unicode="&#x215c;" horiz-adv-x="886" 
d="M690 -6q-67 0 -103 28t-36 76q0 73 85 91v4q-71 18 -71 88q0 44 33 69t92 25q58 0 91.5 -25t33.5 -69q0 -31 -18 -55t-54 -33v-4q86 -18 86 -91q0 -48 -36 -76t-103 -28zM690 19q51 0 79 19.5t28 55.5v9q0 36 -28 55.5t-79 19.5t-79 -19.5t-28 -55.5v-9q0 -36 28 -55.5
t79 -19.5zM690 203q94 0 94 70v7q0 33 -23.5 51.5t-70.5 18.5t-70.5 -18.5t-23.5 -51.5v-7q0 -70 94 -70zM213 0h-32l456 698h33zM113 533h45q94 0 94 73v5q0 32 -22 50t-63 18q-63 0 -96 -46l-21 16q36 55 118 55q54 0 85 -25.5t31 -69.5q0 -69 -72 -86v-3q79 -13 79 -89
q0 -50 -34.5 -79t-94.5 -29q-81 0 -124 58l22 17q37 -50 102 -50q47 0 72 21t25 60v6q0 73 -94 73h-52v25z" />
    <glyph glyph-name="uni215D" unicode="&#x215d;" horiz-adv-x="881" 
d="M685 -6q-67 0 -103 28t-36 76q0 73 85 91v4q-71 18 -71 88q0 44 33 69t92 25q58 0 91.5 -25t33.5 -69q0 -31 -18 -55t-54 -33v-4q86 -18 86 -91q0 -48 -36 -76t-103 -28zM685 19q51 0 79 19.5t28 55.5v9q0 36 -28 55.5t-79 19.5t-79 -19.5t-28 -55.5v-9q0 -36 28 -55.5
t79 -19.5zM685 203q94 0 94 70v7q0 33 -23.5 51.5t-70.5 18.5t-70.5 -18.5t-23.5 -51.5v-7q0 -70 94 -70zM208 0h-32l456 698h33zM280 698v-25h-186l-11 -159h2q37 40 93 40q57 0 88 -30t31 -83q0 -54 -34.5 -86t-95.5 -32q-81 0 -126 58l22 17q38 -50 104 -50q48 0 73 23
t25 62v11q0 85 -93 85q-51 0 -89 -36l-26 4l13 201h210z" />
    <glyph glyph-name="uni215E" unicode="&#x215e;" horiz-adv-x="862" 
d="M666 -6q-67 0 -103 28t-36 76q0 73 85 91v4q-71 18 -71 88q0 44 33 69t92 25q58 0 91.5 -25t33.5 -69q0 -31 -18 -55t-54 -33v-4q86 -18 86 -91q0 -48 -36 -76t-103 -28zM666 19q51 0 79 19.5t28 55.5v9q0 36 -28 55.5t-79 19.5t-79 -19.5t-28 -55.5v-9q0 -36 28 -55.5
t79 -19.5zM666 203q94 0 94 70v7q0 33 -23.5 51.5t-70.5 18.5t-70.5 -18.5t-23.5 -51.5v-7q0 -70 94 -70zM189 0h-32l456 698h33zM148 329h-32l155 344h-202v-85h-27v110h257v-27z" />
    <glyph glyph-name="uni2190" unicode="&#x2190;" horiz-adv-x="764" 
d="M27 349l196 196l23 -22l-109 -110l-53 -48l1 -2l105 2h547v-32h-547l-105 2l-1 -2l53 -48l109 -110l-23 -22z" />
    <glyph glyph-name="uni2191" unicode="&#x2191;" horiz-adv-x="764" 
d="M382 710l196 -196l-22 -23l-110 109l-48 53l-2 -1l2 -105v-547h-32v547l2 105l-2 1l-48 -53l-110 -109l-22 23z" />
    <glyph glyph-name="uni2192" unicode="&#x2192;" horiz-adv-x="764" 
d="M737 349l-196 -196l-23 22l109 110l53 48l-1 2l-105 -2h-547v32h547l105 -2l1 2l-53 48l-109 110l23 22z" />
    <glyph glyph-name="uni2193" unicode="&#x2193;" horiz-adv-x="764" 
d="M382 -12l-196 196l22 23l110 -109l48 -53l2 1l-2 105v547h32v-547l-2 -105l2 -1l48 53l110 109l22 -23z" />
    <glyph glyph-name="uni2194" unicode="&#x2194;" horiz-adv-x="764" 
d="M27 349l196 196l23 -22l-109 -110l-53 -48l1 -2l105 2h384l105 -2l1 2l-53 48l-109 110l23 22l196 -196l-196 -196l-23 22l109 110l53 48l-1 2l-105 -2h-384l-105 2l-1 -2l53 -48l109 -110l-23 -22z" />
    <glyph glyph-name="uni2195" unicode="&#x2195;" horiz-adv-x="764" 
d="M382 -12l-196 196l22 23l110 -109l48 -53l2 1l-2 105v396l2 105l-2 1l-48 -53l-110 -109l-22 23l196 196l196 -196l-22 -23l-110 109l-48 53l-2 -1l2 -105v-396l-2 -105l2 -1l48 53l110 109l22 -23z" />
    <glyph glyph-name="uni2196" unicode="&#x2196;" horiz-adv-x="764" 
d="M142 614h277v-32h-154l-71 3l-1 -2l75 -73l387 -387l-23 -22l-386 386l-73 76l-2 -1l3 -71v-154h-32v277z" />
    <glyph glyph-name="uni2197" unicode="&#x2197;" horiz-adv-x="764" 
d="M622 614v-277h-32v154l3 71l-2 1l-73 -76l-386 -386l-23 22l387 387l75 73l-1 2l-71 -3h-154v32h277z" />
    <glyph glyph-name="uni2198" unicode="&#x2198;" horiz-adv-x="764" 
d="M622 101h-277v32h154l71 -3l1 2l-75 73l-387 387l23 22l386 -386l73 -76l2 1l-3 71v154h32v-277z" />
    <glyph glyph-name="uni2199" unicode="&#x2199;" horiz-adv-x="764" 
d="M142 101v277h32v-154l-3 -71l2 -1l73 76l386 386l23 -22l-387 -387l-75 -73l1 -2l71 3h154v-32h-277z" />
    <glyph glyph-name="uni21A9" unicode="&#x21a9;" horiz-adv-x="764" 
d="M27 276l196 196l23 -22l-109 -110l-53 -48l1 -2l105 2h358q69 0 111.5 38.5t42.5 105.5t-42.5 105.5t-111.5 38.5v32q83 0 135 -48t52 -128t-52 -128t-135 -48h-358l-105 2l-1 -2l53 -48l109 -110l-23 -22z" />
    <glyph glyph-name="uni21AA" unicode="&#x21aa;" horiz-adv-x="764" 
d="M735 276l-196 -196l-23 22l109 110l53 48l-1 2l-105 -2h-358q-83 0 -135 48t-52 128t52 128t135 48v-32q-69 0 -111.5 -38.5t-42.5 -105.5t42.5 -105.5t111.5 -38.5h358l105 -2l1 2l-53 48l-109 110l23 22z" />
    <glyph glyph-name="uni21B0" unicode="&#x21b0;" horiz-adv-x="764" 
d="M104 506l196 196l23 -22l-109 -110l-53 -48l1 -2l105 2h318v-522h-32v490h-286l-105 2l-1 -2l53 -48l109 -110l-23 -22z" />
    <glyph glyph-name="uni21B1" unicode="&#x21b1;" horiz-adv-x="764" 
d="M663 506l-196 -196l-23 22l109 110l53 48l-1 2l-105 -2h-286v-490h-32v522h318l105 -2l1 2l-53 48l-109 110l23 22z" />
    <glyph glyph-name="uni21B2" unicode="&#x21b2;" horiz-adv-x="764" 
d="M104 196l196 196l23 -22l-109 -110l-53 -48l1 -2l105 2h286v490h32v-522h-318l-105 2l-1 -2l53 -48l109 -110l-23 -22z" />
    <glyph glyph-name="uni21B3" unicode="&#x21b3;" horiz-adv-x="764" 
d="M663 192l-196 -196l-23 22l109 110l53 48l-1 2l-105 -2h-318v522h32v-490h286l105 -2l1 2l-53 48l-109 110l23 22z" />
    <glyph glyph-name="uni21B6" unicode="&#x21b6;" horiz-adv-x="809" 
d="M216 47l-196 196l22 23l110 -109l48 -53l2 1l-2 105v137q0 140 79 226.5t214 86.5q130 0 211.5 -84.5t81.5 -218.5h-32q0 122 -72.5 197t-188.5 75q-121 0 -191 -78.5t-70 -203.5v-137l-2 -105l2 -1l48 53l110 109l22 -23z" />
    <glyph glyph-name="uni21B7" unicode="&#x21b7;" horiz-adv-x="809" 
d="M593 47l-196 196l22 23l110 -109l48 -53l2 1l-2 105v137q0 125 -70 203.5t-191 78.5q-116 0 -188.5 -75t-72.5 -197h-32q0 134 81.5 218.5t211.5 84.5q135 0 214 -86.5t79 -226.5v-137l-2 -105l2 -1l48 53l110 109l22 -23z" />
    <glyph glyph-name="uni21BA" unicode="&#x21ba;" horiz-adv-x="785" 
d="M404 698h277v-32h-154l-71 3l-1 -2l59 -51q8 -7 34 -29t36 -31t32.5 -31t32 -36t25 -37.5t22 -45t12 -49.5t5.5 -58q0 -130 -89 -220.5t-231 -90.5q-143 0 -232 90.5t-89 222.5q0 91 44.5 167t122.5 117l17 -25q-72 -38 -112 -106t-40 -153q0 -121 80.5 -202t208.5 -81
t208 81t80 200q0 24 -2.5 45t-10.5 42t-13 35t-20.5 34t-21.5 28.5t-27.5 29t-27 26t-32 28.5t-31.5 27l-60 53l-2 -1l3 -71v-154h-32v277z" />
    <glyph glyph-name="uni21BB" unicode="&#x21bb;" horiz-adv-x="785" 
d="M381 698v-277h-32v154l3 71l-2 1l-60 -53q-5 -4 -31.5 -27t-32 -28.5t-27 -26t-27.5 -29t-21.5 -28.5t-20.5 -34t-13 -35t-10.5 -42t-2.5 -45q0 -119 80 -200t208 -81t208.5 81t80.5 202q0 85 -40 153t-112 106l17 25q78 -41 122.5 -117t44.5 -167q0 -132 -89 -222.5
t-232 -90.5q-142 0 -231 90.5t-89 220.5q0 30 5.5 58t12 49.5t22 45t25 37.5t32 36t32.5 31t36 31t34 29l59 51l-1 2l-71 -3h-154v32h277z" />
    <glyph glyph-name="uni21C4" unicode="&#x21c4;" horiz-adv-x="764" 
d="M27 184l196 196l23 -22l-109 -110l-53 -48l1 -2l105 2h547v-32h-547l-105 2l-1 -2l53 -48l109 -110l-23 -22zM737 514l-196 -196l-23 22l109 110l53 48l-1 2l-105 -2h-547v32h547l105 -2l1 2l-53 48l-109 110l23 22z" />
    <glyph glyph-name="uni21C6" unicode="&#x21c6;" horiz-adv-x="764" 
d="M27 514l196 196l23 -22l-109 -110l-53 -48l1 -2l105 2h547v-32h-547l-105 2l-1 -2l53 -48l109 -110l-23 -22zM737 184l-196 -196l-23 22l109 110l53 48l-1 2l-105 -2h-547v32h547l105 -2l1 2l-53 48l-109 110l23 22z" />
    <glyph glyph-name="partialdiff" unicode="&#x2202;" horiz-adv-x="580" 
d="M503 253q0 -126 -58 -195.5t-157 -69.5q-98 0 -156.5 69t-58.5 189t58 189t154 69q98 0 151 -75l3 2q-30 80 -105.5 148t-178.5 119h60q43 -24 73.5 -44.5t74.5 -61t71.5 -84.5t48 -111t20.5 -144zM288 19q79 0 128 54t49 147v52q0 93 -49 147t-128 54t-128 -54t-49 -147
v-52q0 -93 49 -147t128 -54z" />
    <glyph glyph-name="Delta" unicode="&#x2206;" horiz-adv-x="610" 
d="M42 0v32l239 666h48l239 -666v-32h-526zM530 32l-223 628h-5l-223 -628h451z" />
    <glyph glyph-name="product" unicode="&#x220f;" horiz-adv-x="708" 
d="M176 -200h-37v864h-74v34h578v-34h-74v-864h-37v864h-356v-864z" />
    <glyph glyph-name="summation" unicode="&#x2211;" horiz-adv-x="487" 
d="M451 -166v-34h-435v31l294 416v4l-294 416v31h435v-34h-392l286 -403v-24l-286 -403h392z" />
    <glyph glyph-name="minus" unicode="&#x2212;" 
d="M537 290h-474v31h474v-31z" />
    <glyph glyph-name="radical" unicode="&#x221a;" 
d="M328 0h-48l-136 478h-116v30h142l134 -472h3l201 662h35z" />
    <glyph glyph-name="infinity" unicode="&#x221e;" horiz-adv-x="734" 
d="M192 123q-80 0 -123.5 48.5t-43.5 133.5t43.5 133.5t123.5 48.5q65 0 113 -40.5t67 -112.5h3q17 72 62.5 112.5t104.5 40.5q80 0 123.5 -48.5t43.5 -133.5t-43.5 -133.5t-123.5 -48.5q-65 0 -113 40.5t-67 112.5h-3q-17 -72 -62.5 -112.5t-104.5 -40.5zM190 154
q53 0 95.5 38.5t63.5 112.5q-21 77 -62.5 114t-96.5 37q-58 0 -93.5 -34.5t-35.5 -96.5v-40q0 -62 35.5 -96.5t93.5 -34.5zM544 154q57 0 93 35t36 96v40q0 61 -36 96t-93 35q-54 0 -96.5 -38.5t-62.5 -112.5q20 -77 62 -114t97 -37z" />
    <glyph glyph-name="integral" unicode="&#x222b;" horiz-adv-x="371" 
d="M50 -200v31h118v859q0 50 49 50h104v-31h-118v-859q0 -50 -49 -50h-104z" />
    <glyph glyph-name="approxequal" unicode="&#x2248;" 
d="M423 166q-45 0 -130 38q-79 36 -118 36q-50 0 -93 -40l-18 22q48 49 113 49q45 0 130 -38q79 -36 118 -36q50 0 93 40l18 -22q-48 -49 -113 -49zM423 339q-45 0 -130 38q-79 36 -118 36q-50 0 -93 -40l-18 22q48 49 113 49q45 0 130 -38q79 -36 118 -36q50 0 93 40
l18 -22q-48 -49 -113 -49z" />
    <glyph glyph-name="notequal" unicode="&#x2260;" 
d="M188 87h-33l66 111h-158v31h175l91 153h-266v31h283l66 111h33l-66 -111h158v-31h-175l-91 -153h266v-31h-283z" />
    <glyph glyph-name="lessequal" unicode="&#x2264;" 
d="M514 0h-428v31h428v-31zM514 592v-36l-393 -207v-3l393 -207v-36l-428 227v35z" />
    <glyph glyph-name="greaterequal" unicode="&#x2265;" 
d="M86 103v36l393 207v3l-393 207v36l428 -227v-35zM86 0v31h428v-31h-428z" />
    <glyph glyph-name="lozenge" unicode="&#x25ca;" 
d="M318 0h-36l-227 349l227 349h36l227 -349zM298 33h4l205 316l-205 316h-4l-205 -316z" />
    <glyph glyph-name="uni2713" unicode="&#x2713;" horiz-adv-x="912" 
d="M780 690l-360 -690h-40l-248 473l30 15l140 -267l96 -187h4l96 187l250 481z" />
    <glyph glyph-name="uni274C" unicode="&#x274c;" horiz-adv-x="912" 
d="M778 50l-23 -23l-299 298l-299 -298l-23 23l298 299l-298 299l23 23l299 -298l299 298l23 -23l-298 -299z" />
    <glyph glyph-name="uni2B0E" unicode="&#x2b0e;" horiz-adv-x="764" 
d="M540 101l-196 196l22 23l110 -109l48 -53l2 1l-2 105v286h-490v32h522v-318l-2 -105l2 -1l48 53l110 109l22 -23z" />
    <glyph glyph-name="uni2B0F" unicode="&#x2b0f;" horiz-adv-x="764" 
d="M540 628l196 -196l-22 -23l-110 109l-48 53l-2 -1l2 -105v-318h-522v32h490v286l2 105l-2 1l-48 -53l-110 -109l-22 23z" />
    <glyph glyph-name="uni2B10" unicode="&#x2b10;" horiz-adv-x="764" 
d="M224 101l-196 196l22 23l110 -109l48 -53l2 1l-2 105v318h522v-32h-490v-286l-2 -105l2 -1l48 53l110 109l22 -23z" />
    <glyph glyph-name="uni2B11" unicode="&#x2b11;" horiz-adv-x="764" 
d="M224 628l196 -196l-22 -23l-110 109l-48 53l-2 -1l2 -105v-286h490v-32h-522v318l2 105l-2 1l-48 -53l-110 -109l-22 23z" />
    <glyph glyph-name="uniEBE1" unicode="&#xebe1;" horiz-adv-x="1800" 
d="M1242 0h-235v141h94v423h-94v141h266l109 -329l109 329h266v-141h-94v-423h94v-141h-235v423l-140 -423l-140 423v-423zM372 0h-329v141h94v423h-94v141h329v-141h-94v-423h94v-141zM654 282v-141h141v141h-141zM419 0v141h94v423h-94v141h345q85 0 140.5 -55t55.5 -133
q0 -54 -26.5 -97t-71.5 -67q45 -24 71.5 -67.5t26.5 -97.5q0 -78 -55.5 -133t-140.5 -55h-345zM654 564v-141h141v141h-141z" />
    <glyph glyph-name="uniEBE3" unicode="&#xebe3;" horiz-adv-x="1800" 
d="M419 564v47h515q14 -21 20 -47h-535zM372 0h-329v47h329v-47zM372 94h-329v47h329v-47zM278 188h-141v47h141v-47zM278 282h-141v47h141v-47zM278 376h-141v47h141v-47zM419 0v47h477q-53 -47 -132 -47h-345zM278 470h-141v47h141v-47zM372 564h-329v47h329v-47zM654 188
h-141v47h141v-47zM419 94v47h535q-6 -26 -20 -47h-515zM372 658h-329v47h329v-47zM513 282v47h383q28 -24 40 -47h-423zM654 470h-141v47h141v-47zM795 188v47h159q6 -22 6 -47h-165zM513 376v47h423q-12 -23 -40 -47h-383zM1242 0h-235v47h235v-47zM1242 94h-235v47h235
v-47zM419 658v47h345q79 0 132 -47h-477zM795 470v47h165q0 -25 -6 -47h-159zM1242 188h-141v47h141v-47zM1398 47l-16 -47l-16 47h32zM1242 282h-141v47h141v-47zM1413 94h-62l-16 47h94zM1242 376h-141v47h141v-47zM1444 188h-124l-15 47h154zM1757 0h-235v47h235v-47z
M1475 282h-186l-16 47h218zM1382 376h-125l-15 47h124zM1351 470h-250v47h234zM1320 564h-313v47h297zM1757 94h-235v47h235v-47zM1663 188h-141v47h141v-47zM1289 658h-282v47h266zM1507 376h-125l16 47h124zM1663 282h-141v47h141v-47zM1663 376h-141v47h141v-47z
M1663 470h-250l16 47h234v-47zM1757 564h-313l16 47h297v-47zM1757 658h-282l16 47h266v-47z" />
    <glyph glyph-name="uniEBE4" unicode="&#xebe4;" horiz-adv-x="1800" 
d="M1259 0l-105 315v-315h-175v105h70v315h-70v105h198l82 -245l82 245h198v-105h-70v-315h70v-105h-175v315zM541 0v105h70v315h-70v105h257q63 0 104.5 -41t41.5 -99q0 -40 -20 -72t-53 -50q33 -18 53 -50.5t20 -72.5q0 -58 -41.5 -99t-104.5 -41h-257zM261 420v105h245
v-105h-70v-315h70v-105h-245v105h70v315h-70zM821 315v105h-105v-105h105zM821 105v105h-105v-105h105z" />
    <glyph glyph-name="uniEBE6" unicode="&#xebe6;" horiz-adv-x="1800" 
d="M261 420v35h245v-35h-245zM261 490v35h245v-35h-245zM261 70v35h245v-35h-245zM261 0v35h245v-35h-245zM1318 455h221v-35h-233zM979 455h221l12 -35h-233v35zM1341 525h198v-35h-210zM979 525h198l12 -35h-210v35zM1294 385h175v-35h-187zM1049 385h175l12 -35h-187v35z
M1539 105v-35h-175v35h175zM1539 35v-35h-175v35h175zM979 70v35h175v-35h-175zM979 0v35h175v-35h-175zM1189 210l-12 35h164l-12 -35h-140zM1469 245v-35h-105v35h105zM611 140v35h105v-35h-105zM1049 210v35h105v-35h-105zM1212 140l-11 35h116l-11 -35h-94zM331 210v35
h105v-35h-105zM1469 175v-35h-105v35h105zM331 350v35h105v-35h-105zM1049 280v35h105v-35h-105zM1469 315v-35h-105v35h105zM1049 140v35h105v-35h-105zM331 140v35h105v-35h-105zM331 280v35h105v-35h-105zM1259 280l12 35h93l-12 -35h-93zM1247 315l12 -35h-93l-12 35h93
zM1236 70l-12 35h70l-12 -35h-46zM1259 0l-12 35h24zM541 70v35h399q-5 -22 -15 -35h-384zM541 0v35h355q-42 -35 -98 -35h-257zM611 245h286q20 -18 29 -35h-315v35zM821 140v35h119q4 -16 4 -35h-123zM541 420v35h384q10 -13 15 -35h-399zM541 490v35h257q56 0 98 -35
h-355zM611 280v35h315q-9 -17 -29 -35h-286zM821 350v35h123q0 -19 -4 -35h-119zM611 350v35h105v-35h-105z" />
    <glyph glyph-name="uniEBE7" unicode="&#xebe7;" horiz-adv-x="644" 
d="M488 160q-42 0 -54 43l-38 142l121 -82q27 -19 27 -48q0 -23 -16.5 -39t-39.5 -16zM156 160q-23 0 -39.5 16t-16.5 39q0 29 27 48l121 82l-38 -142q-12 -43 -54 -43zM396 289v-37h-148v37h148zM396 215v-37h-148v37h148zM322 104q-45 0 -64 37h128q-19 -37 -64 -37z
M322 363q45 0 64 -37h-128q19 37 64 37zM364 373q-14 0 -23.5 9.5t-9.5 22.5t9.5 22.5t23.5 9.5t23.5 -9.5t9.5 -22.5t-9.5 -22.5t-23.5 -9.5zM280 373q-14 0 -23.5 9.5t-9.5 22.5t9.5 22.5t23.5 9.5t23.5 -9.5t9.5 -22.5t-9.5 -22.5t-23.5 -9.5zM297 2h-123v19h116zM470 2
h-123l7 19h116v-19zM284 39h-110v19h104zM470 39h-110l6 19h104v-19zM433 -35h-98l6 19h92v-19zM309 -35h-98v19h92zM267 -183h-93v19h93v-19zM470 -183h-93v19h93v-19zM267 -220h-93v19h93v-19zM470 -220h-93v19h93v-19zM285 -109l-6 19h86l-6 -19h-74zM433 -109h-56v19h56
v-19zM433 -72h-56v19h56v-19zM433 -146h-56v19h56v-19zM267 -109h-56v19h56v-19zM267 -72h-56v19h56v-19zM267 -146h-56v19h56v-19zM298 -146l-7 19h62l-7 -19h-48zM322 -72h-49l-6 19h48zM371 -72h-49l7 19h48zM310 -183l-6 19h36l-6 -19h-24zM322 -220l-6 19h12zM285 586
q0 16 10.5 26.5t26.5 10.5t26.5 -10.5t10.5 -26.5t-10.5 -26.5t-26.5 -10.5t-26.5 10.5t-10.5 26.5zM239 586q0 -35 24 -59t59 -24t59 24t24 59t-24 59t-59 24t-59 -24t-24 -59zM470 586q-18 -46 -58.5 -74t-89.5 -28t-89.5 28t-58.5 74q18 46 58.5 74t89.5 28t89.5 -28
t58.5 -74zM322 734q-84 0 -139 -65v28q21 38 58 60.5t81 22.5t81 -22.5t58 -60.5v-28q-55 65 -139 65z" />
    <glyph glyph-name="uniECE0" unicode="&#xece0;" horiz-adv-x="1200" 
d="M1071 604q-89 0 -159 -57t-89 -143h209v-110h-209q19 -86 89 -143t159 -57q19 0 37 3v-107q-16 -2 -38 -2q-147 0 -253 106t-106 255t106 255t253 106q22 0 38 -2v-107q-18 3 -37 3zM197 349q0 -105 75 -180t179 -75q19 0 37 3v-107q-16 -2 -38 -2q-147 0 -253 106
t-106 255t106 255t253 106q22 0 38 -2v-107q-18 3 -37 3q-104 0 -179 -75t-75 -180z" />
    <glyph glyph-name="uniEFCC" unicode="&#xefcc;" horiz-adv-x="1200" 
d="M608 349q0 -56 37 -93.5t90 -37.5q69 0 107 58l63 -45q-62 -88 -168 -88q-85 0 -145.5 60.5t-60.5 145.5t60.5 145.5t145.5 60.5q106 0 168 -88l-63 -45q-38 58 -107 58q-53 0 -90 -37.5t-37 -93.5zM245 311v-257l-72 -52v696h303l-61 -76h-170v-235h136q14 136 116 228
t241 92q87 0 163 -39.5t126 -109.5l-63 -46q-37 53 -97.5 86.5t-130.5 33.5q-111 0 -195.5 -81t-84.5 -202t84.5 -202t195.5 -81q70 0 130.5 33.5t97.5 86.5l63 -46q-50 -70 -126 -109.5t-163 -39.5q-139 0 -241 92t-116 228h-136z" />
    <glyph glyph-name="dieresisacute" unicode="&#xf6d7;" horiz-adv-x="0" 
d="M123 851l-113 -154l-23 13l104 158zM-93 625q-29 0 -29 27v8q0 27 29 27t29 -27v-8q0 -27 -29 -27zM93 625q-29 0 -29 27v8q0 27 29 27t29 -27v-8q0 -27 -29 -27z" />
    <glyph glyph-name="dieresisgrave" unicode="&#xf6d8;" horiz-adv-x="0" 
d="M-8 697l-113 154l31 17l105 -158zM-93 625q-29 0 -29 27v8q0 27 29 27t29 -27v-8q0 -27 -29 -27zM93 625q-29 0 -29 27v8q0 27 29 27t29 -27v-8q0 -27 -29 -27z" />
    <glyph glyph-name="fl" unicode="&#xfb02;" horiz-adv-x="549" 
d="M512 0h-75q-43 0 -43 42v698h35v-709h83v-31zM121 0v477h-91v31h91v181q0 51 49 51h100v-31h-114v-201h114v-31h-114v-477h-35z" />
    <glyph glyph-name="a.alt01" horiz-adv-x="567" 
d="M432 0v79h-3q-19 -40 -60 -65.5t-101 -25.5q-100 0 -155.5 68.5t-55.5 197.5t55.5 197.5t155.5 68.5q60 0 101.5 -25.5t59.5 -65.5h3v79h35v-508h-35zM273 20q66 0 112.5 36t46.5 92v214q0 55 -47 91t-112 36q-84 0 -131 -55.5t-47 -150.5v-58q0 -95 47 -150t131 -55z
" />
    <glyph glyph-name="g.alt01" horiz-adv-x="567" 
d="M467 508v-512q0 -100 -52 -154t-152 -54q-113 0 -177 67l21 25q58 -61 155 -61q170 0 170 175v85h-3q-19 -40 -60 -65.5t-101 -25.5q-100 0 -155.5 68.5t-55.5 197.5t55.5 197.5t155.5 68.5q60 0 101.5 -25.5t59.5 -65.5h3v79h35zM274 20q65 0 111.5 36t46.5 92v214
q0 55 -46.5 91t-111.5 36q-85 0 -132 -55.5t-47 -150.5v-58q0 -95 47 -150t132 -55z" />
    <glyph glyph-name="g.alt02" horiz-adv-x="528" 
d="M506 -63q0 -149 -242 -149q-216 0 -216 129q0 85 95 116v4q-51 17 -51 69q0 63 86 87v3q-93 42 -93 153q0 78 48.5 124.5t129.5 46.5q41 0 74 -12h165v-29h-119q60 -52 60 -130q0 -77 -49.5 -124t-129.5 -47q-22 0 -55 7q-85 -24 -85 -74q0 -52 85 -52h129
q168 0 168 -122zM264 209q65 0 102.5 34t37.5 88v36q0 55 -37.5 88.5t-102.5 33.5q-66 0 -103 -33.5t-37 -88.5v-36q0 -54 38 -88t102 -34zM471 -65q0 45 -31 68t-104 23h-159q-94 -25 -94 -105q0 -46 40.5 -74t112.5 -28h55q84 0 132 29t48 87z" />
    <glyph glyph-name="zero.alt01" 
d="M300 -12q-232 0 -232 361t232 361t232 -361t-232 -361zM300 21q95 0 143.5 74t48.5 216v76q0 142 -48.5 216t-143.5 74t-143.5 -74t-48.5 -216v-76q0 -142 48.5 -216t143.5 -74zM300 316q-32 0 -32 29v8q0 29 32 29t32 -29v-8q0 -29 -32 -29z" />
    <glyph glyph-name="zero.alt02" 
d="M300 -12q-232 0 -232 361t232 361t232 -361t-232 -361zM300 677q-95 0 -143.5 -74t-48.5 -216v-76q0 -83 15 -135l345 379q-46 122 -168 122zM300 21q95 0 143.5 74t48.5 216v76q0 83 -15 135l-345 -379q46 -122 168 -122z" />
    <glyph glyph-name="aacute.alt01" horiz-adv-x="567" 
d="M373 740l-113 -153l-24 13l105 158zM432 0v79h-3q-19 -40 -60 -65.5t-101 -25.5q-100 0 -155.5 68.5t-55.5 197.5t55.5 197.5t155.5 68.5q60 0 101.5 -25.5t59.5 -65.5h3v79h35v-508h-35zM273 20q66 0 112.5 36t46.5 92v214q0 55 -47 91t-112 36q-84 0 -131 -55.5
t-47 -150.5v-58q0 -95 47 -150t131 -55z" />
    <glyph glyph-name="abreve.alt01" horiz-adv-x="567" 
d="M272 604q-28 0 -48.5 8t-37 26.5t-26.5 36t-25 48.5l23 10l17 -28q24 -42 43.5 -57t53.5 -15t53.5 15t43.5 57l17 28l23 -10q-15 -31 -25 -48.5t-26.5 -36t-37 -26.5t-48.5 -8zM432 0v79h-3q-19 -40 -60 -65.5t-101 -25.5q-100 0 -155.5 68.5t-55.5 197.5t55.5 197.5
t155.5 68.5q60 0 101.5 -25.5t59.5 -65.5h3v79h35v-508h-35zM273 20q66 0 112.5 36t46.5 92v214q0 55 -47 91t-112 36q-84 0 -131 -55.5t-47 -150.5v-58q0 -95 47 -150t131 -55z" />
    <glyph glyph-name="acircumflex.alt01" horiz-adv-x="567" 
d="M251 748h42l124 -135l-21 -16l-124 125l-124 -125l-21 16zM432 0v79h-3q-19 -40 -60 -65.5t-101 -25.5q-100 0 -155.5 68.5t-55.5 197.5t55.5 197.5t155.5 68.5q60 0 101.5 -25.5t59.5 -65.5h3v79h35v-508h-35zM273 20q66 0 112.5 36t46.5 92v214q0 55 -47 91t-112 36
q-84 0 -131 -55.5t-47 -150.5v-58q0 -95 47 -150t131 -55z" />
    <glyph glyph-name="adieresis.alt01" horiz-adv-x="567" 
d="M181 636q-30 0 -30 27v8q0 27 30 27q29 0 29 -27v-8q0 -27 -29 -27zM363 636q-29 0 -29 27v8q0 27 29 27q30 0 30 -27v-8q0 -27 -30 -27zM432 0v79h-3q-19 -40 -60 -65.5t-101 -25.5q-100 0 -155.5 68.5t-55.5 197.5t55.5 197.5t155.5 68.5q60 0 101.5 -25.5t59.5 -65.5
h3v79h35v-508h-35zM273 20q66 0 112.5 36t46.5 92v214q0 55 -47 91t-112 36q-84 0 -131 -55.5t-47 -150.5v-58q0 -95 47 -150t131 -55z" />
    <glyph glyph-name="uni1EA1.alt01" horiz-adv-x="567" 
d="M273 -142q-30 0 -30 27v8q0 27 30 27t30 -27v-8q0 -27 -30 -27zM432 0v79h-3q-19 -40 -60 -65.5t-101 -25.5q-100 0 -155.5 68.5t-55.5 197.5t55.5 197.5t155.5 68.5q60 0 101.5 -25.5t59.5 -65.5h3v79h35v-508h-35zM273 20q66 0 112.5 36t46.5 92v214q0 55 -47 91
t-112 36q-84 0 -131 -55.5t-47 -150.5v-58q0 -95 47 -150t131 -55z" />
    <glyph glyph-name="agrave.alt01" horiz-adv-x="567" 
d="M283 587l-113 153l32 18l105 -158zM432 0v79h-3q-19 -40 -60 -65.5t-101 -25.5q-100 0 -155.5 68.5t-55.5 197.5t55.5 197.5t155.5 68.5q60 0 101.5 -25.5t59.5 -65.5h3v79h35v-508h-35zM273 20q66 0 112.5 36t46.5 92v214q0 55 -47 91t-112 36q-84 0 -131 -55.5
t-47 -150.5v-58q0 -95 47 -150t131 -55z" />
    <glyph glyph-name="uni1EA3.alt01" horiz-adv-x="567" 
d="M196 715v29h130q34 0 34 -27q0 -17 -35 -69l-43 -65l-23 12l72 120h-135zM432 0v79h-3q-19 -40 -60 -65.5t-101 -25.5q-100 0 -155.5 68.5t-55.5 197.5t55.5 197.5t155.5 68.5q60 0 101.5 -25.5t59.5 -65.5h3v79h35v-508h-35zM273 20q66 0 112.5 36t46.5 92v214
q0 55 -47 91t-112 36q-84 0 -131 -55.5t-47 -150.5v-58q0 -95 47 -150t131 -55z" />
    <glyph glyph-name="amacron.alt01" horiz-adv-x="567" 
d="M140 653v30h264v-30h-264zM432 0v79h-3q-19 -40 -60 -65.5t-101 -25.5q-100 0 -155.5 68.5t-55.5 197.5t55.5 197.5t155.5 68.5q60 0 101.5 -25.5t59.5 -65.5h3v79h35v-508h-35zM273 20q66 0 112.5 36t46.5 92v214q0 55 -47 91t-112 36q-84 0 -131 -55.5t-47 -150.5v-58
q0 -95 47 -150t131 -55z" />
    <glyph glyph-name="aogonek.alt01" horiz-adv-x="567" 
d="M273 20q66 0 112.5 36t46.5 92v214q0 55 -47 91t-112 36q-84 0 -131 -55.5t-47 -150.5v-58q0 -95 47 -150t131 -55zM467 0q-57 -46 -77.5 -71t-20.5 -55q0 -51 52 -51q38 0 57 25l20 -18q-24 -33 -78 -33q-37 0 -60 19t-23 54q0 64 100 130v1h-5v78h-3q-19 -40 -60 -65.5
t-101 -25.5q-100 0 -155.5 68.5t-55.5 197.5t55.5 197.5t155.5 68.5q60 0 101.5 -25.5t59.5 -65.5h3v79h35v-508z" />
    <glyph glyph-name="aring.alt01" horiz-adv-x="567" 
d="M272 586q-43 0 -69.5 27t-26.5 70q0 42 26.5 69t69.5 27t69.5 -27t26.5 -69q0 -43 -26.5 -70t-69.5 -27zM272 611q31 0 49 18t18 47v13q0 30 -18 47.5t-49 17.5t-49 -17.5t-18 -47.5v-13q0 -29 18 -47t49 -18zM432 0v79h-3q-19 -40 -60 -65.5t-101 -25.5
q-100 0 -155.5 68.5t-55.5 197.5t55.5 197.5t155.5 68.5q60 0 101.5 -25.5t59.5 -65.5h3v79h35v-508h-35zM273 20q66 0 112.5 36t46.5 92v214q0 55 -47 91t-112 36q-84 0 -131 -55.5t-47 -150.5v-58q0 -95 47 -150t131 -55z" />
    <glyph glyph-name="aringacute.alt01" horiz-adv-x="567" 
d="M361 903l-86 -100l-22 13l79 106zM272 584q-43 0 -69.5 26.5t-26.5 69.5t26.5 70t69.5 27t69.5 -27t26.5 -70t-26.5 -69.5t-69.5 -26.5zM272 609q31 0 49 17.5t18 47.5v13q0 29 -18 47t-49 18t-49 -18t-18 -47v-13q0 -30 18 -47.5t49 -17.5zM432 0v79h-3
q-19 -40 -60 -65.5t-101 -25.5q-100 0 -155.5 68.5t-55.5 197.5t55.5 197.5t155.5 68.5q60 0 101.5 -25.5t59.5 -65.5h3v79h35v-508h-35zM273 20q66 0 112.5 36t46.5 92v214q0 55 -47 91t-112 36q-84 0 -131 -55.5t-47 -150.5v-58q0 -95 47 -150t131 -55z" />
    <glyph glyph-name="atilde.alt01" horiz-adv-x="567" 
d="M343 624q-32 0 -77 29q-41 26 -67 26q-32 0 -64 -32l-17 19q36 42 83 42q32 0 77 -29q41 -26 67 -26q32 0 64 32l17 -19q-36 -42 -83 -42zM432 0v79h-3q-19 -40 -60 -65.5t-101 -25.5q-100 0 -155.5 68.5t-55.5 197.5t55.5 197.5t155.5 68.5q60 0 101.5 -25.5t59.5 -65.5
h3v79h35v-508h-35zM273 20q66 0 112.5 36t46.5 92v214q0 55 -47 91t-112 36q-84 0 -131 -55.5t-47 -150.5v-58q0 -95 47 -150t131 -55z" />
    <glyph glyph-name="uni1EAF.alt01" horiz-adv-x="567" 
d="M272 592q-53 0 -82 27t-55 84l23 11l17 -28q22 -38 42.5 -52t54.5 -14t54.5 14t42.5 52l17 28l23 -11q-26 -57 -55 -84t-82 -27zM379 851l-113 -154l-23 13l105 158zM432 0v79h-3q-19 -40 -60 -65.5t-101 -25.5q-100 0 -155.5 68.5t-55.5 197.5t55.5 197.5t155.5 68.5
q60 0 101.5 -25.5t59.5 -65.5h3v79h35v-508h-35zM273 20q66 0 112.5 36t46.5 92v214q0 55 -47 91t-112 36q-84 0 -131 -55.5t-47 -150.5v-58q0 -95 47 -150t131 -55z" />
    <glyph glyph-name="uni1EB7.alt01" horiz-adv-x="567" 
d="M273 -142q-30 0 -30 27v8q0 27 30 27t30 -27v-8q0 -27 -30 -27zM272 604q-28 0 -48.5 8t-37 26.5t-26.5 36t-25 48.5l23 10l17 -28q24 -42 43.5 -57t53.5 -15t53.5 15t43.5 57l17 28l23 -10q-15 -31 -25 -48.5t-26.5 -36t-37 -26.5t-48.5 -8zM432 0v79h-3
q-19 -40 -60 -65.5t-101 -25.5q-100 0 -155.5 68.5t-55.5 197.5t55.5 197.5t155.5 68.5q60 0 101.5 -25.5t59.5 -65.5h3v79h35v-508h-35zM273 20q66 0 112.5 36t46.5 92v214q0 55 -47 91t-112 36q-84 0 -131 -55.5t-47 -150.5v-58q0 -95 47 -150t131 -55z" />
    <glyph glyph-name="uni1EB1.alt01" horiz-adv-x="567" 
d="M272 592q-53 0 -82 27t-55 84l23 11l17 -28q22 -38 42.5 -52t54.5 -14t54.5 14t42.5 52l17 28l23 -11q-26 -57 -55 -84t-82 -27zM278 697l-113 154l31 17l105 -158zM432 0v79h-3q-19 -40 -60 -65.5t-101 -25.5q-100 0 -155.5 68.5t-55.5 197.5t55.5 197.5t155.5 68.5
q60 0 101.5 -25.5t59.5 -65.5h3v79h35v-508h-35zM273 20q66 0 112.5 36t46.5 92v214q0 55 -47 91t-112 36q-84 0 -131 -55.5t-47 -150.5v-58q0 -95 47 -150t131 -55z" />
    <glyph glyph-name="uni1EB3.alt01" horiz-adv-x="567" 
d="M272 592q-53 0 -82 27t-55 84l23 11l17 -28q22 -38 42.5 -52t54.5 -14t54.5 14t42.5 52l17 28l23 -11q-26 -57 -55 -84t-82 -27zM194 827v28h127q34 0 34 -27q0 -17 -35 -69l-43 -65l-23 12l73 121h-133zM432 0v79h-3q-19 -40 -60 -65.5t-101 -25.5q-100 0 -155.5 68.5
t-55.5 197.5t55.5 197.5t155.5 68.5q60 0 101.5 -25.5t59.5 -65.5h3v79h35v-508h-35zM273 20q66 0 112.5 36t46.5 92v214q0 55 -47 91t-112 36q-84 0 -131 -55.5t-47 -150.5v-58q0 -95 47 -150t131 -55z" />
    <glyph glyph-name="uni1EB5.alt01" horiz-adv-x="567" 
d="M272 592q-53 0 -82 27t-55 84l23 11l17 -28q22 -38 42.5 -52t54.5 -14t54.5 14t42.5 52l17 28l23 -11q-26 -57 -55 -84t-82 -27zM343 765q-31 0 -77 29q-41 26 -67 26q-32 0 -64 -32l-16 18q34 42 82 42q31 0 77 -29q41 -26 67 -26q32 0 64 32l16 -18q-34 -42 -82 -42z
M432 0v79h-3q-19 -40 -60 -65.5t-101 -25.5q-100 0 -155.5 68.5t-55.5 197.5t55.5 197.5t155.5 68.5q60 0 101.5 -25.5t59.5 -65.5h3v79h35v-508h-35zM273 20q66 0 112.5 36t46.5 92v214q0 55 -47 91t-112 36q-84 0 -131 -55.5t-47 -150.5v-58q0 -95 47 -150t131 -55z" />
    <glyph glyph-name="uni1EA5.alt01" horiz-adv-x="567" 
d="M508 851l-113 -154l-23 13l105 158zM251 737h42l124 -133l-21 -15l-124 123l-124 -123l-21 15zM432 0v79h-3q-19 -40 -60 -65.5t-101 -25.5q-100 0 -155.5 68.5t-55.5 197.5t55.5 197.5t155.5 68.5q60 0 101.5 -25.5t59.5 -65.5h3v79h35v-508h-35zM273 20q66 0 112.5 36
t46.5 92v214q0 55 -47 91t-112 36q-84 0 -131 -55.5t-47 -150.5v-58q0 -95 47 -150t131 -55z" />
    <glyph glyph-name="uni1EAD.alt01" horiz-adv-x="567" 
d="M273 -142q-30 0 -30 27v8q0 27 30 27t30 -27v-8q0 -27 -30 -27zM251 748h42l124 -135l-21 -16l-124 125l-124 -125l-21 16zM432 0v79h-3q-19 -40 -60 -65.5t-101 -25.5q-100 0 -155.5 68.5t-55.5 197.5t55.5 197.5t155.5 68.5q60 0 101.5 -25.5t59.5 -65.5h3v79h35v-508
h-35zM273 20q66 0 112.5 36t46.5 92v214q0 55 -47 91t-112 36q-84 0 -131 -55.5t-47 -150.5v-58q0 -95 47 -150t131 -55z" />
    <glyph glyph-name="uni1EA7.alt01" horiz-adv-x="567" 
d="M149 697l-113 154l31 17l105 -158zM251 737h42l124 -133l-21 -15l-124 123l-124 -123l-21 15zM432 0v79h-3q-19 -40 -60 -65.5t-101 -25.5q-100 0 -155.5 68.5t-55.5 197.5t55.5 197.5t155.5 68.5q60 0 101.5 -25.5t59.5 -65.5h3v79h35v-508h-35zM273 20q66 0 112.5 36
t46.5 92v214q0 55 -47 91t-112 36q-84 0 -131 -55.5t-47 -150.5v-58q0 -95 47 -150t131 -55z" />
    <glyph glyph-name="uni1EA9.alt01" horiz-adv-x="567" 
d="M314 827v28h130q34 0 34 -27q0 -17 -35 -69l-43 -65l-23 12l73 121h-136zM251 737h42l124 -133l-21 -15l-124 123l-124 -123l-21 15zM432 0v79h-3q-19 -40 -60 -65.5t-101 -25.5q-100 0 -155.5 68.5t-55.5 197.5t55.5 197.5t155.5 68.5q60 0 101.5 -25.5t59.5 -65.5h3v79
h35v-508h-35zM273 20q66 0 112.5 36t46.5 92v214q0 55 -47 91t-112 36q-84 0 -131 -55.5t-47 -150.5v-58q0 -95 47 -150t131 -55z" />
    <glyph glyph-name="uni1EAB.alt01" horiz-adv-x="567" 
d="M201 856q31 0 77 -29q42 -25 67 -25q33 0 64 31l16 -17q-35 -43 -82 -43q-31 0 -77 29q-42 25 -67 25q-33 0 -64 -31l-16 17q35 43 82 43zM251 737h42l124 -133l-21 -15l-124 123l-124 -123l-21 15zM432 0v79h-3q-19 -40 -60 -65.5t-101 -25.5q-100 0 -155.5 68.5
t-55.5 197.5t55.5 197.5t155.5 68.5q60 0 101.5 -25.5t59.5 -65.5h3v79h35v-508h-35zM273 20q66 0 112.5 36t46.5 92v214q0 55 -47 91t-112 36q-84 0 -131 -55.5t-47 -150.5v-58q0 -95 47 -150t131 -55z" />
    <glyph glyph-name="gbreve.alt01" horiz-adv-x="567" 
d="M272 604q-28 0 -48.5 8t-37 26.5t-26.5 36t-25 48.5l23 10l17 -28q24 -42 43.5 -57t53.5 -15t53.5 15t43.5 57l17 28l23 -10q-15 -31 -25 -48.5t-26.5 -36t-37 -26.5t-48.5 -8zM467 508v-512q0 -100 -52 -154t-152 -54q-113 0 -177 67l21 25q58 -61 155 -61
q170 0 170 175v85h-3q-19 -40 -60 -65.5t-101 -25.5q-100 0 -155.5 68.5t-55.5 197.5t55.5 197.5t155.5 68.5q60 0 101.5 -25.5t59.5 -65.5h3v79h35zM274 20q65 0 111.5 36t46.5 92v214q0 55 -46.5 91t-111.5 36q-85 0 -132 -55.5t-47 -150.5v-58q0 -95 47 -150t132 -55z
" />
    <glyph glyph-name="gcircumflex.alt01" horiz-adv-x="567" 
d="M251 748h42l124 -135l-21 -16l-124 125l-124 -125l-21 16zM467 508v-512q0 -100 -52 -154t-152 -54q-113 0 -177 67l21 25q58 -61 155 -61q170 0 170 175v85h-3q-19 -40 -60 -65.5t-101 -25.5q-100 0 -155.5 68.5t-55.5 197.5t55.5 197.5t155.5 68.5q60 0 101.5 -25.5
t59.5 -65.5h3v79h35zM274 20q65 0 111.5 36t46.5 92v214q0 55 -46.5 91t-111.5 36q-85 0 -132 -55.5t-47 -150.5v-58q0 -95 47 -150t132 -55z" />
    <glyph glyph-name="gcommaaccent.alt01" horiz-adv-x="567" 
d="M271 598q-28 0 -28 28v11q0 28 14 60.5t34 54.5h28q-36 -38 -47 -92q30 -1 30 -26v-8q0 -28 -31 -28zM467 508v-512q0 -100 -52 -154t-152 -54q-113 0 -177 67l21 25q58 -61 155 -61q170 0 170 175v85h-3q-19 -40 -60 -65.5t-101 -25.5q-100 0 -155.5 68.5t-55.5 197.5
t55.5 197.5t155.5 68.5q60 0 101.5 -25.5t59.5 -65.5h3v79h35zM274 20q65 0 111.5 36t46.5 92v214q0 55 -46.5 91t-111.5 36q-85 0 -132 -55.5t-47 -150.5v-58q0 -95 47 -150t132 -55z" />
    <glyph glyph-name="gdotaccent.alt01" horiz-adv-x="567" 
d="M272 636q-30 0 -30 27v8q0 27 30 27t30 -27v-8q0 -27 -30 -27zM467 508v-512q0 -100 -52 -154t-152 -54q-113 0 -177 67l21 25q58 -61 155 -61q170 0 170 175v85h-3q-19 -40 -60 -65.5t-101 -25.5q-100 0 -155.5 68.5t-55.5 197.5t55.5 197.5t155.5 68.5
q60 0 101.5 -25.5t59.5 -65.5h3v79h35zM274 20q65 0 111.5 36t46.5 92v214q0 55 -46.5 91t-111.5 36q-85 0 -132 -55.5t-47 -150.5v-58q0 -95 47 -150t132 -55z" />
    <glyph glyph-name="ijacute" horiz-adv-x="471" 
d="M135 0h-35v508h35v-508zM453 740l-113 -153l-24 13l105 158zM218 740l-113 -153l-24 13l105 158zM251 -200v31h85v677h35v-657q0 -51 -48 -51h-72z" />
    <glyph glyph-name="jacute" horiz-adv-x="235" 
d="M218 740l-113 -153l-24 13l105 158zM15 -200v31h85v677h35v-657q0 -51 -48 -51h-72z" />
    <glyph glyph-name="germandbls.alt01" horiz-adv-x="556" 
d="M135 0h-35v690q0 50 49 50h163v-31h-177v-201h354v-30l-212 -276q121 -2 180.5 -49.5t59.5 -146.5q0 -107 -62.5 -156.5t-186.5 -49.5h-40v31h42q103 0 156 37.5t53 121.5v28q0 154 -213 154h-23v32l208 273h-316v-477z" />
    <glyph glyph-name="IJacute" horiz-adv-x="634" 
d="M532 918l-113 -154l-24 13l105 158zM238 918l-113 -154l-24 13l105 158zM315 698h222v-491q0 -105 -58.5 -162t-166.5 -57q-179 0 -214 150l33 9q18 -64 61.5 -95t120.5 -31q90 0 138.5 47t48.5 135v462h-185v33zM97 290v408h37v-408h-37z" />
    <glyph glyph-name="Jacute" horiz-adv-x="475" 
d="M340 918l-113 -154l-24 13l105 158zM96 698h282v-515q0 -93 -47.5 -144t-131.5 -51q-66 0 -114 36.5t-62 96.5l33 9q14 -49 51.5 -79t92.5 -30q69 0 105 42.5t36 122.5v479h-245v33z" />
    <glyph glyph-name="tilde.alt01" 
d="M369 625q-31 0 -75 28q-39 25 -64 25q-33 0 -63 -32l-17 19q34 42 81 42q31 0 75 -28q39 -25 64 -25q33 0 63 32l17 -19q-34 -42 -81 -42z" />
    <glyph glyph-name="ringacute" 
d="M389 903l-86 -100l-22 13l79 106zM300 584q-43 0 -69.5 26.5t-26.5 69.5t26.5 70t69.5 27t69.5 -27t26.5 -70t-26.5 -69.5t-69.5 -26.5zM300 609q31 0 49 17.5t18 47.5v13q0 29 -18 47t-49 18t-49 -18t-18 -47v-13q0 -30 18 -47.5t49 -17.5z" />
    <glyph glyph-name="breveacute" horiz-adv-x="0" 
d="M0 592q-53 0 -82 27t-55 84l23 11l17 -28q22 -38 42.5 -52t54.5 -14t54.5 14t42.5 52l17 28l23 -11q-26 -57 -55 -84t-82 -27zM107 851l-113 -154l-23 13l105 158z" />
    <glyph glyph-name="brevegrave" horiz-adv-x="0" 
d="M0 592q-53 0 -82 27t-55 84l23 11l17 -28q22 -38 42.5 -52t54.5 -14t54.5 14t42.5 52l17 28l23 -11q-26 -57 -55 -84t-82 -27zM6 697l-113 154l31 17l105 -158z" />
    <glyph glyph-name="brevehook" horiz-adv-x="0" 
d="M0 592q-53 0 -82 27t-55 84l23 11l17 -28q22 -38 42.5 -52t54.5 -14t54.5 14t42.5 52l17 28l23 -11q-26 -57 -55 -84t-82 -27zM-78 827v28h127q34 0 34 -27q0 -17 -35 -69l-43 -65l-23 12l73 121h-133z" />
    <glyph glyph-name="brevetilde" horiz-adv-x="0" 
d="M0 592q-53 0 -82 27t-55 84l23 11l17 -28q22 -38 42.5 -52t54.5 -14t54.5 14t42.5 52l17 28l23 -11q-26 -57 -55 -84t-82 -27zM71 765q-31 0 -77 29q-41 26 -67 26q-32 0 -64 -32l-16 18q34 42 82 42q31 0 77 -29q41 -26 67 -26q32 0 64 32l16 -18q-34 -42 -82 -42z" />
    <glyph glyph-name="dieresiscaron" horiz-adv-x="0" 
d="M21 709h-42l-124 133l21 16l124 -124l124 124l21 -16zM-93 625q-29 0 -29 27v8q0 27 29 27t29 -27v-8q0 -27 -29 -27zM93 625q-29 0 -29 27v8q0 27 29 27t29 -27v-8q0 -27 -29 -27z" />
    <glyph glyph-name="circumflexacute" horiz-adv-x="0" 
d="M236 851l-113 -154l-23 13l105 158zM-21 737h42l124 -133l-21 -15l-124 123l-124 -123l-21 15z" />
    <glyph glyph-name="circumflexbreve" horiz-adv-x="0" 
d="M-20 709h40l132 -111l-17 -18l-135 104l-135 -104l-17 18zM0 740q-53 0 -82 27t-55 84l23 11l17 -29q22 -37 42.5 -51t54.5 -14t54.5 14t42.5 51l17 29l23 -11q-26 -57 -55 -84t-82 -27z" />
    <glyph glyph-name="circumflexgrave" horiz-adv-x="0" 
d="M-123 697l-113 154l31 17l105 -158zM-21 737h42l124 -133l-21 -15l-124 123l-124 -123l-21 15z" />
    <glyph glyph-name="circumflexhook" horiz-adv-x="0" 
d="M42 827v28h130q34 0 34 -27q0 -17 -35 -69l-43 -65l-23 12l73 121h-136zM-21 737h42l124 -133l-21 -15l-124 123l-124 -123l-21 15z" />
    <glyph glyph-name="dieresismacron" horiz-adv-x="0" 
d="M-122 771v30h244v-30h-244zM-93 625q-29 0 -29 27v8q0 27 29 27t29 -27v-8q0 -27 -29 -27zM93 625q-29 0 -29 27v8q0 27 29 27t29 -27v-8q0 -27 -29 -27z" />
    <glyph glyph-name="circumflextilde" horiz-adv-x="0" 
d="M-71 856q31 0 77 -29q42 -25 67 -25q33 0 64 31l16 -17q-35 -43 -82 -43q-31 0 -77 29q-42 25 -67 25q-33 0 -64 -31l-16 17q35 43 82 43zM-21 737h42l124 -133l-21 -15l-124 123l-124 -123l-21 15z" />
    <glyph glyph-name="tilde.case" 
d="M371 802q-30 0 -77 29q-42 25 -67 25q-33 0 -64 -31l-17 18q37 43 83 43q30 0 77 -29q42 -25 67 -25q33 0 64 31l17 -18q-37 -43 -83 -43z" />
    <glyph glyph-name="tilde.alt01.case" 
d="M369 803q-31 0 -75 28q-40 24 -64 24q-33 0 -63 -31l-17 19q34 42 81 42q31 0 75 -28q40 -24 64 -24q33 0 63 31l17 -19q-34 -42 -81 -42z" />
    <glyph glyph-name="macron.case" 
d="M168 831v30h264v-30h-264z" />
    <glyph glyph-name="dotaccent.case" 
d="M300 812q-31 0 -31 29v8q0 29 31 29t31 -29v-8q0 -29 -31 -29z" />
    <glyph glyph-name="dieresis.case" 
d="M209 812q-30 0 -30 27v8q0 27 30 27q29 0 29 -27v-8q0 -27 -29 -27zM391 812q-29 0 -29 27v8q0 27 29 27q30 0 30 -27v-8q0 -27 -30 -27z" />
    <glyph glyph-name="hungarumlaut.case" 
d="M335 918l-113 -154l-23 13l105 158zM495 918l-113 -154l-23 13l105 158z" />
    <glyph glyph-name="acute.case" 
d="M401 918l-113 -154l-24 13l105 158z" />
    <glyph glyph-name="grave.case" 
d="M311 764l-113 154l32 17l105 -158z" />
    <glyph glyph-name="circumflex.case" 
d="M279 926h42l124 -136l-21 -15l-124 124l-124 -124l-21 15z" />
    <glyph glyph-name="caron.case" 
d="M321 780h-42l-124 135l21 16l124 -125l124 125l21 -16z" />
    <glyph glyph-name="breve.case" 
d="M300 781q-28 0 -48.5 8t-37 26.5t-26.5 36t-25 48.5l23 11l17 -29q24 -42 43.5 -56.5t53.5 -14.5t53.5 14.5t43.5 56.5l17 29l23 -11q-15 -31 -25 -48.5t-26.5 -36t-37 -26.5t-48.5 -8z" />
    <glyph glyph-name="ring.case" 
d="M300 764q-43 0 -69.5 26.5t-26.5 69.5t26.5 70t69.5 27t69.5 -27t26.5 -70t-26.5 -69.5t-69.5 -26.5zM300 789q31 0 49 17.5t18 47.5v13q0 29 -18 47t-49 18t-49 -18t-18 -47v-13q0 -30 18 -47.5t49 -17.5z" />
    <glyph glyph-name="ringacute.case" 
d="M390 1082l-87 -101l-22 11l78 106zM300 761q-43 0 -69.5 27t-26.5 70t26.5 70t69.5 27t69.5 -27t26.5 -70t-26.5 -70t-69.5 -27zM300 787q31 0 49 17.5t18 46.5v13q0 30 -18 47.5t-49 17.5t-49 -17.5t-18 -47.5v-13q0 -29 18 -46.5t49 -17.5z" />
    <glyph glyph-name="uni0309.case" horiz-adv-x="0" 
d="M-76 893v28h130q34 0 34 -27q0 -16 -35 -68l-43 -65l-23 11l72 121h-135z" />
    <glyph glyph-name="breveacute.case" horiz-adv-x="0" 
d="M0 770q-53 0 -82 27t-55 84l23 11l17 -30q22 -37 42 -50.5t55 -13.5t55 13.5t42 50.5l17 30l23 -11q-26 -57 -55 -84t-82 -27zM107 1029l-113 -154l-23 13l105 158z" />
    <glyph glyph-name="brevegrave.case" horiz-adv-x="0" 
d="M0 770q-53 0 -82 27t-55 84l23 11l17 -30q22 -37 42 -50.5t55 -13.5t55 13.5t42 50.5l17 30l23 -11q-26 -57 -55 -84t-82 -27zM6 875l-113 154l31 17l105 -158z" />
    <glyph glyph-name="brevehook.case" horiz-adv-x="0" 
d="M-78 1005v27h127q34 0 34 -26q0 -17 -35 -69l-43 -65l-23 11l73 122h-133zM0 770q-53 0 -82 27t-55 84l23 11l17 -30q22 -37 42 -50.5t55 -13.5t55 13.5t42 50.5l17 30l23 -11q-26 -57 -55 -84t-82 -27z" />
    <glyph glyph-name="brevetilde.case" horiz-adv-x="0" 
d="M71 943q-31 0 -77 29q-42 25 -67 25q-33 0 -64 -31l-16 17q35 43 82 43q31 0 77 -29q42 -25 67 -25q33 0 64 31l16 -17q-35 -43 -82 -43zM0 770q-53 0 -82 27t-55 84l23 11l17 -30q22 -37 42 -50.5t55 -13.5t55 13.5t42 50.5l17 30l23 -11q-26 -57 -55 -84t-82 -27z" />
    <glyph glyph-name="dieresisacute.case" horiz-adv-x="0" 
d="M123 1029l-113 -154l-23 13l104 158zM-93 803q-29 0 -29 27v8q0 27 29 27q30 0 30 -27v-8q0 -27 -30 -27zM93 803q-30 0 -30 27v8q0 27 30 27q29 0 29 -27v-8q0 -27 -29 -27z" />
    <glyph glyph-name="dieresiscaron.case" horiz-adv-x="0" 
d="M21 887h-42l-124 133l21 15l124 -123l124 123l21 -15zM-93 803q-29 0 -29 27v8q0 27 29 27q30 0 30 -27v-8q0 -27 -30 -27zM93 803q-30 0 -30 27v8q0 27 30 27q29 0 29 -27v-8q0 -27 -29 -27z" />
    <glyph glyph-name="dieresisgrave.case" horiz-adv-x="0" 
d="M-8 875l-113 154l31 17l105 -158zM-93 803q-29 0 -29 27v8q0 27 29 27q30 0 30 -27v-8q0 -27 -30 -27zM93 803q-30 0 -30 27v8q0 27 30 27q29 0 29 -27v-8q0 -27 -29 -27z" />
    <glyph glyph-name="circumflexacute.case" horiz-adv-x="0" 
d="M236 1029l-113 -154l-23 13l105 158zM-21 915h42l124 -133l-21 -16l-124 124l-124 -124l-21 16z" />
    <glyph glyph-name="circumflexbreve.case" horiz-adv-x="0" 
d="M-20 886h40l132 -110l-17 -18l-135 104l-135 -104l-17 18zM0 917q-53 0 -82 27.5t-55 84.5l23 10l17 -30q22 -37 42.5 -50.5t54.5 -13.5t54.5 13.5t42.5 50.5l17 30l23 -10q-26 -57 -55 -84.5t-82 -27.5z" />
    <glyph glyph-name="circumflexgrave.case" horiz-adv-x="0" 
d="M-123 875l-113 154l31 17l105 -158zM-21 915h42l124 -133l-21 -16l-124 124l-124 -124l-21 16z" />
    <glyph glyph-name="circumflexhook.case" horiz-adv-x="0" 
d="M42 1005v27h130q34 0 34 -26q0 -17 -35 -69l-43 -65l-23 11l73 122h-136zM-21 915h42l124 -133l-21 -16l-124 124l-124 -124l-21 16z" />
    <glyph glyph-name="dieresismacron.case" horiz-adv-x="0" 
d="M-122 949v30h244v-30h-244zM-93 803q-29 0 -29 27v8q0 27 29 27q30 0 30 -27v-8q0 -27 -30 -27zM93 803q-30 0 -30 27v8q0 27 30 27q29 0 29 -27v-8q0 -27 -29 -27z" />
    <glyph glyph-name="circumflextilde.case" horiz-adv-x="0" 
d="M-71 1033q33 0 77 -29q41 -26 67 -26q32 0 64 32l16 -18q-34 -42 -82 -42q-33 0 -77 29q-41 26 -67 26q-32 0 -64 -32l-16 18q34 42 82 42zM-21 915h42l124 -133l-21 -16l-124 124l-124 -124l-21 16z" />
    </font>
</defs>
</svg>
